<svg width="94" height="106" viewBox="0 0 94 106" fill="none" xmlns="http://www.w3.org/2000/svg">
<path d="M30.1195 46.4443C30.9772 46.4443 31.6722 45.7491 31.6722 44.8916C31.6722 44.0341 30.9772 43.3389 30.1195 43.3389H15.016C14.1582 43.3389 13.4632 44.0341 13.4632 44.8916C13.4632 45.7491 14.1582 46.4443 15.016 46.4443H30.1195Z" fill="#B38E57"/>
<path d="M52.2238 66.4432C52.2238 63.8182 51.2015 61.3506 49.3457 59.4946C47.4894 57.6385 45.0218 56.6162 42.3971 56.6162C39.7723 56.6162 37.3045 57.6385 35.4485 59.4946L34.2603 60.6827L33.0722 59.4946C31.2161 57.6385 28.7483 56.6162 26.1236 56.6162C23.4988 56.6162 21.031 57.6385 19.175 59.4946C17.319 61.3506 16.2971 63.8184 16.2971 66.4432C16.2971 69.0679 17.3192 71.5357 19.175 73.3917L32.4306 86.6473C32.9192 87.1361 33.5693 87.4055 34.2605 87.4055C34.9518 87.4055 35.6017 87.1363 36.0907 86.6475L49.3463 73.392C51.2019 71.5357 52.224 69.0679 52.2238 66.4432ZM21.3706 71.196C18.7498 68.5752 18.7498 64.3111 21.3706 61.6903C22.6401 60.4208 24.3278 59.7217 26.1232 59.7217C27.9185 59.7217 29.6065 60.4208 30.876 61.6903C30.946 61.7549 32.4093 63.2335 32.4848 63.294L30.7812 68.4052C30.5893 68.9809 30.6774 69.6248 31.0162 70.126L34.6158 75.4681L32.807 80.8943C32.7411 81.0943 32.7076 81.3022 32.7076 81.5119V82.5326L21.3706 71.196ZM47.1499 71.196L35.8129 82.533V81.697L37.7393 75.9184C37.931 75.3436 37.843 74.7002 37.5043 74.1975L33.9047 68.8555L35.6597 63.5905C35.9942 63.412 37.3434 61.9665 37.6445 61.6903C38.914 60.4208 40.6017 59.7217 42.3971 59.7217C44.1924 59.7217 45.8804 60.4208 47.1499 61.6903C49.7707 64.3111 49.7707 68.5752 47.1499 71.196Z" fill="#B38E57"/>
<path d="M58.2704 97.8623C59.1281 97.8623 59.8231 97.1671 59.8231 96.3096C59.8231 95.452 59.1281 94.7568 58.2704 94.7568H38.4005C37.5428 94.7568 36.8478 95.452 36.8478 96.3096C36.8478 97.1671 37.5428 97.8623 38.4005 97.8623H58.2704Z" fill="#B38E57"/>
<path d="M91.4676 25.4092H85.9351C83.9002 25.4058 82.2568 27.101 82.3121 29.1332H74.5296V12.3101C74.5296 10.9631 73.4337 9.86752 72.0868 9.86752H50.9317C50.4951 7.74877 48.6153 6.1509 46.3692 6.1509H40.4063V6.14614C40.4063 2.75704 37.6492 0 34.2601 0C30.8712 0 28.114 2.75704 28.114 6.14614V6.1509H22.1505C19.9044 6.1509 18.0247 7.74877 17.5879 9.86752H8.75595C7.409 9.86752 6.31318 10.9631 6.31318 12.3101V16.0284H2.59449C1.24734 16.0284 0.15152 17.1242 0.15152 18.4713V64.7656C0.15152 65.6231 0.846524 66.3183 1.70425 66.3183C2.56199 66.3183 3.25699 65.6231 3.25699 64.7656V19.1338H17.4925V20.2062C17.4925 21.519 18.5605 22.5871 19.8733 22.5871H25.5089C26.3666 22.5871 27.0616 21.8919 27.0616 21.0344C27.0616 20.1769 26.3666 19.4816 25.5089 19.4816H20.5979V10.8091C20.5979 9.95303 21.2944 9.25637 22.1507 9.25637H46.3692C47.2255 9.25637 47.9219 9.95303 47.9219 10.8091V19.4816H32.7548C31.8971 19.4816 31.2021 20.1769 31.2021 21.0344C31.2021 21.8919 31.8971 22.5871 32.7548 22.5871H48.6465C49.9593 22.5871 51.0274 21.519 51.0274 20.2062V19.1342H65.2628V29.1332H57.2799C57.3352 27.101 55.6918 25.406 53.6569 25.4092H48.1244C46.8116 25.4092 45.7435 26.4772 45.7435 27.79V32.1395H9.93644C9.07871 32.1395 8.3837 32.8347 8.3837 33.6923C8.3837 34.5498 9.07871 35.245 9.93644 35.245H45.7437V43.3391H38.4008C37.543 43.3391 36.848 44.0343 36.848 44.8918C36.848 45.7494 37.543 46.4446 38.4008 46.4446H45.7437V50.7941C45.7437 52.1069 46.8118 53.1749 48.1246 53.1749H53.6571C55.692 53.1783 57.3354 51.4831 57.2801 49.4509H62.5932V55.897C62.5932 57.0965 63.2559 58.1429 64.2333 58.6936L63.6352 67.4025C63.5764 68.258 64.2223 68.9992 65.078 69.058C65.1142 69.0604 65.1502 69.0617 65.1858 69.0617C65.9947 69.0617 66.6771 68.4346 66.7334 67.6152L67.3178 59.106H72.2746L73.8832 82.5179C74.0956 84.818 72.1061 86.9504 69.797 86.8972C67.4367 86.9072 65.5318 84.8675 65.7086 82.5173L66.2344 74.8654C66.2932 74.0099 65.6473 73.2688 64.7918 73.2098C63.9352 73.1506 63.195 73.7969 63.1362 74.6524L62.6097 82.3138C62.4309 84.6901 63.5153 86.9956 65.2628 88.393V102.895H39.2494C38.3916 102.895 37.6966 103.59 37.6966 104.447C37.6966 105.305 38.3916 106 39.2494 106H65.9256C67.2727 106 68.3685 104.904 68.3685 103.557V99.8387H72.0872C73.4342 99.8387 74.53 98.7429 74.53 97.396V88.2286C76.2194 86.766 77.14 84.5325 76.9816 82.3044L75.3589 58.6934C76.3363 58.1427 76.9988 57.0965 76.9988 55.897V49.4509H82.3121C82.2568 51.4831 83.9002 53.178 85.9351 53.1749H91.4676C92.7804 53.1749 93.8485 52.1069 93.8485 50.7941V27.79C93.8485 26.4772 92.7804 25.4092 91.4676 25.4092ZM9.41886 16.0284V12.973H17.4925V16.0284H9.41886ZM31.2195 6.14614C31.2195 4.4696 32.5834 3.10547 34.2601 3.10547C35.9369 3.10547 37.301 4.46939 37.301 6.14614V6.1509H31.2197V6.14614H31.2195ZM65.9256 16.0288H51.0274V12.973H71.4243V29.1332H68.3683V18.4715C68.3683 17.1246 67.2725 16.0288 65.9256 16.0288ZM54.1745 49.5519C54.1745 49.8372 53.9424 50.0695 53.6569 50.0695H48.849V28.5146H53.6569C53.9424 28.5146 54.1745 28.7469 54.1745 29.0322V49.5519ZM71.4243 96.7333H68.3683V89.86C68.8302 89.9532 69.3078 90.0027 69.7968 90.0027C70.3484 90.0027 70.8939 89.9362 71.4241 89.8126V96.7333H71.4243ZM73.8934 55.897C73.8934 55.9541 73.8468 56.0005 73.7898 56.0005H65.8019C65.745 56.0005 65.6984 55.9541 65.6984 55.897V49.4509H73.8934V55.897ZM57.2799 46.3454V32.2387H82.3121V46.3454H57.2799ZM90.743 50.0695H85.9351C85.6496 50.0695 85.4175 49.8372 85.4175 49.5519V29.0322C85.4175 28.7469 85.6496 28.5146 85.9351 28.5146H90.743V50.0695Z" fill="#B38E57"/>
<path d="M32.0031 102.895C32.0031 102.895 19.923 102.89 19.8686 102.886V97.8623H30.1195C30.9772 97.8623 31.6722 97.1671 31.6722 96.3095C31.6722 95.452 30.9772 94.7568 30.1195 94.7568H19.8686V87.8146C19.8686 86.9571 19.1736 86.2619 18.3158 86.2619H3.26506C3.26154 86.2081 3.25699 72.0117 3.25699 72.0117C3.25699 71.1542 2.56199 70.459 1.70425 70.459C0.846524 70.459 0.15152 71.1542 0.15152 72.0117V86.1002C0.15152 87.5968 0.758122 89.0632 1.81667 90.1249L16.0037 104.328C17.0786 105.406 18.5096 106 20.0327 106H32.0031C32.8608 106 33.5558 105.305 33.5558 104.447C33.5558 103.59 32.8608 102.895 32.0031 102.895ZM5.44924 89.3674H16.7631V100.694L5.44924 89.3674Z" fill="#B38E57"/>
</svg>
