<svg width="106" height="106" viewBox="0 0 106 106" fill="none" xmlns="http://www.w3.org/2000/svg">
<path d="M85.713 71.5417C85.2244 71.2974 84.1354 70.5293 84.9201 66.5067C87.3672 63.9706 88.8868 60.5525 89.1021 57.505C89.1621 56.6458 89.1166 55.8405 88.9696 55.1014C89.9157 53.4182 90.2346 51.7206 89.9116 50.0457C89.3982 47.3895 87.3403 44.903 83.6179 42.4414C83.3197 42.2447 82.9491 42.1847 82.6034 42.2799L80.1832 42.9445L79.1832 41.518C78.9389 41.1682 78.5352 40.9694 78.1067 40.9901C72.9412 41.2365 71.4651 44.1287 70.6701 45.6814C70.5625 45.8926 70.4258 46.1597 70.3182 46.3315C70.1484 46.2466 69.8399 46.0562 69.3306 45.6297C68.8627 45.2363 68.1899 45.2508 67.7344 45.638L61.2316 34.3734C61.8734 34.628 62.5711 34.7688 63.3039 34.7688H88.1291L91.8432 36.9137C92.5202 37.305 93.0978 37.6569 93.5616 37.9405C94.6795 38.6238 95.4352 39.0834 96.1163 39.0834C96.3772 39.0834 96.6256 39.0171 96.8823 38.868C97.8078 38.3339 97.7829 37.3381 97.7395 35.5286C97.727 34.9862 97.7105 34.3113 97.7105 33.5287V33.1913C98.8222 32.1271 99.4475 30.6779 99.4475 29.1231V14.5502C99.4475 11.4364 96.9134 8.90234 93.7997 8.90234H63.3039C60.1902 8.90234 57.6561 11.4364 57.6561 14.5502V28.179L56.0516 25.3986C55.414 24.2951 54.2732 23.6368 53 23.6368C51.7268 23.6368 50.5839 24.2951 49.9484 25.3986L48.3439 28.179V14.5502C48.3439 11.4364 45.8098 8.90234 42.6961 8.90234H12.2004C9.0866 8.90234 6.55254 11.4364 6.55254 14.5502V29.121C6.55254 30.6738 7.17777 32.125 8.28953 33.1892V33.5266C8.28953 34.3092 8.27297 34.9841 8.26055 35.5266C8.21707 37.336 8.19223 38.3318 9.11765 38.866C9.3723 39.013 9.62281 39.0813 9.88367 39.0813C10.5648 39.0813 11.3205 38.6217 12.4384 37.9385C12.9022 37.6548 13.4777 37.305 14.1568 36.9116L17.8709 34.7668H42.6961C43.4269 34.7668 44.1246 34.626 44.7684 34.3713L37.1642 47.5427C36.0027 45.932 34.3196 44.6546 32.2286 43.8347C25.2827 41.1123 19.5541 44.2322 16.9579 48.5343C14.8172 52.0808 14.9228 56.0372 17.1505 58.4035C17.1173 61.3641 18.3492 64.66 20.523 67.1485C21.6306 71.1484 20.7777 71.8585 19.8729 72.1856C3.40359 76.8997 3.29801 83.622 3.10547 95.8203C3.09926 96.1536 3.22969 96.4745 3.46156 96.7105C3.69551 96.9486 4.01433 97.0811 4.34765 97.0811H49.9463C50.2796 97.0811 50.5984 96.9465 50.8324 96.7084C51.0663 96.4704 51.1947 96.1495 51.1885 95.8161C50.9959 83.6344 50.8883 76.9121 34.4852 72.2001C34.007 71.9599 32.9428 71.1939 33.7813 67.1299C35.2781 65.4032 36.2967 63.3246 36.7853 61.3496C37.0068 60.4552 37.1248 59.5898 37.1476 58.7679C37.1932 58.7203 37.2346 58.6727 37.2718 58.6168C37.5099 58.2731 37.7211 57.9108 37.9095 57.5402H66.7365C67.1361 57.9066 67.5895 58.211 68.0967 58.447C68.2189 59.3848 68.4466 60.36 68.7861 61.3496C69.3679 63.0514 70.3368 64.8712 71.6866 66.4218C72.8274 70.6867 71.3098 71.2974 70.6846 71.519C53.7453 76.3676 53.6356 83.2825 53.4368 95.8327C53.4306 96.166 53.5611 96.4869 53.7929 96.7229C54.0269 96.961 54.3457 97.0935 54.679 97.0935H101.652C101.986 97.0935 102.304 96.959 102.538 96.7209C102.772 96.4828 102.901 96.1619 102.895 95.8286C102.696 83.3032 102.586 76.3883 85.713 71.5417ZM60.1426 14.5502C60.1426 12.807 61.5607 11.3867 63.306 11.3867H93.8017C95.5449 11.3867 96.9652 12.8049 96.9652 14.5502V29.121C96.9652 30.1086 96.5097 31.0257 95.7147 31.6323C95.4083 31.8683 95.2282 32.2327 95.2282 32.6178V33.5246C95.2282 34.3382 95.2447 35.0297 95.2592 35.5866C95.2634 35.7481 95.2675 35.9096 95.2696 36.0669C95.135 35.9862 94.9963 35.9013 94.8596 35.8164C94.3856 35.5266 93.7934 35.1663 93.0895 34.7605L89.0876 32.4501C88.8992 32.3404 88.6839 32.2845 88.4665 32.2845H63.3039C61.5607 32.2845 60.1405 30.8663 60.1405 29.121V14.5502H60.1426ZM17.5376 32.2824C17.3202 32.2824 17.1049 32.3404 16.9165 32.448L12.9125 34.7605C12.2086 35.1663 11.6186 35.5286 11.1424 35.8164C11.0037 35.9013 10.865 35.9841 10.7325 36.0669C10.7366 35.9096 10.7387 35.7481 10.7429 35.5866C10.7573 35.0297 10.7739 34.3382 10.7739 33.5246V32.6178C10.7739 32.2306 10.5938 31.8663 10.2874 31.6323C9.49238 31.0236 9.03691 30.1086 9.03691 29.121V14.5502C9.03691 12.807 10.4551 11.3867 12.2004 11.3867H42.6961C44.4393 11.3867 45.8595 12.8049 45.8595 14.5502V29.121C45.8595 30.8642 44.4413 32.2845 42.6961 32.2845H17.5376V32.2824ZM74.5851 68.8772C75.5913 69.4756 76.7113 69.9165 77.9493 70.136C78.0922 70.1608 78.2412 70.1608 78.3841 70.136C79.7422 69.8938 81.0072 69.3969 82.1541 68.7137C82.1293 70.1525 82.3881 71.7177 83.3963 72.8398L78.1667 78.204L73.0593 72.9661C73.7922 72.3181 74.2725 71.4382 74.4754 70.3596C74.5623 69.9041 74.5975 69.4114 74.5851 68.8772ZM19.0821 49.82C20.9888 46.6607 25.3365 43.8057 31.3197 46.1493C34.4666 47.3832 35.688 49.4825 36.1601 51.027C36.5265 52.2257 36.5596 53.5259 36.2884 54.7432C35.9137 54.0455 35.423 53.441 34.8144 52.9565C34.804 52.9482 34.7937 52.94 34.7833 52.9317C34.775 52.9255 34.7668 52.9172 34.7585 52.911L34.7564 52.9131C34.5535 52.7557 34.3051 52.6605 34.0401 52.6501C33.5867 52.6336 33.1643 52.8634 32.9304 53.2505C30.0092 58.0888 21.8998 57.5609 19.0324 56.7866C17.4983 55.2546 17.5045 52.4348 19.0821 49.82ZM23.5105 69.6432C24.5498 70.2499 25.6946 70.6888 26.9306 70.9082C27.0735 70.9331 27.2225 70.9331 27.3654 70.9082C28.6966 70.6722 29.9057 70.1877 30.9822 69.5273C30.9615 70.9103 31.2182 72.4092 32.1768 73.4961L27.148 78.6533L22.2331 73.612C23.3386 72.5707 23.5891 71.0676 23.5105 69.6432ZM48.6834 94.5988H42.2427V90.0897C42.2427 89.4044 41.6857 88.8475 41.0005 88.8475C40.3152 88.8475 39.7583 89.4044 39.7583 90.0897V94.5988H14.3473V90.0897C14.3473 89.4044 13.7903 88.8475 13.1051 88.8475C12.4198 88.8475 11.8629 89.4044 11.8629 90.0897V94.5988H5.61055C5.80101 83.6075 6.36207 78.7837 19.8874 74.7673L26.2578 81.3012C26.4917 81.5413 26.8126 81.6759 27.148 81.6759C27.4834 81.6759 27.8043 81.5413 28.0382 81.3012L34.4086 74.7673C47.9319 78.7837 48.4929 83.6054 48.6834 94.5988ZM34.3755 60.7554C33.568 64.0182 31.0278 67.6185 27.148 68.4218C22.7465 67.5108 20.1131 63.0514 19.6928 59.4697C20.7777 59.6581 22.0716 59.7803 23.4401 59.7803C24.3179 59.7803 25.2288 59.7306 26.1336 59.6147C29.3964 59.2006 32.0029 58.0267 33.7896 56.1862C34.1891 56.9419 34.4376 57.3746 34.6177 57.6644C34.7254 58.5857 34.6508 59.6395 34.3755 60.7554ZM38.5347 50.3024C38.5244 50.2672 38.5099 50.232 38.4995 50.1968L52.0994 26.6408C52.2961 26.3013 52.6066 26.1211 53 26.1211C53.3934 26.1211 53.7039 26.3013 53.9006 26.6408L66.1237 47.8118C64.9354 49.9691 64.5089 52.5011 65.0616 54.6604C65.0968 54.795 65.1362 54.9275 65.1776 55.0579H38.7687C39.0771 53.4989 39.0088 51.8572 38.5347 50.3024ZM69.6267 51.8738C68.8213 52.764 68.31 53.9689 68.0988 55.3643C67.8152 55.0041 67.6019 54.5652 67.4673 54.0434C67.0181 52.2961 67.5522 50.0229 68.7489 48.29C69.4197 48.7145 70.1401 48.9877 70.8751 48.8387C71.962 48.6171 72.4506 47.6586 72.8833 46.8118C73.5934 45.4227 74.3905 43.8596 77.5539 43.5221L78.6491 45.0852C78.9493 45.5158 79.4876 45.7084 79.9948 45.5697L82.7069 44.8243C85.5122 46.7621 87.1125 48.673 87.4686 50.5136C87.568 51.0311 87.5701 51.5529 87.4769 52.0829C86.8786 51.4493 86.1333 50.967 85.2472 50.6771C84.8518 50.5467 84.4688 50.6005 83.7048 50.7061C82.2452 50.9069 79.2102 51.3272 75.438 50.4473C72.3512 49.7289 70.5728 50.8262 69.6267 51.8738ZM71.138 60.5484C70.1505 57.6686 70.285 54.8509 71.4693 53.5404C71.9723 52.9834 72.6783 52.7039 73.5748 52.7039C73.9723 52.7039 74.407 52.7578 74.877 52.8675C79.0963 53.8509 82.4398 53.3892 84.0485 53.1677C84.2576 53.1387 84.4894 53.1077 84.6282 53.0932C86.568 53.8385 86.715 56.0537 86.6239 57.327C86.3238 61.5752 82.8663 66.6786 78.1667 67.6475C74.5209 66.8877 72.1504 63.5027 71.138 60.5484ZM93.6796 94.6133V89.8102C93.6796 89.1249 93.1227 88.568 92.4374 88.568C91.7521 88.568 91.1952 89.1249 91.1952 89.8102V94.6133H64.9457V89.8102C64.9457 89.1249 64.3888 88.568 63.7035 88.568C63.0182 88.568 62.4613 89.1249 62.4613 89.8102V94.6133H55.944C56.1407 83.239 56.7059 78.2578 70.6991 74.1068L77.2765 80.854C77.5104 81.0941 77.8313 81.2287 78.1667 81.2287C78.5021 81.2287 78.823 81.0941 79.057 80.854L85.6343 74.1068C99.6276 78.2578 100.193 83.239 100.389 94.6133H93.6796ZM63.4468 16.9082C63.4468 16.223 64.0037 15.6661 64.689 15.6661H89.7605C90.4457 15.6661 91.0027 16.223 91.0027 16.9082C91.0027 17.5935 90.4457 18.1504 89.7605 18.1504H64.689C64.0016 18.1504 63.4468 17.5935 63.4468 16.9082ZM63.4468 21.9225C63.4468 21.2373 64.0037 20.6804 64.689 20.6804H89.7605C90.4457 20.6804 91.0027 21.2373 91.0027 21.9225C91.0027 22.6078 90.4457 23.1647 89.7605 23.1647H64.689C64.0016 23.1647 63.4468 22.6078 63.4468 21.9225ZM63.4468 26.9368C63.4468 26.2516 64.0037 25.6947 64.689 25.6947H89.7605C90.4457 25.6947 91.0027 26.2516 91.0027 26.9368C91.0027 27.6221 90.4457 28.179 89.7605 28.179H64.689C64.0016 28.179 63.4468 27.6221 63.4468 26.9368ZM42.5532 16.9082C42.5532 17.5935 41.9963 18.1504 41.311 18.1504H16.2395C15.5543 18.1504 14.9973 17.5935 14.9973 16.9082C14.9973 16.223 15.5543 15.6661 16.2395 15.6661H41.311C41.9984 15.6661 42.5532 16.223 42.5532 16.9082ZM42.5532 21.9225C42.5532 22.6078 41.9963 23.1647 41.311 23.1647H16.2395C15.5543 23.1647 14.9973 22.6078 14.9973 21.9225C14.9973 21.2373 15.5543 20.6804 16.2395 20.6804H41.311C41.9984 20.6804 42.5532 21.2373 42.5532 21.9225ZM42.5532 26.9368C42.5532 27.6221 41.9963 28.179 41.311 28.179H16.2395C15.5543 28.179 14.9973 27.6221 14.9973 26.9368C14.9973 26.2516 15.5543 25.6947 16.2395 25.6947H41.311C41.9984 25.6947 42.5532 26.2516 42.5532 26.9368ZM50.3086 44.8699C50.3873 46.3005 51.5197 47.3398 53 47.3398C54.4823 47.3398 55.6148 46.3005 55.6914 44.8699L56.18 35.9468C56.2255 35.1187 55.9295 34.3237 55.3436 33.7068C54.7349 33.065 53.8799 32.6964 52.9979 32.6964C52.116 32.6964 51.2609 33.065 50.6523 33.7068C50.0684 34.3237 49.7724 35.1187 49.8159 35.9468L50.3086 44.8699ZM52.4576 35.4127C52.5963 35.2657 52.7992 35.1788 53 35.1788C53.2008 35.1788 53.4016 35.2657 53.5424 35.4127C53.6211 35.4955 53.7101 35.6301 53.7018 35.8081L53.2132 44.7312C53.2112 44.7726 53.2029 44.7933 53.2008 44.7974C53.1884 44.814 53.1118 44.8533 53 44.8533C52.8882 44.8533 52.8137 44.814 52.8012 44.7974C52.7992 44.7933 52.7909 44.7726 52.7888 44.7312L52.3002 35.8081C52.2899 35.6322 52.381 35.4955 52.4576 35.4127ZM53 48.4681C51.3541 48.4681 50.0167 49.8055 50.0167 51.4514C50.0167 53.0973 51.3541 54.4347 53 54.4347C54.6459 54.4347 55.9833 53.0973 55.9833 51.4514C55.9833 49.8055 54.6459 48.4681 53 48.4681ZM53 51.9504C52.7246 51.9504 52.5011 51.7268 52.5011 51.4514C52.5011 51.1761 52.7246 50.9525 53 50.9525C53.2753 50.9525 53.4989 51.1761 53.4989 51.4514C53.4989 51.7268 53.2753 51.9504 53 51.9504Z" fill="#B38E57"/>
</svg>
