<svg width="114" height="114" viewBox="0 0 114 114" fill="none" xmlns="http://www.w3.org/2000/svg">
<path d="M27.498 91.7344H64.7039V88.1719H27.498V91.7344ZM64.7039 94.8516H27.498V98.9262H64.7039V94.8516ZM27.498 85.0547H64.7039V81.4032H27.498V85.0547ZM25.9395 78.286H86.8805C87.7488 78.286 88.4391 78.9762 88.4391 79.8446V100.463C88.4391 101.331 87.7488 102.021 86.8805 102.021H25.9395C25.0711 102.021 24.3809 101.331 24.3809 100.463V79.8446C24.3809 78.9985 25.0711 78.286 25.9395 78.286ZM81.893 93.2708L83.741 95.1188C84.3422 95.72 84.3422 96.7219 83.741 97.3231C83.1399 97.9243 82.1379 97.9243 81.5367 97.3231L79.6887 95.4751C75.6141 97.8575 70.4039 94.9407 70.4039 90.1536C70.4039 84.6762 77.0613 81.9153 80.9355 85.7895C82.9395 87.8157 83.2957 90.8883 81.893 93.2708ZM76.5715 87.1255C73.8551 87.1255 72.4969 90.4208 74.4117 92.3356C76.3266 94.2505 79.6219 92.8923 79.6219 90.1758C79.6219 88.4837 78.2637 87.1255 76.5715 87.1255ZM85.3219 81.4032H67.8211V98.904H85.3219V81.4032ZM63.791 70.404H88.4168V12.0235H37.718V15.2965C37.718 19.438 32.6637 21.5977 29.6801 18.6141C28.834 17.768 28.2996 16.588 28.2996 15.2965V12.0235H25.5832V42.1044H40.7461V18.436C40.7461 17.5676 41.4363 16.8774 42.3047 16.8774H71.6953C72.5637 16.8774 73.2539 17.5676 73.2539 18.436V47.8266C73.2539 48.695 72.5637 49.3852 71.6953 49.3852H53.9941L63.791 70.404ZM91.534 70.404H95.5863C96.4547 70.404 97.1449 71.0942 97.1449 71.9626V109.324C97.1449 110.193 96.4547 110.883 95.5863 110.883H18.4137C17.5453 110.883 16.8551 110.193 16.8551 109.324V43.663C16.8551 42.7946 17.5453 42.1044 18.4137 42.1044H22.466V10.4649C22.466 9.59655 23.1563 8.90631 24.0246 8.90631H28.2996V7.8153C28.2996 3.67389 33.3539 1.51413 36.3375 4.49772C37.1836 5.34381 37.718 6.52389 37.718 7.8153V8.90631H89.9754C90.8438 8.90631 91.534 9.59655 91.534 10.4649V70.404ZM43.8633 42.1044H45.934C46.4238 38.8981 48.7395 36.2485 51.8121 35.2911C48.027 30.8825 51.1887 24.0247 57 24.0247C62.8113 24.0247 65.973 30.8825 62.1879 35.2911C65.6613 36.3821 68.1551 39.6329 68.1551 43.3735V46.2458H70.1145V19.9946H43.8633V42.1044ZM49.118 42.1044C49.9418 42.1044 50.6543 42.1266 51.0773 43.1286L52.5246 46.2458H65.0379V43.3735C65.0379 40.4344 62.6332 38.0298 59.6941 38.0298H54.3059C51.8344 38.0298 49.6969 39.7665 49.118 42.1044ZM94.0277 73.5212H62.8113C62.2324 73.5212 61.6758 73.1872 61.4086 72.6305L48.6059 45.2438H19.9723V107.766H94.0277V73.5212ZM34.1332 6.70202C33.109 5.6778 31.4168 6.43483 31.4168 7.8153V8.90631H34.6008C34.6008 8.01569 34.7121 7.30319 34.1332 6.70202ZM31.4168 12.0235V15.2965C31.4168 16.677 33.109 17.434 34.1332 16.4098C34.4227 16.1204 34.6008 15.7196 34.6008 15.2965V12.0235H31.4168ZM71.8512 67.1977C70.9828 67.1977 70.2926 66.5075 70.2926 65.6391C70.2926 64.7708 70.9828 64.0805 71.8512 64.0805H80.8688C81.7371 64.0805 82.4273 64.7708 82.4273 65.6391C82.4273 66.5075 81.7371 67.1977 80.8688 67.1977H71.8512ZM71.8512 61.7872C70.9828 61.7872 70.2926 61.0969 70.2926 60.2286C70.2926 59.3602 70.9828 58.67 71.8512 58.67H80.8688C81.7371 58.67 82.4273 59.3602 82.4273 60.2286C82.4273 61.0969 81.7371 61.7872 80.8688 61.7872H71.8512ZM57 27.1419C53.7047 27.1419 52.0348 31.1497 54.3727 33.4876C56.7105 35.8255 60.7184 34.1555 60.7184 30.8602C60.7184 28.8118 59.0484 27.1419 57 27.1419Z" fill="#B38E57"/>
</svg>
