<svg width="106" height="106" viewBox="0 0 106 106" fill="none" xmlns="http://www.w3.org/2000/svg">
<path d="M21.0903 38.3443H25.6408C26.7215 38.3443 27.678 37.8184 28.2784 37.0089C30.3322 41.781 34.2368 45.6359 39.2697 47.5675V48.2383C39.2697 50.1036 40.7872 51.6212 42.6547 51.6212H48.3025C50.1264 51.6212 51.6129 50.1699 51.6792 48.3625C67.2003 48.0996 70.5086 42.8617 70.5086 38.4498V38.3443H71.5417C73.3533 38.3443 74.8252 36.8702 74.8252 35.0607V26.0259C74.8252 24.2144 73.3512 22.7424 71.5417 22.7424H70.1401C68.134 11.2977 58.1634 3.10547 46.0231 3.10547C34.4686 3.10547 24.5477 11.4737 22.5064 22.7424H21.0903C19.2788 22.7424 17.8068 24.2164 17.8068 26.0259V35.0607C17.8068 36.8723 19.2808 38.3443 21.0903 38.3443ZM29.1624 29.2349C29.1624 19.7756 36.8578 12.0803 46.317 12.0803C55.7763 12.0803 63.4696 19.7756 63.4696 29.2349C63.4696 36.7667 58.6789 43.2695 51.6481 45.5448C51.4142 43.9072 50.0043 42.6422 48.3025 42.6422H42.6547C41.164 42.6422 39.897 43.6132 39.4477 44.9548C33.2368 42.2489 29.1624 36.1166 29.1624 29.2349ZM49.2031 48.2383C49.2031 48.7352 48.7994 49.1368 48.3025 49.1368H42.6547C42.1578 49.1368 41.7541 48.7331 41.7541 48.2383V46.0272C41.7541 45.5303 42.1578 45.1266 42.6547 45.1266H48.3025C48.7994 45.1266 49.2031 45.5303 49.2031 46.0272V48.2383ZM68.0243 38.4498C68.0243 42.8762 63.07 44.785 57.3021 45.5075C58.917 44.4165 60.3745 43.0873 61.6104 41.5553C62.7326 40.1641 63.6476 38.6279 64.3474 37.0006C64.9457 37.8143 65.9063 38.3443 66.9912 38.3443H68.0243V38.4498ZM72.3429 26.0259V35.0607C72.3429 35.4934 71.9765 35.8599 71.5438 35.8599H66.9933C66.5606 35.8599 66.1941 35.4934 66.1941 35.0607V26.0259C66.1941 25.5932 66.5606 25.2268 66.9933 25.2268H71.5438C71.9765 25.2268 72.3429 25.5932 72.3429 26.0259ZM46.0231 5.58984C56.7825 5.58984 65.6372 12.7221 67.6081 22.7424H66.9912C66.2686 22.7424 65.6041 22.9784 65.0617 23.3759C62.5628 15.4011 55.1055 9.60004 46.317 9.60004C37.5286 9.60004 30.0713 15.4031 27.5724 23.3759C27.03 22.9805 26.3634 22.7424 25.6429 22.7424H25.0425C27.0466 12.8691 35.8226 5.58984 46.0231 5.58984ZM20.2911 26.0259C20.2911 25.5932 20.6576 25.2268 21.0903 25.2268H25.6408C26.0735 25.2268 26.44 25.5932 26.44 26.0259V35.0607C26.44 35.4934 26.0735 35.8599 25.6408 35.8599H21.0903C20.6576 35.8599 20.2911 35.4934 20.2911 35.0607V26.0259ZM81.5993 66.8939C79.1667 60.331 73.2829 55.4761 66.072 54.1428C59.4987 52.9275 30.9677 52.9338 25.0487 54.4803C16.1091 56.8156 9.86505 64.5875 9.86505 73.3822V96.0397C9.86505 96.725 10.422 97.2819 11.1072 97.2819H64.8215C68.134 100.739 72.7943 102.895 77.9473 102.895C87.9738 102.895 96.1308 94.7375 96.1308 84.711C96.1329 75.9329 89.8826 68.5894 81.5993 66.8939ZM41.81 60.126L39.7935 67.6475L30.593 56.2566C33.1188 56.0661 36.2843 55.9274 39.69 55.8425L41.81 60.126ZM44.0852 61.2378H48.5488L53.1698 78.4814L46.317 86.303L39.4643 78.4814L44.0852 61.2378ZM50.822 60.126L52.9627 55.797C56.4409 55.8591 59.6333 55.9854 62.1011 56.1779L52.8365 67.6475L50.822 60.126ZM50.2092 55.7618L48.729 58.7534H43.901L42.4352 55.7887C45.0086 55.7494 47.6524 55.7411 50.2092 55.7618ZM25.4462 94.7975V77.9017C25.4462 77.2164 24.8893 76.6595 24.204 76.6595C23.5188 76.6595 22.9618 77.2164 22.9618 77.9017V94.7975H12.3515V73.3822C12.3515 65.7179 17.8316 58.9356 25.6781 56.8839C26.1501 56.7618 26.8126 56.6479 27.6325 56.5444L39.0006 70.6184L36.8951 78.4793C36.7874 78.8789 36.8868 79.3075 37.1601 79.6201L45.3833 89.0089C45.6193 89.2781 45.961 89.4334 46.317 89.4334C46.6752 89.4334 47.0147 89.2781 47.2508 89.0089L55.474 79.6201C55.7473 79.3075 55.8467 78.881 55.739 78.4793L53.6335 70.6184L65.043 56.4926C65.248 56.5237 65.4426 56.5547 65.6206 56.5878C71.5127 57.6768 76.3904 61.42 78.763 66.5461C78.4938 66.5336 78.2206 66.5274 77.9493 66.5274C67.9228 66.5274 59.7658 74.6845 59.7658 84.711C59.7658 88.4396 60.8941 91.9095 62.8278 94.7975H25.4462ZM77.9493 100.41C69.2934 100.41 62.2502 93.367 62.2502 84.711C62.2502 76.055 69.2934 69.0118 77.9493 69.0118C86.6053 69.0118 93.6485 76.055 93.6485 84.711C93.6485 93.367 86.6053 100.41 77.9493 100.41ZM88.6736 77.5622C89.158 78.0466 89.158 78.8334 88.6736 79.3178L76.1316 91.8598C75.8894 92.102 75.5706 92.2241 75.2538 92.2241C74.937 92.2241 74.6182 92.102 74.376 91.8598L67.2251 84.7089C66.7407 84.2245 66.7407 83.4377 67.2251 82.9533C67.7096 82.4688 68.4963 82.4688 68.9808 82.9533L75.2538 89.2263L86.9179 77.5622C87.4024 77.0757 88.1891 77.0757 88.6736 77.5622Z" fill="#B38E57"/>
</svg>
