<svg width="91" height="91" viewBox="0 0 91 91" fill="none" xmlns="http://www.w3.org/2000/svg">
<g clip-path="url(#clip0_43_306)">
<path d="M91 72.8V1.51667C91 0.606667 90.3933 0 89.4833 0H22.75C21.84 0 21.2333 0.606667 21.2333 1.51667V89.4833C21.2333 90.3933 21.84 91 22.75 91H72.8C73.255 91 73.5583 90.8483 73.8617 90.545L90.545 73.8617C90.6967 73.71 90.6967 73.5583 90.8483 73.4067V73.255C91 73.1033 91 72.9517 91 72.8ZM24.2667 3.03333H87.9667V71.2833H72.8C71.89 71.2833 71.2833 71.89 71.2833 72.8V87.9667H24.2667V3.03333ZM74.3167 85.8433V74.3167H85.8433L80.08 80.08L74.3167 85.8433Z" fill="#B38E57"/>
<path d="M50.05 56.1168V47.0168V24.2668H60.06L69.4633 34.8834H59.15V37.9168H71.2833V56.1168H74.3166V36.4001C74.3166 35.9451 74.165 35.6418 73.8616 35.3384L61.7283 21.6884C61.5766 21.3851 61.1216 21.2334 60.6666 21.2334H50.05V10.6168C50.05 9.70676 49.4433 9.1001 48.5333 9.1001H30.3333V12.1334H47.0166V22.7501V45.5001H30.3333V48.5334H47.0166V54.6001H30.3333V57.6334H48.5333C49.4433 57.6334 50.05 57.0268 50.05 56.1168Z" fill="#B38E57"/>
<path d="M60.6667 51.5667C55.6617 51.5667 51.5667 55.6617 51.5667 60.6667C51.5667 65.6717 55.6617 69.7667 60.6667 69.7667C65.6717 69.7667 69.7667 65.6717 69.7667 60.6667C69.7667 55.6617 65.6717 51.5667 60.6667 51.5667ZM60.6667 66.7333C57.33 66.7333 54.6 64.0033 54.6 60.6667C54.6 57.33 57.33 54.6 60.6667 54.6C64.0033 54.6 66.7333 57.33 66.7333 60.6667C66.7333 64.0033 64.0033 66.7333 60.6667 66.7333Z" fill="#B38E57"/>
<path d="M63.7 42.4666H59.15V45.4999H63.7V42.4666Z" fill="#B38E57"/>
<path d="M60.6666 63.7C62.3419 63.7 63.7 62.3419 63.7 60.6666C63.7 58.9914 62.3419 57.6333 60.6666 57.6333C58.9914 57.6333 57.6333 58.9914 57.6333 60.6666C57.6333 62.3419 58.9914 63.7 60.6666 63.7Z" fill="#B38E57"/>
<path d="M81.9 9.1001H68.25V12.1334H81.9V9.1001Z" fill="#B38E57"/>
<path d="M81.9 15.1667H63.7V18.2001H81.9V15.1667Z" fill="#B38E57"/>
<path d="M39.4333 65.2166H30.3333V68.2499H39.4333V65.2166Z" fill="#B38E57"/>
<path d="M51.5666 72.8H30.3333V75.8334H51.5666V72.8Z" fill="#B38E57"/>
<path d="M51.5666 80.3833H30.3333V83.4166H51.5666V80.3833Z" fill="#B38E57"/>
<path d="M36.4 18.2H33.3667V21.2333H36.4V18.2Z" fill="#B38E57"/>
<path d="M42.4667 18.2H39.4333V21.2333H42.4667V18.2Z" fill="#B38E57"/>
<path d="M36.4 24.2666H33.3667V27.2999H36.4V24.2666Z" fill="#B38E57"/>
<path d="M42.4667 24.2666H39.4333V27.2999H42.4667V24.2666Z" fill="#B38E57"/>
<path d="M36.4 30.3333H33.3667V33.3666H36.4V30.3333Z" fill="#B38E57"/>
<path d="M42.4667 30.3333H39.4333V33.3666H42.4667V30.3333Z" fill="#B38E57"/>
<path d="M36.4 36.3999H33.3667V39.4332H36.4V36.3999Z" fill="#B38E57"/>
<path d="M42.4667 36.3999H39.4333V39.4332H42.4667V36.3999Z" fill="#B38E57"/>
<path d="M13.4983 1.06167C13.3467 0.455 12.74 0 12.1333 0C11.5267 0 10.92 0.455 10.7683 1.06167L6.37 14.2567C6.21833 14.4083 6.06667 14.7117 6.06667 15.015V15.1667V72.8V80.3833H3.03333V36.4H0V81.9C0 82.81 0.606667 83.4167 1.51667 83.4167H6.06667V89.4833C6.06667 90.3933 6.67333 91 7.58333 91H16.6833C17.5933 91 18.2 90.3933 18.2 89.4833V72.8V15.1667C18.2 14.8633 18.0483 14.4083 17.8967 14.2567L13.4983 1.06167ZM9.1 16.6833H15.1667V71.2833H9.1V16.6833ZM12.1333 6.37L14.56 13.65H9.70667L12.1333 6.37ZM15.1667 87.9667H9.1V74.3167H15.1667V87.9667Z" fill="#B38E57"/>
</g>
<defs>
<clipPath id="clip0_43_306">
<rect width="91" height="91" fill="white"/>
</clipPath>
</defs>
</svg>
