<svg width="106" height="106" viewBox="0 0 106 106" fill="none" xmlns="http://www.w3.org/2000/svg">
<path d="M63.8035 97.0959L18.9327 97.0609H18.3815C17.9316 97.0609 17.5003 96.8822 17.1822 96.5642C16.8641 96.2461 16.6855 95.8147 16.6855 95.3649C16.6855 94.9151 16.8641 94.4837 17.1822 94.1656C17.5003 93.8476 17.9316 93.6689 18.3815 93.6689H18.9305L63.8046 93.7039C64.2985 93.7039 64.9706 93.4654 65.4868 93.1113C65.9627 92.7817 66.1408 92.4679 66.1408 92.3481V89.4936H23.108C22.6582 89.4936 22.2268 89.3149 21.9087 88.9968C21.5907 88.6787 21.412 88.2474 21.412 87.7976C21.412 87.3478 21.5907 86.9164 21.9087 86.5983C22.2268 86.2802 22.6582 86.1016 23.108 86.1016H67.84C68.2898 86.1016 68.7212 86.2802 69.0393 86.5983C69.3573 86.9164 69.536 87.3478 69.536 87.7976V92.3481C69.536 95.2462 66.144 97.0959 63.8035 97.0959Z" fill="#B38E57"/>
<path d="M18.3793 97.096H18.3507C14.8273 97.0779 11.961 94.1651 11.961 90.6013V26.8752C11.961 26.4254 12.1397 25.994 12.4578 25.6759C12.7758 25.3579 13.2072 25.1792 13.657 25.1792H62.6693C63.1191 25.1792 63.5505 25.3579 63.8686 25.6759C64.1866 25.994 64.3653 26.4254 64.3653 26.8752V87.7976C64.3653 88.2475 64.1866 88.6788 63.8686 88.9969C63.5505 89.315 63.1191 89.4936 62.6693 89.4936C62.2195 89.4936 61.7881 89.315 61.4701 88.9969C61.152 88.6788 60.9733 88.2475 60.9733 87.7976V28.5712H15.353V90.5992C15.353 92.3016 16.7045 93.6934 18.3666 93.7018C18.4849 93.7019 18.6031 93.6952 18.7207 93.6817H18.7684C19.4998 93.5873 20.1717 93.2296 20.6583 92.6754C21.145 92.1213 21.4129 91.4088 21.412 90.6713V87.7976C21.412 87.3478 21.5907 86.9165 21.9087 86.5984C22.2268 86.2803 22.6582 86.1016 23.108 86.1016C23.5578 86.1016 23.9892 86.2803 24.3073 86.5984C24.6253 86.9165 24.804 87.3478 24.804 87.7976V90.6713C24.8038 92.2448 24.2261 93.7635 23.1803 94.9391C22.1346 96.1148 20.6936 96.8657 19.1309 97.0493H19.0959C18.8581 97.0786 18.6189 97.0941 18.3793 97.096Z" fill="#B38E57"/>
<path d="M55.2398 38.0043H21.0855C20.6357 38.0043 20.2043 37.8256 19.8863 37.5076C19.5682 37.1895 19.3895 36.7581 19.3895 36.3083C19.3895 35.8585 19.5682 35.4271 19.8863 35.1091C20.2043 34.791 20.6357 34.6123 21.0855 34.6123H55.2398C55.6896 34.6123 56.121 34.791 56.439 35.1091C56.7571 35.4271 56.9358 35.8585 56.9358 36.3083C56.9358 36.7581 56.7571 37.1895 56.439 37.5076C56.121 37.8256 55.6896 38.0043 55.2398 38.0043Z" fill="#B38E57"/>
<path d="M55.2398 48.5185H21.0855C20.6357 48.5185 20.2043 48.3398 19.8863 48.0217C19.5682 47.7037 19.3895 47.2723 19.3895 46.8225C19.3895 46.3727 19.5682 45.9413 19.8863 45.6232C20.2043 45.3051 20.6357 45.1265 21.0855 45.1265H55.2398C55.6896 45.1265 56.121 45.3051 56.439 45.6232C56.7571 45.9413 56.9358 46.3727 56.9358 46.8225C56.9358 47.2723 56.7571 47.7037 56.439 48.0217C56.121 48.3398 55.6896 48.5185 55.2398 48.5185Z" fill="#B38E57"/>
<path d="M55.2398 59.0326H21.0855C20.6357 59.0326 20.2043 58.8539 19.8863 58.5359C19.5682 58.2178 19.3895 57.7864 19.3895 57.3366C19.3895 56.8868 19.5682 56.4554 19.8863 56.1374C20.2043 55.8193 20.6357 55.6406 21.0855 55.6406H55.2398C55.6896 55.6406 56.121 55.8193 56.439 56.1374C56.7571 56.4554 56.9358 56.8868 56.9358 57.3366C56.9358 57.7864 56.7571 58.2178 56.439 58.5359C56.121 58.8539 55.6896 59.0326 55.2398 59.0326Z" fill="#B38E57"/>
<path d="M55.2398 69.5468H21.0855C20.6357 69.5468 20.2043 69.3681 19.8863 69.05C19.5682 68.732 19.3895 68.3006 19.3895 67.8508C19.3895 67.401 19.5682 66.9696 19.8863 66.6515C20.2043 66.3335 20.6357 66.1548 21.0855 66.1548H55.2398C55.6896 66.1548 56.121 66.3335 56.439 66.6515C56.7571 66.9696 56.9358 67.401 56.9358 67.8508C56.9358 68.3006 56.7571 68.732 56.439 69.05C56.121 69.3681 55.6896 69.5468 55.2398 69.5468Z" fill="#B38E57"/>
<path d="M55.2398 80.0595H21.0855C20.6357 80.0595 20.2043 79.8808 19.8863 79.5627C19.5682 79.2447 19.3895 78.8133 19.3895 78.3635C19.3895 77.9137 19.5682 77.4823 19.8863 77.1642C20.2043 76.8462 20.6357 76.6675 21.0855 76.6675H55.2398C55.6896 76.6675 56.121 76.8462 56.439 77.1642C56.7571 77.4823 56.9358 77.9137 56.9358 78.3635C56.9358 78.8133 56.7571 79.2447 56.439 79.5627C56.121 79.8808 55.6896 80.0595 55.2398 80.0595Z" fill="#B38E57"/>
<path d="M88.3097 80.8209L62.6672 80.8018C62.2174 80.8018 61.786 80.6231 61.4679 80.3051C61.1499 79.987 60.9712 79.5556 60.9712 79.1058C60.9712 78.656 61.1499 78.2246 61.4679 77.9066C61.786 77.5885 62.2174 77.4098 62.6672 77.4098L88.3075 77.4289C88.8015 77.4289 89.4735 77.1915 89.9898 76.8374C90.4657 76.5067 90.6438 76.194 90.6438 76.0732V73.2196H62.6693C62.2195 73.2196 61.7881 73.041 61.4701 72.7229C61.152 72.4048 60.9733 71.9734 60.9733 71.5236C60.9733 71.0738 61.152 70.6424 61.4701 70.3244C61.7881 70.0063 62.2195 69.8276 62.6693 69.8276H92.343C92.7928 69.8276 93.2242 70.0063 93.5422 70.3244C93.8603 70.6424 94.039 71.0738 94.039 71.5236V76.0732C94.039 78.9701 90.6459 80.8209 88.3097 80.8209Z" fill="#B38E57"/>
<path d="M87.1755 73.2193C86.7257 73.2193 86.2943 73.0406 85.9762 72.7226C85.6581 72.4045 85.4795 71.9731 85.4795 71.5233V12.2958H39.856V26.875C39.856 27.3249 39.6773 27.7562 39.3593 28.0743C39.0412 28.3924 38.6098 28.571 38.16 28.571C37.7102 28.571 37.2788 28.3924 36.9607 28.0743C36.6427 27.7562 36.464 27.3249 36.464 26.875V10.5998C36.464 10.15 36.6427 9.71862 36.9607 9.40056C37.2788 9.08249 37.7102 8.90381 38.16 8.90381H87.1755C87.6253 8.90381 88.0566 9.08249 88.3747 9.40056C88.6928 9.71862 88.8715 10.15 88.8715 10.5998V71.5233C88.8715 71.9731 88.6928 72.4045 88.3747 72.7226C88.0566 73.0406 87.6253 73.2193 87.1755 73.2193Z" fill="#B38E57"/>
<path d="M79.7459 21.7299H45.5917C45.1418 21.7299 44.7105 21.5512 44.3924 21.2331C44.0743 20.9151 43.8957 20.4837 43.8957 20.0339C43.8957 19.5841 44.0743 19.1527 44.3924 18.8346C44.7105 18.5166 45.1418 18.3379 45.5917 18.3379H79.7459C80.1957 18.3379 80.6271 18.5166 80.9452 18.8346C81.2632 19.1527 81.4419 19.5841 81.4419 20.0339C81.4419 20.4837 81.2632 20.9151 80.9452 21.2331C80.6271 21.5512 80.1957 21.7299 79.7459 21.7299Z" fill="#B38E57"/>
<path d="M79.7459 32.2441H62.6693C62.2195 32.2441 61.7881 32.0654 61.4701 31.7473C61.152 31.4292 60.9733 30.9979 60.9733 30.5481C60.9733 30.0982 61.152 29.6669 61.4701 29.3488C61.7881 29.0307 62.2195 28.8521 62.6693 28.8521H79.7459C80.1957 28.8521 80.6271 29.0307 80.9452 29.3488C81.2632 29.6669 81.4419 30.0982 81.4419 30.5481C81.4419 30.9979 81.2632 31.4292 80.9452 31.7473C80.6271 32.0654 80.1957 32.2441 79.7459 32.2441Z" fill="#B38E57"/>
<path d="M79.7459 42.7572H62.6693C62.2195 42.7572 61.7881 42.5786 61.4701 42.2605C61.152 41.9424 60.9733 41.511 60.9733 41.0612C60.9733 40.6114 61.152 40.18 61.4701 39.862C61.7881 39.5439 62.2195 39.3652 62.6693 39.3652H79.7459C80.1957 39.3652 80.6271 39.5439 80.9452 39.862C81.2632 40.18 81.4419 40.6114 81.4419 41.0612C81.4419 41.511 81.2632 41.9424 80.9452 42.2605C80.6271 42.5786 80.1957 42.7572 79.7459 42.7572Z" fill="#B38E57"/>
<path d="M79.7459 53.2714H62.6693C62.2195 53.2714 61.7881 53.0927 61.4701 52.7746C61.152 52.4566 60.9733 52.0252 60.9733 51.5754C60.9733 51.1256 61.152 50.6942 61.4701 50.3761C61.7881 50.0581 62.2195 49.8794 62.6693 49.8794H79.7459C80.1957 49.8794 80.6271 50.0581 80.9452 50.3761C81.2632 50.6942 81.4419 51.1256 81.4419 51.5754C81.4419 52.0252 81.2632 52.4566 80.9452 52.7746C80.6271 53.0927 80.1957 53.2714 79.7459 53.2714Z" fill="#B38E57"/>
<path d="M79.7459 63.7856H62.6693C62.2195 63.7856 61.7881 63.6069 61.4701 63.2888C61.152 62.9707 60.9733 62.5394 60.9733 62.0896C60.9733 61.6397 61.152 61.2084 61.4701 60.8903C61.7881 60.5722 62.2195 60.3936 62.6693 60.3936H79.7459C80.1957 60.3936 80.6271 60.5722 80.9452 60.8903C81.2632 61.2084 81.4419 61.6397 81.4419 62.0896C81.4419 62.5394 81.2632 62.9707 80.9452 63.2888C80.6271 63.6069 80.1957 63.7856 79.7459 63.7856Z" fill="#B38E57"/>
</svg>
