<svg width="136" height="136" viewBox="0 0 136 136" fill="none" xmlns="http://www.w3.org/2000/svg">
<g clip-path="url(#clip0_43_502)">
<path d="M66.9311 53.2599C58.1376 53.2599 50.9839 46.0773 50.9839 37.2496C50.9839 28.4218 58.1365 21.2393 66.9311 21.2393C75.7246 21.2393 82.8782 28.4208 82.8782 37.2496C82.8782 46.0784 75.7235 53.2599 66.9311 53.2599ZM66.9311 23.4328C59.3469 23.4328 53.1775 29.63 53.1775 37.2496C53.1775 44.8692 59.3469 51.0664 66.9311 51.0664C74.5153 51.0664 80.6847 44.8692 80.6847 37.2496C80.6836 29.63 74.5143 23.4328 66.9311 23.4328Z" fill="#B38E57"/>
<path d="M66.9311 46.7553C61.7075 46.7553 57.4596 42.4903 57.4596 37.2485C57.4596 32.0067 61.7085 27.7417 66.9311 27.7417C72.1525 27.7417 76.4014 32.0067 76.4014 37.2485C76.4014 42.4903 72.1536 46.7553 66.9311 46.7553ZM66.9311 29.9352C62.9178 29.9352 59.6531 33.2159 59.6531 37.2485C59.6531 41.2811 62.9188 44.5618 66.9311 44.5618C70.9422 44.5618 74.2079 41.2811 74.2079 37.2485C74.2079 33.2159 70.9433 29.9352 66.9311 29.9352Z" fill="#B38E57"/>
<path d="M66.9311 29.9354C66.3248 29.9354 65.8343 29.4437 65.8343 28.8386V22.3351C65.8343 21.7288 66.3248 21.2383 66.9311 21.2383C67.5362 21.2383 68.0278 21.7288 68.0278 22.3351V28.8386C68.0278 29.4448 67.5362 29.9354 66.9311 29.9354Z" fill="#B38E57"/>
<path d="M59.6725 34.1402C59.4872 34.1402 59.2986 34.0931 59.1251 33.9935L53.486 30.7417C52.9611 30.4386 52.7812 29.7681 53.0843 29.2433C53.3853 28.7174 54.0568 28.5364 54.5817 28.8405L60.2208 32.0923C60.7457 32.3954 60.9256 33.0659 60.6236 33.5907C60.4201 33.9442 60.0505 34.1402 59.6725 34.1402Z" fill="#B38E57"/>
<path d="M54.0354 45.8022C53.6562 45.8022 53.2878 45.6062 53.0853 45.2538C52.7822 44.729 52.9622 44.0585 53.487 43.7554L59.1262 40.5036C59.6499 40.2005 60.3204 40.3805 60.6246 40.9064C60.9266 41.4323 60.7467 42.1017 60.2219 42.4048L54.5827 45.6566C54.4103 45.7551 54.2207 45.8022 54.0354 45.8022Z" fill="#B38E57"/>
<path d="M66.9311 53.3159C66.3248 53.3159 65.8343 52.8242 65.8343 52.2191V45.6588C65.8343 45.0536 66.3248 44.562 66.9311 44.562C67.5362 44.562 68.0278 45.0536 68.0278 45.6588V52.2191C68.0278 52.8253 67.5362 53.3159 66.9311 53.3159Z" fill="#B38E57"/>
<path d="M79.8256 45.8021C79.6404 45.8021 79.4518 45.755 79.2783 45.6553L73.6392 42.4036C73.1143 42.1005 72.9344 41.431 73.2375 40.9052C73.5385 40.3803 74.2111 40.1993 74.7349 40.5024L80.374 43.7542C80.8989 44.0573 81.0788 44.7278 80.7768 45.2526C80.5733 45.6061 80.2037 45.8021 79.8256 45.8021Z" fill="#B38E57"/>
<path d="M74.1886 34.1401C73.8095 34.1401 73.441 33.9441 73.2386 33.5917C72.9355 33.0669 73.1154 32.3964 73.6403 32.0933L79.2794 28.8415C79.8021 28.5373 80.4737 28.7183 80.7779 29.2442C81.0799 29.7691 80.9 30.4396 80.3751 30.7427L74.736 33.9944C74.5635 34.093 74.3761 34.1401 74.1886 34.1401Z" fill="#B38E57"/>
<path d="M66.9311 41.7105C66.3248 41.7105 65.8343 41.2189 65.8343 40.6138V37.754C65.8343 37.1488 66.3248 36.6572 66.9311 36.6572C67.5362 36.6572 68.0278 37.1488 68.0278 37.754V40.6138C68.0278 41.2189 67.5362 41.7105 66.9311 41.7105Z" fill="#B38E57"/>
<path d="M66.9311 38.8753C65.7025 38.8753 64.6979 37.8663 64.6979 36.6325C64.6979 35.3986 65.7025 34.3896 66.9311 34.3896C68.1585 34.3896 69.1632 35.3986 69.1632 36.6325C69.1632 37.922 68.1585 38.8753 66.9311 38.8753Z" fill="#B38E57"/>
<path d="M57.9984 26.4597C57.3932 26.4597 56.9016 25.9681 56.9016 25.3629V14.6544C56.9016 9.59786 61.3005 5.48389 66.7072 5.48389C72.1129 5.48389 76.5118 9.59786 76.5118 14.6544V25.0266C76.5118 25.6318 76.0213 26.1234 75.415 26.1234C74.8099 26.1234 74.3183 25.6318 74.3183 25.0266V14.6544C74.3183 10.806 70.9048 7.67744 66.7072 7.67744C62.5097 7.67744 59.0952 10.8071 59.0952 14.6544V25.3629C59.0952 25.9681 58.6035 26.4597 57.9984 26.4597Z" fill="#B38E57"/>
<path d="M133.613 60.7488H78.5382C78.0445 60.7488 77.6107 60.4189 77.48 59.9434C77.3504 59.4668 77.5528 58.9612 77.9781 58.7095L104.384 43.0269C105.416 42.3243 106.784 42.3339 107.804 43.0537L134.172 58.7084C134.596 58.9601 134.8 59.4646 134.67 59.9423C134.539 60.4189 134.106 60.7488 133.613 60.7488ZM82.5322 58.5553H129.616L106.612 44.8938C106.261 44.6507 105.887 44.6507 105.609 44.8477C105.586 44.8649 105.562 44.8799 105.538 44.8938L82.5322 58.5553Z" fill="#B38E57"/>
<path d="M133.613 66.1117H78.5382C77.932 66.1117 77.4415 65.62 77.4415 65.0149V59.651C77.4415 59.0458 77.932 58.5542 78.5382 58.5542H133.613C134.218 58.5542 134.709 59.0458 134.709 59.651V65.0149C134.709 65.6211 134.218 66.1117 133.613 66.1117ZM79.635 63.9181H132.516V60.7477H79.635V63.9181Z" fill="#B38E57"/>
<path d="M134.903 104.789H77.2466C76.6414 104.789 76.1498 104.297 76.1498 103.692V97.8087C76.1498 97.2035 76.6414 96.7119 77.2466 96.7119H134.903C135.508 96.7119 136 97.2035 136 97.8087V103.692C136 104.297 135.508 104.789 134.903 104.789ZM78.3433 102.595H133.806V98.9055H78.3433V102.595Z" fill="#B38E57"/>
<path d="M93.1894 98.9058H83.3066C82.7015 98.9058 82.2098 98.4153 82.2098 97.8091V92.5587C82.2098 91.9535 82.7015 91.4619 83.3066 91.4619H93.1894C93.7945 91.4619 94.2861 91.9535 94.2861 92.5587V97.8091C94.2861 98.4153 93.7945 98.9058 93.1894 98.9058ZM84.4034 96.7123H92.0926V93.6555H84.4034V96.7123Z" fill="#B38E57"/>
<path d="M93.2247 71.0684H83.2713C82.6661 71.0684 82.1745 70.5768 82.1745 69.9716V65.0147C82.1745 64.4085 82.6661 63.918 83.2713 63.918H93.2247C93.8299 63.918 94.3215 64.4085 94.3215 65.0147V69.9716C94.3215 70.5768 93.8299 71.0684 93.2247 71.0684ZM84.368 68.8749H92.1279V66.1115H84.368V68.8749Z" fill="#B38E57"/>
<path d="M90.7731 93.6563H85.723C85.1178 93.6563 84.6262 93.1658 84.6262 92.5595V69.9718C84.6262 69.3666 85.1178 68.875 85.723 68.875H90.7731C91.3793 68.875 91.8699 69.3666 91.8699 69.9718V92.5595C91.8699 93.1658 91.3793 93.6563 90.7731 93.6563ZM86.8198 91.4628H89.6763V71.0685H86.8198V91.4628Z" fill="#B38E57"/>
<path d="M110.949 71.0684H100.995C100.39 71.0684 99.8986 70.5768 99.8986 69.9716V65.0147C99.8986 64.4085 100.39 63.918 100.995 63.918H110.949C111.554 63.918 112.046 64.4085 112.046 65.0147V69.9716C112.046 70.5768 111.554 71.0684 110.949 71.0684ZM102.092 68.8749H109.852V66.1115H102.092V68.8749Z" fill="#B38E57"/>
<path d="M108.497 93.6563H103.447C102.841 93.6563 102.35 93.1658 102.35 92.5595V69.9718C102.35 69.3666 102.841 68.875 103.447 68.875H108.497C109.102 68.875 109.594 69.3666 109.594 69.9718V92.5595C109.594 93.1658 109.102 93.6563 108.497 93.6563ZM104.544 91.4628H107.4V71.0685H104.544V91.4628Z" fill="#B38E57"/>
<path d="M110.913 98.9058H101.031C100.426 98.9058 99.9339 98.4153 99.9339 97.8091V92.5587C99.9339 91.9535 100.426 91.4619 101.031 91.4619H110.913C111.519 91.4619 112.01 91.9535 112.01 92.5587V97.8091C112.01 98.4153 111.519 98.9058 110.913 98.9058ZM102.127 96.7123H109.817V93.6555H102.127V96.7123Z" fill="#B38E57"/>
<path d="M128.673 71.0684H118.719C118.114 71.0684 117.623 70.5768 117.623 69.9716V65.0147C117.623 64.4085 118.114 63.918 118.719 63.918H128.673C129.278 63.918 129.77 64.4085 129.77 65.0147V69.9716C129.77 70.5768 129.278 71.0684 128.673 71.0684ZM119.816 68.8749H127.576V66.1115H119.816V68.8749Z" fill="#B38E57"/>
<path d="M126.221 93.6563H121.17C120.565 93.6563 120.073 93.1658 120.073 92.5595V69.9718C120.073 69.3666 120.565 68.875 121.17 68.875H126.221C126.826 68.875 127.318 69.3666 127.318 69.9718V92.5595C127.318 93.1658 126.826 93.6563 126.221 93.6563ZM122.267 91.4628H125.124V71.0685H122.267V91.4628Z" fill="#B38E57"/>
<path d="M128.637 98.9058H118.755C118.149 98.9058 117.658 98.4153 117.658 97.8091V92.5587C117.658 91.9535 118.149 91.4619 118.755 91.4619H128.637C129.243 91.4619 129.734 91.9535 129.734 92.5587V97.8091C129.734 98.4153 129.243 98.9058 128.637 98.9058ZM119.852 96.7123H127.541V93.6555H119.852V96.7123Z" fill="#B38E57"/>
<path d="M57.4618 60.7491H2.38743C1.89367 60.7491 1.46095 60.4192 1.33028 59.9436C1.19961 59.467 1.40312 58.9615 1.82833 58.7098L28.2687 43.0079C29.2188 42.3342 30.5855 42.3256 31.6158 43.0283L58.023 58.7098C58.4472 58.9615 58.6507 59.4659 58.5211 59.9436C58.3893 60.4192 57.9555 60.7491 57.4618 60.7491ZM6.38251 58.5555H53.4678L30.4623 44.8941C30.4376 44.8801 30.4141 44.8651 30.3905 44.848C30.112 44.6509 29.7382 44.652 29.4608 44.848L6.38251 58.5555Z" fill="#B38E57"/>
<path d="M57.4618 66.1117H2.38742C1.78227 66.1117 1.29065 65.62 1.29065 65.0149V59.651C1.29065 59.0458 1.78227 58.5542 2.38742 58.5542H57.4618C58.068 58.5542 58.5586 59.0458 58.5586 59.651V65.0149C58.5586 65.6211 58.068 66.1117 57.4618 66.1117ZM3.4842 63.9181H56.365V60.7477H3.4842V63.9181Z" fill="#B38E57"/>
<path d="M58.7535 104.789H1.09677C0.491621 104.789 0 104.297 0 103.692V97.8087C0 97.2035 0.491621 96.7119 1.09677 96.7119H58.7535C59.3586 96.7119 59.8502 97.2035 59.8502 97.8087V103.692C59.8502 104.297 59.3597 104.789 58.7535 104.789ZM2.19355 102.595H57.6567V98.9055H2.19355V102.595Z" fill="#B38E57"/>
<path d="M17.0396 98.9058H7.15689C6.55067 98.9058 6.06012 98.4153 6.06012 97.8091V92.5587C6.06012 91.9535 6.55067 91.4619 7.15689 91.4619H17.0396C17.6448 91.4619 18.1364 91.9535 18.1364 92.5587V97.8091C18.1364 98.4153 17.6448 98.9058 17.0396 98.9058ZM8.25367 96.7123H15.9429V93.6555H8.25367V96.7123Z" fill="#B38E57"/>
<path d="M17.075 71.0684H7.12155C6.5164 71.0684 6.02478 70.5768 6.02478 69.9716V65.0147C6.02478 64.4085 6.5164 63.918 7.12155 63.918H17.075C17.6802 63.918 18.1718 64.4085 18.1718 65.0147V69.9716C18.1718 70.5768 17.6802 71.0684 17.075 71.0684ZM8.21833 68.8749H15.9782V66.1115H8.21833V68.8749Z" fill="#B38E57"/>
<path d="M14.6233 93.6563H9.57212C8.96696 93.6563 8.47534 93.1658 8.47534 92.5595V69.9718C8.47534 69.3666 8.96696 68.875 9.57212 68.875H14.6233C15.2284 68.875 15.72 69.3666 15.72 69.9718V92.5595C15.72 93.1658 15.2284 93.6563 14.6233 93.6563ZM10.6689 91.4628H13.5265V71.0685H10.6689V91.4628Z" fill="#B38E57"/>
<path d="M34.7979 71.0684H24.8456C24.2393 71.0684 23.7488 70.5768 23.7488 69.9716V65.0147C23.7488 64.4085 24.2393 63.918 24.8456 63.918H34.7979C35.4041 63.918 35.8947 64.4085 35.8947 65.0147V69.9716C35.8947 70.5768 35.4041 71.0684 34.7979 71.0684ZM25.9423 68.8749H33.7011V66.1115H25.9423V68.8749Z" fill="#B38E57"/>
<path d="M32.3473 93.6563H27.2962C26.691 93.6563 26.1994 93.1658 26.1994 92.5595V69.9718C26.1994 69.3666 26.691 68.875 27.2962 68.875H32.3473C32.9525 68.875 33.4441 69.3666 33.4441 69.9718V92.5595C33.4441 93.1658 32.9525 93.6563 32.3473 93.6563ZM28.393 91.4628H31.2506V71.0685H28.393V91.4628Z" fill="#B38E57"/>
<path d="M34.7637 98.9058H24.8799C24.2747 98.9058 23.7831 98.4153 23.7831 97.8091V92.5587C23.7831 91.9535 24.2747 91.4619 24.8799 91.4619H34.7637C35.3688 91.4619 35.8605 91.9535 35.8605 92.5587V97.8091C35.8605 98.4153 35.3699 98.9058 34.7637 98.9058ZM25.9766 96.7123H33.6669V93.6555H25.9766V96.7123Z" fill="#B38E57"/>
<path d="M52.522 71.0684H42.5696C41.9634 71.0684 41.4728 70.5768 41.4728 69.9716V65.0147C41.4728 64.4085 41.9634 63.918 42.5696 63.918H52.522C53.1282 63.918 53.6188 64.4085 53.6188 65.0147V69.9716C53.6188 70.5768 53.1282 71.0684 52.522 71.0684ZM43.6664 68.8749H51.4252V66.1115H43.6664V68.8749Z" fill="#B38E57"/>
<path d="M50.0714 93.6563H45.0202C44.4151 93.6563 43.9235 93.1658 43.9235 92.5595V69.9718C43.9235 69.3666 44.4151 68.875 45.0202 68.875H50.0714C50.6765 68.875 51.1682 69.3666 51.1682 69.9718V92.5595C51.1682 93.1658 50.6776 93.6563 50.0714 93.6563ZM46.117 91.4628H48.9746V71.0685H46.117V91.4628Z" fill="#B38E57"/>
<path d="M52.4877 98.9058H42.6039C41.9988 98.9058 41.5071 98.4153 41.5071 97.8091V92.5587C41.5071 91.9535 41.9988 91.4619 42.6039 91.4619H52.4877C53.0929 91.4619 53.5845 91.9535 53.5845 92.5587V97.8091C53.5845 98.4153 53.0929 98.9058 52.4877 98.9058ZM43.7007 96.7123H51.391V93.6555H43.7007V96.7123Z" fill="#B38E57"/>
<path d="M84.6712 125.554H53.3756C52.7705 125.554 52.2789 125.063 52.2789 124.457C52.2789 123.852 52.7705 123.36 53.3756 123.36H84.6712C85.2764 123.36 85.768 123.852 85.768 124.457C85.768 125.063 85.2764 125.554 84.6712 125.554Z" fill="#B38E57"/>
<path d="M59.4015 130.516C59.2055 130.516 59.0052 130.464 58.8263 130.352L50.789 125.391C50.472 125.195 50.276 124.851 50.2685 124.479C50.262 124.106 50.4441 123.755 50.7547 123.548L58.791 118.152C59.2933 117.812 59.9756 117.948 60.313 118.452C60.6503 118.954 60.5165 119.636 60.0131 119.973L53.3906 124.42L59.9777 128.487C60.494 128.806 60.6536 129.481 60.3354 129.996C60.1287 130.332 59.7699 130.516 59.4015 130.516Z" fill="#B38E57"/>
<path d="M82.6618 114.763H51.3652C50.7601 114.763 50.2684 114.272 50.2684 113.666C50.2684 113.061 50.7601 112.569 51.3652 112.569H82.6608C83.2659 112.569 83.7575 113.061 83.7575 113.666C83.7575 114.272 83.267 114.763 82.6618 114.763Z" fill="#B38E57"/>
<path d="M76.635 119.726C76.2676 119.726 75.9077 119.542 75.701 119.204C75.3829 118.689 75.5425 118.013 76.0577 117.695L82.6447 113.627L76.0234 109.181C75.52 108.844 75.3861 108.163 75.7235 107.661C76.0609 107.158 76.741 107.022 77.2444 107.361L85.2817 112.756C85.5923 112.963 85.7744 113.315 85.768 113.687C85.7605 114.06 85.5634 114.403 85.2464 114.6L77.2101 119.562C77.0313 119.674 76.831 119.726 76.635 119.726Z" fill="#B38E57"/>
</g>
<defs>
<clipPath id="clip0_43_502">
<rect width="136" height="136" fill="white"/>
</clipPath>
</defs>
</svg>
