<svg width="106" height="106" viewBox="0 0 106 106" fill="none" xmlns="http://www.w3.org/2000/svg">
<path d="M103.864 80.4217L103.669 80.2265C101.364 77.9216 97.9488 77.2831 95.0275 78.4572V45.5469H102.928C103.765 45.5469 104.52 45.0421 104.841 44.2682C105.161 43.4944 104.983 42.6035 104.391 42.0118L62.9311 0.605552C62.1228 -0.201663 60.8132 -0.201456 60.0049 0.605759L48.6227 11.9767C47.8139 12.7848 47.813 14.0957 48.6213 14.9046C49.4295 15.7137 50.7405 15.7143 51.5491 14.906L61.4684 4.99669L97.9247 41.4062H90.594L62.9309 13.7787C62.1226 12.9715 60.8132 12.9715 60.0049 13.7787L32.342 41.4062H25.011L40.0148 26.4219C40.8239 25.6139 40.8247 24.3032 40.0167 23.4941C39.2086 22.685 37.8979 22.6842 37.0888 23.4922L18.5454 42.0118C17.9527 42.6037 17.7751 43.4944 18.0954 44.2682C18.4156 45.0421 19.1707 45.5469 20.0083 45.5469H27.9492V63.1725H24.8955V62.1698C24.8955 58.4263 21.8501 55.3808 18.1065 55.3808H2.07031C0.926879 55.3808 0 56.3079 0 57.4512V103.93C0 105.073 0.926879 106 2.07031 106H18.1065C21.8499 106 24.8955 102.955 24.8955 99.211V98.3566L30.3353 101.651C35.0328 104.496 40.4185 106 45.9102 106H75.9751C81.8477 106 87.5951 103.965 92.1587 100.268L103.297 91.2465C104.9 89.9478 105.882 88.021 105.99 85.9602C106.098 83.8994 105.323 81.8809 103.864 80.4217ZM20.7549 99.211C20.7549 100.671 19.5669 101.859 18.1065 101.859H4.14062V59.5215H18.1065C19.5667 59.5215 20.7549 60.7094 20.7549 62.1698V99.211ZM32.0898 45.5469H33.1987C33.7473 45.5469 34.2734 45.3291 34.6616 44.9415L61.468 18.1697L88.2742 44.9415C88.6624 45.3293 89.1886 45.5469 89.7371 45.5469H90.8867V81.0014C90.8867 81.077 90.8913 81.1513 90.8991 81.2246L86.5248 84.5143C86.2418 83.1524 85.5971 81.8782 84.6238 80.9049C83.4506 79.7319 81.891 79.0859 80.2321 79.0859H75.1321V49.4805C75.1321 48.337 74.2052 47.4101 73.0617 47.4101H49.8742C48.7308 47.4101 47.8039 48.337 47.8039 49.4805V65.2912C45.7692 63.9139 43.3724 63.1725 40.8609 63.1725H32.0898V45.5469ZM70.9914 51.5508V79.0859H63.583C62.4771 79.0859 61.4374 78.6553 60.6587 77.8765L51.929 69.106C51.9383 69.0261 51.9446 68.9453 51.9446 68.8629V51.5508H70.9914ZM101.855 85.7436C101.808 86.6475 101.394 87.4591 100.691 88.0289L89.5526 97.0504C85.724 100.152 80.902 101.859 75.9751 101.859H45.9102C41.1748 101.859 36.5307 100.563 32.4803 98.1094L24.8955 93.5156V67.3131H40.8609C43.0728 67.3131 45.1525 68.1746 46.7133 69.7354L57.7274 80.801C59.2917 82.3651 61.3711 83.2266 63.583 83.2266H80.2321C80.785 83.2266 81.3051 83.4419 81.696 83.833C82.6452 84.7822 82.722 86.3459 82.3121 87.3351C82.1898 87.6305 82.0457 87.8415 81.8966 87.9949L81.7908 88.0744C81.7974 88.0756 81.8032 88.0767 81.8099 88.0779C81.4504 88.3918 81.0803 88.3936 80.9235 88.3936H56.1055C54.6747 88.3936 53.2847 87.9814 52.0855 87.2013L45.4417 82.8802L45.4175 82.8645C44.46 82.2398 43.1772 82.5088 42.5522 83.4665C41.9271 84.424 42.1967 85.7068 43.1542 86.3318L49.8279 90.6724C51.7005 91.8904 53.8712 92.5343 56.1055 92.5343H80.9233C82.3127 92.5343 83.5651 92.0496 84.5501 91.1801L95.8474 82.6841C97.3788 81.6492 99.4311 81.8442 100.741 83.1543L100.936 83.3495C101.576 83.9895 101.902 84.8397 101.855 85.7436Z" fill="#B38E57"/>
</svg>
