<svg width="96" height="96" viewBox="0 0 96 96" fill="none" xmlns="http://www.w3.org/2000/svg">
<path fill-rule="evenodd" clip-rule="evenodd" d="M48.0108 13.8063C41.8427 13.8063 36.8177 18.8313 36.8177 24.9994C36.8177 31.1675 41.8427 36.1925 48.0108 36.1925C54.1788 36.1925 59.2039 31.1675 59.2039 24.9994C59.1823 18.8098 54.1788 13.8063 48.0108 13.8063ZM48.0108 38.2413C40.6997 38.2413 34.7473 32.2889 34.7473 24.9778C34.7473 17.6667 40.6997 11.7144 48.0108 11.7144C55.3219 11.7144 61.2743 17.6667 61.2743 24.9778C61.2527 32.2889 55.3003 38.2413 48.0108 38.2413Z" fill="#B38E57"/>
<path fill-rule="evenodd" clip-rule="evenodd" d="M48.0108 13.8063C46.4148 13.8063 44.1719 18.0549 44.1719 24.9994C44.1719 31.9223 46.4148 36.1925 48.0108 36.1925C49.6067 36.1925 51.8496 31.9439 51.8496 24.9994C51.8496 18.0549 49.6067 13.8063 48.0108 13.8063ZM48.0108 38.2413C44.1719 38.2413 42.1015 31.4047 42.1015 24.9778C42.1015 18.551 44.1719 11.7144 48.0108 11.7144C51.8496 11.7144 53.92 18.551 53.92 24.9778C53.92 31.4047 51.8496 38.2413 48.0108 38.2413Z" fill="#B38E57"/>
<path fill-rule="evenodd" clip-rule="evenodd" d="M60.2175 26.0128H35.7825C35.2002 26.0128 34.7473 25.5383 34.7473 24.9776C34.7473 24.3953 35.2002 23.9424 35.7825 23.9424H60.2175C60.7998 23.9424 61.2527 24.4168 61.2527 24.9776C61.2527 25.5599 60.7998 26.0128 60.2175 26.0128Z" fill="#B38E57"/>
<path fill-rule="evenodd" clip-rule="evenodd" d="M58.5784 19.9098H37.4216C36.8393 19.9098 36.3864 19.4569 36.3864 18.8746C36.3864 18.2923 36.8393 17.8394 37.4216 17.8394H58.6C59.1823 17.8394 59.6352 18.3138 59.6352 18.8746C59.6136 19.4353 59.1607 19.9098 58.5784 19.9098Z" fill="#B38E57"/>
<path fill-rule="evenodd" clip-rule="evenodd" d="M58.5784 32.1163H37.4216C36.8393 32.1163 36.3864 31.6634 36.3864 31.0811C36.3864 30.5204 36.8393 30.0459 37.4216 30.0459H58.6C59.1823 30.0459 59.6352 30.5204 59.6352 31.0811C59.6136 31.6634 59.1607 32.1163 58.5784 32.1163Z" fill="#B38E57"/>
<path fill-rule="evenodd" clip-rule="evenodd" d="M22.4543 7.72449H73.5457V2.65633H22.4543V7.72449ZM74.5809 9.79489H21.4191C20.8368 9.79489 20.3839 9.34199 20.3839 8.75969V1.62114C20.3839 1.0604 20.8368 0.585938 21.4191 0.585938H74.5809C75.1632 0.585938 75.6161 1.0604 75.6161 1.62114V8.75969C75.6161 9.32042 75.1632 9.79489 74.5809 9.79489Z" fill="#B38E57"/>
<path fill-rule="evenodd" clip-rule="evenodd" d="M69.3402 95.4145H26.6814C26.0991 95.4145 25.6462 94.9616 25.6462 94.3793V8.75981C25.6462 8.17751 26.0991 7.72461 26.6814 7.72461C27.2637 7.72461 27.7166 8.19908 27.7166 8.75981V93.3441H68.305V8.75981C68.305 8.17751 68.7579 7.72461 69.3402 7.72461C69.9225 7.72461 70.3754 8.19908 70.3754 8.75981V94.3793C70.3754 94.9616 69.9009 95.4145 69.3402 95.4145Z" fill="#B38E57"/>
<path fill-rule="evenodd" clip-rule="evenodd" d="M26.6814 95.4145H5.15788C4.57558 95.4145 4.12268 94.9616 4.12268 94.3793V27.0699C4.12268 26.5091 4.57558 26.0347 5.15788 26.0347C5.74018 26.0347 6.19308 26.4876 6.19308 27.0699V93.3441H26.6598C27.2421 93.3441 27.695 93.797 27.695 94.3793C27.7166 94.9616 27.2421 95.4145 26.6814 95.4145Z" fill="#B38E57"/>
<path fill-rule="evenodd" clip-rule="evenodd" d="M26.6814 28.1049H1.62095C1.03865 28.1049 0.585754 27.652 0.585754 27.0697V19.9312C0.585754 19.3489 1.03865 18.896 1.62095 18.896H26.6598C27.2421 18.896 27.695 19.3705 27.695 19.9312C27.695 20.5135 27.2421 20.9664 26.6598 20.9664H2.65615V26.0345H26.6598C27.2421 26.0345 27.695 26.509 27.695 27.0697C27.7166 27.652 27.2421 28.1049 26.6814 28.1049Z" fill="#B38E57"/>
<path fill-rule="evenodd" clip-rule="evenodd" d="M90.8421 95.4145H69.3402C68.7795 95.4145 68.305 94.9616 68.305 94.3793C68.305 93.797 68.7579 93.3441 69.3402 93.3441H89.8069V27.0699C89.8069 26.5091 90.2598 26.0347 90.8421 26.0347C91.4244 26.0347 91.8773 26.4876 91.8773 27.0699V94.3793C91.8773 94.9616 91.4244 95.4145 90.8421 95.4145Z" fill="#B38E57"/>
<path fill-rule="evenodd" clip-rule="evenodd" d="M94.379 28.1049H69.3402C68.7795 28.1049 68.305 27.652 68.305 27.0697C68.305 26.4874 68.7579 26.0345 69.3402 26.0345H93.3438V20.9664H69.3402C68.7795 20.9664 68.305 20.5135 68.305 19.9312C68.305 19.3489 68.7579 18.896 69.3402 18.896H94.379C94.9613 18.896 95.4142 19.3705 95.4142 19.9312V27.0697C95.4142 27.652 94.9613 28.1049 94.379 28.1049Z" fill="#B38E57"/>
<path fill-rule="evenodd" clip-rule="evenodd" d="M11.9082 46.6952H19.931V38.6724H11.9082V46.6952ZM20.9662 48.7656H10.873C10.3123 48.7656 9.83784 48.3127 9.83784 47.7304V37.6372C9.83784 37.055 10.2907 36.6021 10.873 36.6021H20.9662C21.5485 36.6021 22.0014 37.0765 22.0014 37.6372V47.7304C22.0014 48.3127 21.527 48.7656 20.9662 48.7656Z" fill="#B38E57"/>
<path fill-rule="evenodd" clip-rule="evenodd" d="M11.9082 63.7763H19.931V55.7535H11.9082V63.7763ZM20.9662 65.8467H10.873C10.3123 65.8467 9.83784 65.3938 9.83784 64.8115V54.7183C9.83784 54.136 10.2907 53.6831 10.873 53.6831H20.9662C21.5485 53.6831 22.0014 54.1576 22.0014 54.7183V64.8115C22.0014 65.3938 21.527 65.8467 20.9662 65.8467Z" fill="#B38E57"/>
<path fill-rule="evenodd" clip-rule="evenodd" d="M11.9082 80.8569H19.931V72.8341H11.9082V80.8569ZM20.9662 82.9273H10.873C10.3123 82.9273 9.83784 82.4744 9.83784 81.8921V71.7989C9.83784 71.2166 10.2907 70.7637 10.873 70.7637H20.9662C21.5485 70.7637 22.0014 71.2381 22.0014 71.7989V81.8921C22.0014 82.4744 21.527 82.9273 20.9662 82.9273Z" fill="#B38E57"/>
<path fill-rule="evenodd" clip-rule="evenodd" d="M76.069 46.6952H84.0918V38.6724H76.069V46.6952ZM85.127 48.7656H75.0338C74.4515 48.7656 73.9986 48.3127 73.9986 47.7304V37.6372C73.9986 37.055 74.4515 36.6021 75.0338 36.6021H85.127C85.7092 36.6021 86.1622 37.0765 86.1622 37.6372V47.7304C86.1622 48.3127 85.7092 48.7656 85.127 48.7656Z" fill="#B38E57"/>
<path fill-rule="evenodd" clip-rule="evenodd" d="M76.069 63.7763H84.0918V55.7535H76.069V63.7763ZM85.127 65.8467H75.0338C74.4515 65.8467 73.9986 65.3938 73.9986 64.8115V54.7183C73.9986 54.136 74.4515 53.6831 75.0338 53.6831H85.127C85.7092 53.6831 86.1622 54.1576 86.1622 54.7183V64.8115C86.1622 65.3938 85.7092 65.8467 85.127 65.8467Z" fill="#B38E57"/>
<path fill-rule="evenodd" clip-rule="evenodd" d="M76.069 80.8569H84.0918V72.8341H76.069V80.8569ZM85.127 82.9273H75.0338C74.4515 82.9273 73.9986 82.4744 73.9986 81.8921V71.7989C73.9986 71.2166 74.4515 70.7637 75.0338 70.7637H85.127C85.7092 70.7637 86.1622 71.2381 86.1622 71.7989V81.8921C86.1622 82.4744 85.7092 82.9273 85.127 82.9273Z" fill="#B38E57"/>
<path fill-rule="evenodd" clip-rule="evenodd" d="M55.5591 95.4142C54.9768 95.4142 54.5239 94.9613 54.5239 94.379V75.422H41.4761V94.379C41.4761 94.9613 41.0016 95.4142 40.4409 95.4142C39.8802 95.4142 39.4057 94.9398 39.4057 94.379V74.3868C39.4057 73.826 39.8586 73.3516 40.4409 73.3516H55.5591C56.1414 73.3516 56.5943 73.826 56.5943 74.3868V94.379C56.5943 94.9613 56.1414 95.4142 55.5591 95.4142Z" fill="#B38E57"/>
<path fill-rule="evenodd" clip-rule="evenodd" d="M34.963 51.3539H42.9858V43.3311H34.963V51.3539ZM44.021 53.4243H33.9278C33.3455 53.4243 32.8926 52.9714 32.8926 52.3891V42.2959C32.8926 41.7352 33.3455 41.2607 33.9278 41.2607H44.021C44.5817 41.2607 45.0562 41.7352 45.0562 42.2959V52.3891C45.0562 52.9714 44.6033 53.4243 44.021 53.4243Z" fill="#B38E57"/>
<path fill-rule="evenodd" clip-rule="evenodd" d="M53.0142 51.3539H61.037V43.3311H53.0142V51.3539ZM62.0722 53.4243H51.979C51.3967 53.4243 50.9438 52.9714 50.9438 52.3891V42.2959C50.9438 41.7352 51.3967 41.2607 51.979 41.2607H62.0722C62.6545 41.2607 63.1074 41.7352 63.1074 42.2959V52.3891C63.1074 52.9714 62.633 53.4243 62.0722 53.4243Z" fill="#B38E57"/>
<path fill-rule="evenodd" clip-rule="evenodd" d="M34.963 67.8525H42.9858V59.8297H34.963V67.8525ZM44.021 69.9229H33.9278C33.3455 69.9229 32.8926 69.47 32.8926 68.8877V58.7945C32.8926 58.2337 33.3455 57.7593 33.9278 57.7593H44.021C44.5817 57.7593 45.0562 58.2337 45.0562 58.7945V68.8877C45.0562 69.47 44.6033 69.9229 44.021 69.9229Z" fill="#B38E57"/>
<path fill-rule="evenodd" clip-rule="evenodd" d="M53.0142 67.8525H61.037V59.8297H53.0142V67.8525ZM62.0722 69.9229H51.979C51.3967 69.9229 50.9438 69.47 50.9438 68.8877V58.7945C50.9438 58.2337 51.3967 57.7593 51.979 57.7593H62.0722C62.6545 57.7593 63.1074 58.2337 63.1074 58.7945V68.8877C63.1074 69.47 62.633 69.9229 62.0722 69.9229Z" fill="#B38E57"/>
</svg>
