<svg width="102" height="102" viewBox="0 0 102 102" fill="none" xmlns="http://www.w3.org/2000/svg">
<g clip-path="url(#clip0_43_547)">
<path d="M77.18 11.3051L51.68 0.142901C51.2464 -0.0463315 50.7536 -0.0463315 50.32 0.142901L24.82 11.3051C24.2008 11.5754 23.8003 12.1867 23.8 12.8623V39.5523C23.8092 45.5505 26.6915 51.1811 31.552 54.6959L49.1759 67.4068C50.2644 68.1946 51.7356 68.1946 52.8241 67.4068L70.448 54.6976C75.3084 51.1828 78.1908 45.5522 78.2 39.554V12.8623C78.1996 12.1867 77.7992 11.5754 77.18 11.3051ZM74.8 39.554C74.7922 44.46 72.4345 49.0654 68.459 51.9402L51 64.5321L33.541 51.9402C29.5654 49.0654 27.2078 44.46 27.2 39.554V13.9741L51 3.5565L74.8 13.9741V39.554Z" fill="#B38E57"/>
<path d="M50.32 7.56526L31.62 15.7525C31.0008 16.0227 30.6004 16.634 30.6 17.3097V39.5542C30.6053 43.3684 32.4385 46.9489 35.53 49.183L50.0055 59.6244C50.5993 60.0527 51.4007 60.0527 51.9945 59.6244L66.47 49.183C69.5615 46.9489 71.3948 43.3684 71.4 39.5542V17.3097C71.3997 16.634 70.9992 16.0227 70.38 15.7525L51.68 7.56526C51.2464 7.37603 50.7536 7.37603 50.32 7.56526ZM68 18.4198V39.5542C67.9948 42.2759 66.6865 44.8306 64.481 46.4256L51 56.1496L37.519 46.4256C35.3135 44.8306 34.0052 42.2759 34 39.5542V18.4198L51 10.9789L68 18.4198Z" fill="#B38E57"/>
<path d="M14.0845 56.44L10.4074 47.8482C9.62543 46.0768 7.95786 44.8572 6.03286 44.6488C4.10785 44.4403 2.21785 45.2746 1.07481 46.8375C-0.0682385 48.4004 -0.290672 50.4543 0.491293 52.2257L7.15359 66.8814C8.0524 68.8654 9.30278 70.6704 10.8443 72.2092L21.3214 82.688C20.7313 83.3134 20.4018 84.1402 20.4 85V98.6C20.4 100.478 21.9222 102 23.8 102H42.5C44.3778 102 45.9 100.478 45.9 98.6V85C45.9 83.1222 44.3778 81.6 42.5 81.6V78.4363C42.5521 74.4101 41.2385 70.4851 38.7736 67.3013C37.3284 65.4005 35.3589 63.964 33.1075 63.1686C29.527 61.6642 26.2342 59.5511 23.375 56.9228C20.721 54.737 16.9507 54.5411 14.0845 56.44ZM42.5 98.6H23.8V85H42.5V98.6ZM36.1199 69.4246C38.1014 72.0063 39.1517 75.1822 39.1 78.4363V81.6H25.0427L13.2481 69.8054C11.9954 68.5545 10.9789 67.0877 10.2476 65.4755L3.58529 50.8198C3.30097 50.1943 3.35389 49.4672 3.72578 48.8894C4.09766 48.3116 4.73759 47.9623 5.42469 47.9621C6.23329 47.9614 6.96406 48.4439 7.28109 49.1878L11.084 58.0567C12.0938 60.4229 13.5494 62.5728 15.3714 64.3892L23.137 72.1565C23.5638 72.5984 24.1959 72.7757 24.7903 72.6201C25.3846 72.4645 25.8488 72.0003 26.0044 71.4059C26.16 70.8116 25.9827 70.1795 25.5408 69.7527L17.7752 61.9854C16.9943 61.2064 16.2922 60.3523 15.6791 59.4354C17.3117 58.1791 19.5956 58.2172 21.1854 59.5272C24.3633 62.4436 28.0362 64.7694 32.0314 66.3952C33.6592 66.9871 35.0797 68.0397 36.1199 69.4246Z" fill="#B38E57"/>
<path d="M37.4 90.1001H35.7C34.7611 90.1001 34 90.8612 34 91.8001C34 92.739 34.7611 93.5001 35.7 93.5001H37.4C38.3389 93.5001 39.1 92.739 39.1 91.8001C39.1 90.8612 38.3389 90.1001 37.4 90.1001Z" fill="#B38E57"/>
<path d="M94.8464 66.8815L101.509 52.2258C102.328 50.4485 102.125 48.3676 100.979 46.7817C99.8318 45.1958 97.9192 44.3513 95.9747 44.5724C94.0302 44.7934 92.3559 46.0455 91.5943 47.8483L87.9257 56.4078C85.0495 54.5182 81.2773 54.7251 78.625 56.9178C75.7658 59.5461 72.473 61.6593 68.8925 63.1636C66.6411 63.959 64.6716 65.3956 63.2264 67.2963C60.7604 70.4815 59.4468 74.4085 59.5 78.4364V81.6001C57.6222 81.6001 56.1 83.1223 56.1 85.0001V98.6001C56.1 100.478 57.6222 102 59.5 102H78.2C80.0778 102 81.6 100.478 81.6 98.6001V85.0001C81.5982 84.1403 81.2687 83.3135 80.6786 82.6881L91.1557 72.2093C92.6972 70.6705 93.9476 68.8655 94.8464 66.8815ZM78.2 98.6001H59.5V85.0001H78.2V98.6001ZM76.9573 81.6001H62.9V78.4364C62.8487 75.1829 63.8989 72.0077 65.8801 69.4264C66.918 68.0424 68.3354 66.9894 69.9601 66.3953C73.956 64.77 77.6296 62.4442 80.8078 59.5273C82.3959 58.2074 84.6862 58.1629 86.3243 59.4202C85.7094 60.3438 85.0038 61.2038 84.218 61.9872L76.4524 69.7545C75.8082 70.4216 75.8174 71.4819 76.4731 72.1376C77.1289 72.7934 78.1892 72.8026 78.8562 72.1583L86.6218 64.391C88.4438 62.5746 89.8994 60.4247 90.9092 58.0585L94.7121 49.1879C95.03 48.445 95.7605 47.9634 96.5685 47.9639C97.2556 47.9642 97.8955 48.3134 98.2674 48.8912C98.6393 49.469 98.6922 50.1961 98.4079 50.8216L91.7456 65.4773C91.0143 67.0895 89.9978 68.5563 88.7451 69.8072L76.9573 81.6001Z" fill="#B38E57"/>
<path d="M66.3 90.1001H64.6C63.6611 90.1001 62.9 90.8612 62.9 91.8001C62.9 92.739 63.6611 93.5001 64.6 93.5001H66.3C67.2389 93.5001 68 92.739 68 91.8001C68 90.8612 67.2389 90.1001 66.3 90.1001Z" fill="#B38E57"/>
<path d="M41.82 36.0401C41.0689 35.4768 40.0033 35.629 39.44 36.3801C38.8767 37.1312 39.0289 38.1968 39.78 38.7601L46.58 43.8601C46.8742 44.0808 47.2322 44.2001 47.6 44.2001C47.6962 44.1998 47.7923 44.1918 47.8873 44.1763C48.3477 44.0973 48.7553 43.8323 49.0144 43.4436L62.6144 23.0436C62.9515 22.5383 62.9934 21.8915 62.7243 21.347C62.4552 20.8024 61.916 20.4427 61.3099 20.4035C60.7037 20.3642 60.1227 20.6513 59.7856 21.1566L47.1818 40.0623L41.82 36.0401Z" fill="#B38E57"/>
</g>
<defs>
<clipPath id="clip0_43_547">
<rect width="102" height="102" fill="white"/>
</clipPath>
</defs>
</svg>
