<svg width="113" height="97" viewBox="0 0 113 97" fill="none" xmlns="http://www.w3.org/2000/svg">
<path fill-rule="evenodd" clip-rule="evenodd" d="M2.29862 71.7227H14.0073C14.7557 71.7227 15.3624 72.3294 15.3624 73.0778V95.2185C15.3624 95.9669 14.7557 96.5736 14.0073 96.5736H2.29862C1.55017 96.5736 0.943512 95.9669 0.943512 95.2185V73.0778C0.943512 72.3294 1.55017 71.7227 2.29862 71.7227ZM85.1515 83.2331C87.6372 83.2331 89.6528 85.249 89.6528 87.7347C89.6528 90.2204 87.6372 92.2362 85.1515 92.2362C82.6658 92.2362 80.6499 90.2206 80.6499 87.7347C80.6499 85.2487 82.6655 83.2331 85.1515 83.2331ZM85.1515 85.9433C84.1617 85.9433 83.3601 86.7449 83.3601 87.7347C83.3601 88.7244 84.1617 89.526 85.1515 89.526C86.1412 89.526 86.9426 88.7244 86.9426 87.7347C86.9426 86.7449 86.141 85.9433 85.1515 85.9433ZM86.0316 77.7243L86.586 61.4311C86.5966 61.1189 86.4579 60.7361 86.1868 60.4678C85.6118 59.8988 84.6911 59.8988 84.1161 60.4678C83.8448 60.7363 83.7063 61.1196 83.717 61.4314L84.2714 77.7245C84.334 79.6792 85.9689 79.679 86.0316 77.7245V77.7243ZM88.7373 77.8372C88.7373 78.8972 88.3686 79.8713 87.7806 80.5926C86.3596 82.3362 83.9434 82.3365 82.5223 80.5926C81.9343 79.8713 81.5657 78.8974 81.5657 77.8372C81.5657 72.6097 81.1991 66.8541 81.0174 61.5157C80.9786 60.3896 81.4104 59.3436 82.2106 58.5515C83.8467 56.9321 86.4562 56.9324 88.0926 58.5515C88.8928 59.3434 89.3246 60.3896 89.2856 61.5155C89.1038 66.8537 88.7373 72.6094 88.7373 77.837V77.8372ZM90.285 52.9985C89.2059 51.1293 87.3136 50.0271 85.1515 50.0271C82.9893 50.0271 81.0982 51.1274 80.0203 52.9944L73.5974 64.1191V45.984C73.5974 45.2355 72.9907 44.6289 72.2423 44.6289H60.5336C59.7852 44.6289 59.1785 45.2355 59.1785 45.984V90.6413C59.1785 93.8827 61.8493 96.5731 65.1276 96.5731H105.176C109.743 96.5731 112.6 91.6426 110.309 87.6751C103.634 76.1137 96.9601 64.5592 90.2852 52.9977L90.285 52.9985ZM61.8888 84.3939V47.3393H70.8872V68.8133C67.8884 74.0071 64.8875 79.1999 61.8888 84.3939ZM87.9454 54.3429C87.3451 53.3033 86.3487 52.7373 85.1515 52.7373C83.9481 52.7373 82.9588 53.3017 82.3552 54.3469C75.6806 65.9079 69.0074 77.4695 62.3314 89.0295C61.0959 91.1766 62.6112 93.8634 65.1274 93.8634H105.175C107.679 93.8634 109.214 91.187 107.969 89.0307C101.293 77.4672 94.6219 65.9074 87.9454 54.3429ZM76.958 12.1983C76.9287 11.4529 77.5093 10.8247 78.2547 10.7957C79.0001 10.7666 79.6283 11.347 79.6573 12.0924L79.697 13.0663C81.6619 13.578 83.0623 15.3169 83.1458 17.3528C83.2152 19.1284 80.5157 19.234 80.4462 17.4587C80.4032 16.4035 79.5014 15.5785 78.4473 15.6215C77.3921 15.6645 76.5671 16.5666 76.6101 17.6204C76.6531 18.6756 77.5552 19.5006 78.6087 19.4576C81.1571 19.3534 83.3088 21.3414 83.413 23.8885C83.496 25.9174 82.2359 27.7688 80.3259 28.4371L80.3661 29.4164C80.4355 31.192 77.736 31.2976 77.6665 29.5223L77.6265 28.5484C75.6617 28.0368 74.2612 26.2979 74.1778 24.2619C74.1083 22.4864 76.8079 22.3807 76.8774 24.156C76.9204 25.2112 77.8222 26.0362 78.8763 25.9932C79.9315 25.9502 80.7565 25.0482 80.7135 23.9944C80.6705 22.9392 79.7684 22.1141 78.7146 22.1572C76.1663 22.2614 74.0147 20.2734 73.9105 17.7262C73.8276 15.6974 75.0877 13.8457 76.9977 13.1776L76.9575 12.1985L76.958 12.1983ZM81.8162 6.76392C74.0571 5.02171 66.3615 9.89362 64.6191 17.6532C62.8768 25.4123 67.7487 33.1079 75.5083 34.8503C83.2675 36.5926 90.9628 31.7206 92.7052 23.961C94.447 16.2048 89.5725 8.50566 81.8162 6.76392ZM81.2235 9.39993C74.9234 7.98527 68.67 11.9466 67.2553 18.2459C65.8406 24.546 69.802 30.7994 76.1013 32.2141C82.4013 33.6288 88.6548 29.6672 90.0695 23.3681C91.4844 17.0681 87.5233 10.8146 81.2235 9.39993ZM85.9394 36.9137C86.5827 36.6237 87.333 36.8785 87.6729 37.4814L90.264 41.5734C90.9141 40.9781 91.66 40.509 92.4769 40.1779L89.8757 36.07C89.4843 35.5045 89.5791 34.7232 90.1151 34.2697C93.4412 31.4484 95.5083 27.5714 96.1336 23.4546C97.5247 14.2933 91.6013 5.59883 82.5341 3.56262C73.0104 1.42409 63.5563 7.41217 61.4178 16.935C59.3844 25.9899 64.7004 35.072 73.5811 37.7326C77.5713 38.9279 81.9627 38.7162 85.9394 36.9137ZM85.9649 39.8352C81.6758 41.4869 77.0449 41.5956 72.8083 40.3263C68.6818 39.0901 64.927 36.5458 62.2229 32.8463L51.9018 45.1216C53.1508 46.3777 53.9226 48.1083 53.9226 50.0195C53.9226 53.8556 50.8121 56.9662 46.976 56.9662C43.1399 56.9662 40.0293 53.8556 40.0293 50.0195C40.0293 48.9062 40.2914 47.8538 40.7572 46.921L33.325 41.1705C32.0325 43.0845 29.8835 44.234 27.5645 44.234C26.0676 44.234 24.6813 43.7604 23.5469 42.955L13.6178 56.1052C14.5458 57.2862 15.0993 58.7753 15.0993 60.3936C15.0993 64.2297 11.9888 67.3403 8.1527 67.3403C4.31662 67.3403 1.20607 64.2297 1.20607 60.3936C1.20607 56.5575 4.31662 53.447 8.1527 53.447C9.39106 53.447 10.5538 53.7712 11.5606 54.3394L21.665 40.9571C21.0012 39.8922 20.6176 38.6347 20.6176 37.2876C20.6176 33.4515 23.7281 30.341 27.5642 30.341C31.4003 30.341 34.5108 33.4515 34.5108 37.2876C34.5108 37.7291 34.4695 38.1606 34.3908 38.5791L42.4104 44.7842C43.6312 43.7186 45.2283 43.0729 46.9757 43.0729C47.9239 43.0729 48.8276 43.2631 49.651 43.607L60.7121 30.4513C58.3129 25.9982 57.7379 20.989 58.7813 16.3423C61.2476 5.35872 72.1437 -1.53947 83.1264 0.926619C93.5721 3.27218 100.414 13.2991 98.8115 23.8568C98.1474 28.2294 96.0684 32.3703 92.7402 35.5435L95.2966 39.5807C95.7364 39.5944 96.1381 39.822 96.3794 40.1836L111.065 60.9977C111.981 62.2975 112.263 63.9116 111.905 65.4551C111.167 68.6431 108.007 70.6536 104.805 69.9576C103.238 69.6171 101.915 68.6739 101.131 67.2835L88.621 45.133C88.3882 44.7648 88.3402 44.294 88.5222 43.8743L85.9644 39.8352H85.9649ZM94.6122 42.3696L108.854 62.5537C109.329 63.2284 109.455 64.0522 109.27 64.8515C108.863 66.6121 107.138 67.6936 105.377 67.311C104.595 67.141 103.876 66.6566 103.482 65.9601L91.3279 44.4405C92.1414 43.2783 93.2178 42.6137 94.6122 42.3696ZM46.9762 45.7829C44.6361 45.7829 42.7398 47.6792 42.7398 50.0193C42.7398 52.3594 44.6361 54.2557 46.9762 54.2557C49.3163 54.2557 51.2126 52.3594 51.2126 50.0193C51.2126 47.6792 49.3163 45.7829 46.9762 45.7829ZM27.5647 33.0507C25.2246 33.0507 23.3283 34.947 23.3283 37.2871C23.3283 39.6272 25.2246 41.5235 27.5647 41.5235C29.9048 41.5235 31.8011 39.6272 31.8011 37.2871C31.8011 34.947 29.9048 33.0507 27.5647 33.0507ZM8.15294 56.1567C5.81282 56.1567 3.91652 58.053 3.91652 60.3932C3.91652 62.7333 5.81282 64.6296 8.15294 64.6296C10.4931 64.6296 12.3894 62.7333 12.3894 60.3932C12.3894 58.053 10.4931 56.1567 8.15294 56.1567ZM41.1219 64.1335C40.3734 64.1335 39.7668 64.7402 39.7668 65.4886V95.2182C39.7668 95.9667 40.3734 96.5733 41.1219 96.5733H52.8305C53.579 96.5733 54.1856 95.9667 54.1856 95.2182V65.4886C54.1856 64.7402 53.579 64.1335 52.8305 64.1335H41.1219ZM51.4754 66.8437H42.477V93.8634H51.4754V66.8437ZM21.7101 54.3273C20.9617 54.3273 20.355 54.934 20.355 55.6824V95.2182C20.355 95.9667 20.9617 96.5733 21.7101 96.5733H33.4188C34.1672 96.5733 34.7739 95.9667 34.7739 95.2182V55.6824C34.7739 54.934 34.1672 54.3273 33.4188 54.3273H21.7101ZM32.0637 57.0375H23.0652V93.8631H32.0637V57.0375ZM12.6519 74.4327H3.65349V93.8631H12.6519V74.4327Z" fill="#B38E57"/>
</svg>
