<svg width="100" height="100" viewBox="0 0 100 100" fill="none" xmlns="http://www.w3.org/2000/svg">
<path d="M46.6875 43.375H54.9688C60.6792 43.375 66.1557 41.1065 70.1936 37.0686C74.2315 33.0308 76.5 27.5542 76.5 21.8438C76.5 16.1333 74.2315 10.6567 70.1936 6.61886C66.1557 2.58096 60.6792 0.3125 54.9688 0.3125H46.6875C40.9771 0.3125 35.5005 2.58096 31.4626 6.61886C27.4247 10.6567 25.1563 16.1333 25.1562 21.8438C25.1562 27.5542 27.4247 33.0308 31.4626 37.0686C35.5005 41.1065 40.9771 43.375 46.6875 43.375ZM29.7159 28.4688H33.7218C33.9393 28.4681 34.1549 28.5107 34.3559 28.594C34.5569 28.6773 34.7394 28.7996 34.8928 28.9539L37.921 31.9821C38.3813 32.445 38.9289 32.8119 39.532 33.0617C40.1351 33.3116 40.7817 33.4393 41.4345 33.4375H50.2843C50.9371 33.4393 51.5837 33.3115 52.1868 33.0617C52.7899 32.8119 53.3374 32.445 53.7977 31.9821L57.3535 28.4263C57.5669 28.4542 57.7818 28.4683 57.997 28.4688H63.6591C62.3256 31.8848 59.9923 34.8189 56.9643 36.8874C53.9363 38.9559 50.3546 40.0625 46.6875 40.0625C43.0205 40.0625 39.4387 38.9559 36.4107 36.8874C33.3828 34.8189 31.0494 31.8848 29.7159 28.4688ZM28.4688 21.8438C28.4686 20.7327 28.5699 19.6239 28.7714 18.5312H33.7218C34.3745 18.533 35.0212 18.4053 35.6243 18.1555C36.2274 17.9057 36.7749 17.5387 37.2352 17.0759L38.6072 15.7039C38.7606 15.5496 38.9431 15.4273 39.1441 15.344C39.3451 15.2607 39.5607 15.2181 39.7782 15.2188H42.6889L41.3756 16.532C40.4068 17.5017 39.8628 18.8164 39.8631 20.1871C39.8634 21.5578 40.4081 22.8723 41.3773 23.8415C42.3466 24.8107 43.6611 25.3554 45.0318 25.3556C46.4025 25.3559 47.7172 24.8118 48.6868 23.843L50 22.5297L54.2826 26.8125L51.4553 29.6399C51.3019 29.7942 51.1194 29.9165 50.9184 29.9998C50.7174 30.083 50.5018 30.1256 50.2843 30.125H41.4345C41.2169 30.1256 41.0014 30.083 40.8004 29.9998C40.5994 29.9165 40.4169 29.7942 40.2635 29.6399L37.2352 26.6116C36.7749 26.1488 36.2274 25.7818 35.6243 25.532C35.0212 25.2822 34.3745 25.1545 33.7218 25.1562H28.7714C28.5699 24.0636 28.4686 22.9548 28.4688 21.8438ZM64.9062 21.8438C64.9064 22.9548 64.8051 24.0636 64.6036 25.1562H57.997C57.7794 25.1569 57.5639 25.1143 57.3629 25.031C57.1619 24.9477 56.9794 24.8254 56.826 24.6711L50 17.8453L46.3444 21.5008C45.996 21.8486 45.5238 22.0439 45.0314 22.0437C44.5391 22.0435 44.067 21.8479 43.7189 21.4997C43.3708 21.1516 43.1752 20.6795 43.175 20.1872C43.1749 19.6948 43.3702 19.2226 43.7181 18.8742L47.3735 15.2188H53.5968C53.8143 15.2181 54.0299 15.2607 54.2309 15.344C54.4319 15.4273 54.6144 15.5496 54.7678 15.7039L56.1398 17.0759C56.6001 17.5387 57.1477 17.9057 57.7507 18.1555C58.3538 18.4053 59.0005 18.533 59.6532 18.5312H64.6036C64.8051 19.6239 64.9064 20.7327 64.9062 21.8438ZM58.7572 39.6652C62.2277 37.3081 64.9389 33.9938 66.5616 30.125H71.1942C69.9581 32.5377 68.2009 34.6454 66.0498 36.2954C63.8988 37.9454 61.4078 39.0965 58.7572 39.6652ZM72.4988 26.8125H67.639C68.412 23.5451 68.412 20.1424 67.639 16.875H72.4988C73.4171 20.1239 73.4171 23.5636 72.4988 26.8125ZM71.1942 13.5625H66.5616C64.9389 9.69374 62.2276 6.37946 58.7572 4.02229C61.4078 4.59105 63.8988 5.74209 66.0498 7.3921C68.2009 9.0421 69.9581 11.1498 71.1942 13.5625ZM46.6875 3.625C50.3536 3.62906 53.9336 4.73728 56.9608 6.80526C59.988 8.87323 62.3222 11.8051 63.6591 15.2188H59.6532C59.4357 15.2194 59.2201 15.1768 59.0191 15.0935C58.8181 15.0102 58.6356 14.8879 58.4822 14.7336L57.1102 13.3616C56.6499 12.8988 56.1024 12.5318 55.4993 12.282C54.8962 12.0322 54.2495 11.9045 53.5968 11.9062H39.7782C39.1255 11.9045 38.4788 12.0322 37.8757 12.282C37.2727 12.5318 36.7251 12.8988 36.2648 13.3616L34.8928 14.7336C34.7394 14.8879 34.5569 15.0102 34.3559 15.0935C34.1549 15.1768 33.9393 15.2194 33.7218 15.2188H29.7159C31.0529 11.8051 33.387 8.87324 36.4142 6.80527C39.4415 4.73729 43.0214 3.62907 46.6875 3.625Z" fill="#B38E57"/>
<path d="M13.5625 30.125C13.563 29.6859 13.7377 29.2649 14.0482 28.9544C14.3587 28.6439 14.7796 28.4693 15.2188 28.4688H21.8438V25.1562H15.2188C13.9014 25.1577 12.6385 25.6817 11.707 26.6132C10.7755 27.5447 10.2515 28.8077 10.25 30.125V53.3125H13.5625V30.125Z" fill="#B38E57"/>
<path d="M86.4375 30.125V53.3125H89.75V30.125C89.7485 28.8077 89.2245 27.5447 88.293 26.6132C87.3615 25.6817 86.0986 25.1577 84.7812 25.1562H79.8125V28.4688H84.7812C85.2204 28.4693 85.6413 28.6439 85.9518 28.9544C86.2623 29.2649 86.437 29.6859 86.4375 30.125Z" fill="#B38E57"/>
<path d="M94.0251 83.3563L90.8826 82.3088C90.5526 82.1992 90.2656 81.9883 90.0623 81.7062C89.859 81.4242 89.7497 81.0852 89.75 80.7375V79.5283C89.7494 79.3107 89.792 79.0951 89.8753 78.8941C89.9586 78.693 90.0809 78.5105 90.2352 78.357L90.6368 77.9554C91.4082 77.1882 92.0199 76.2757 92.4363 75.2705C92.8527 74.2653 93.0655 73.1876 93.0625 72.0996V69.875H96.375V66.5625H93.0625C93.06 64.6543 92.3997 62.8053 91.1929 61.3272C89.9861 59.849 88.3066 58.8321 86.4375 58.4479V56.625H83.125V58.4479C81.2559 58.8321 79.5764 59.849 78.3696 61.3272C77.1628 62.8053 76.5025 64.6543 76.5 66.5625V68.1292L74.3201 67.4026C73.9901 67.2929 73.7031 67.0821 73.4998 66.8C73.2965 66.5179 73.1872 66.1789 73.1875 65.8312V64.6221C73.1869 64.4045 73.2295 64.1889 73.3128 63.9878C73.3961 63.7868 73.5184 63.6042 73.6727 63.4508L74.0743 63.0491C74.8457 62.282 75.4574 61.3694 75.8738 60.3642C76.2902 59.3591 76.503 58.2813 76.5 57.1933V54.9688H79.8125V51.6562H76.5C76.4975 49.748 75.8372 47.899 74.6304 46.4209C73.4236 44.9428 71.7441 43.9259 69.875 43.5416V41.7188H66.5625V43.5416C64.6934 43.9259 63.0139 44.9428 61.8071 46.4209C60.6003 47.899 59.94 49.748 59.9375 51.6562H56.625V54.9688H59.9375V57.1933C59.9345 58.2813 60.1473 59.359 60.5637 60.3641C60.98 61.3692 61.5916 62.2818 62.363 63.0489L62.7648 63.4509C62.9191 63.6043 63.0414 63.7868 63.1247 63.9879C63.208 64.1889 63.2506 64.4045 63.25 64.6221V65.8312C63.2503 66.1789 63.1411 66.5179 62.9377 66.8C62.7344 67.0821 62.4474 67.2929 62.1174 67.4026L58.9751 68.4499C58.7389 68.5287 58.5085 68.6217 58.2813 68.721V66.5625C58.2788 64.6543 57.6185 62.8053 56.4117 61.3272C55.2049 59.849 53.5254 58.8321 51.6563 58.4479V56.625H48.3438V58.4479C46.4746 58.8321 44.7951 59.849 43.5883 61.3272C42.3815 62.8053 41.7212 64.6543 41.7188 66.5625V68.721C41.4915 68.6217 41.2613 68.5288 41.0251 68.45L37.8826 67.4025C37.5526 67.2929 37.2656 67.0821 37.0623 66.8C36.859 66.5179 36.7497 66.1789 36.75 65.8312V64.6221C36.7494 64.4045 36.792 64.1889 36.8753 63.9878C36.9586 63.7868 37.0809 63.6042 37.2352 63.4508L37.6368 63.0491C38.4082 62.282 39.0199 61.3694 39.4363 60.3642C39.8526 59.3591 40.0655 58.2813 40.0625 57.1933V54.9688H43.375V51.6562H40.0625C40.06 49.748 39.3997 47.899 38.1929 46.4209C36.9861 44.9428 35.3066 43.9259 33.4375 43.5416V41.7188H30.125V43.5416C28.2559 43.9259 26.5764 44.9428 25.3696 46.4209C24.1628 47.899 23.5025 49.748 23.5 51.6562H20.1875V54.9688H23.5V57.1933C23.497 58.2813 23.7098 59.359 24.1262 60.3641C24.5425 61.3692 25.1541 62.2818 25.9255 63.0489L26.3273 63.4509C26.4816 63.6043 26.6039 63.7868 26.6872 63.9879C26.7705 64.1889 26.8131 64.4045 26.8125 64.6221V65.8312C26.8128 66.1789 26.7036 66.5179 26.5002 66.8C26.2969 67.0821 26.0099 67.2929 25.6799 67.4026L23.5 68.1292V66.5625C23.4975 64.6543 22.8372 62.8053 21.6304 61.3272C20.4236 59.849 18.7441 58.8321 16.875 58.4479V56.625H13.5625V58.4479C11.6934 58.8321 10.0139 59.849 8.80708 61.3272C7.60028 62.8053 6.93999 64.6543 6.9375 66.5625H3.625V69.875H6.9375V72.0996C6.93449 73.1875 7.14732 74.2652 7.56367 75.2704C7.98002 76.2755 8.59161 77.188 9.36304 77.9552L9.76477 78.3571C9.91909 78.5105 10.0414 78.6931 10.1247 78.8941C10.208 79.0951 10.2506 79.3107 10.25 79.5283V80.7375C10.2503 81.0852 10.1411 81.4242 9.93773 81.7062C9.73441 81.9883 9.44738 82.1992 9.1174 82.3088L5.97513 83.3563C4.32532 83.9045 2.8902 84.9586 1.87366 86.3689C0.857124 87.7793 0.31087 89.4741 0.312504 91.2126V99.6875H30.125V93.0625H35.0938V99.6875H64.9063V93.0625H69.875V99.6875H99.6875V91.2126C99.6891 89.4741 99.1429 87.7793 98.1264 86.369C97.1099 84.9587 95.6749 83.9045 94.0251 83.3563ZM89.75 72.0996C89.7518 72.7524 89.6241 73.3991 89.3743 74.0022C89.1244 74.6053 88.7574 75.1528 88.2945 75.6131L87.8928 76.0149C87.43 76.4752 87.063 77.0227 86.8132 77.6258C86.5634 78.2289 86.4357 78.8756 86.4375 79.5283V80.7375C86.4369 81.6612 86.6943 82.5667 87.1806 83.352L85.9523 84.5804C85.6415 84.8905 85.2203 85.0647 84.7813 85.0647C84.3422 85.0647 83.921 84.8905 83.6102 84.5804L82.3819 83.352C82.8682 82.5667 83.1256 81.6612 83.125 80.7375V79.5283C83.1268 78.8756 82.9991 78.2289 82.7493 77.6259C82.4995 77.0228 82.1326 76.4753 81.6697 76.015L81.2678 75.6129C80.8049 75.1527 80.438 74.6051 80.1882 74.0021C79.9384 73.399 79.8107 72.7523 79.8125 72.0996V69.875H89.75V72.0996ZM83.125 61.8787V63.25H86.4375V61.8787C87.4055 62.2221 88.2435 62.8567 88.8365 63.6953C89.4296 64.5339 89.7487 65.5354 89.75 66.5625H79.8125C79.8138 65.5354 80.1329 64.5339 80.726 63.6953C81.319 62.8567 82.157 62.2221 83.125 61.8787ZM66.5625 46.9724V48.3438H69.875V46.9724C70.843 47.3159 71.681 47.9504 72.274 48.789C72.8671 49.6276 73.1862 50.6291 73.1875 51.6562H63.25C63.2513 50.6291 63.5704 49.6276 64.1635 48.789C64.7565 47.9504 65.5945 47.3159 66.5625 46.9724ZM73.1875 54.9688V57.1933C73.1893 57.8461 73.0616 58.4928 72.8118 59.0959C72.5619 59.699 72.1949 60.2466 71.732 60.7069L71.3303 61.1086C70.8675 61.5689 70.5005 62.1165 70.2507 62.7196C70.0009 63.3227 69.8732 63.9693 69.875 64.6221V65.8312C69.8744 66.7549 70.1318 67.6604 70.6181 68.4458L69.3898 69.6741C69.079 69.9843 68.6578 70.1585 68.2188 70.1585C67.7797 70.1585 67.3585 69.9843 67.0477 69.6741L65.8194 68.4458C66.3057 67.6604 66.5631 66.7549 66.5625 65.8312V64.6221C66.5643 63.9693 66.4366 63.3227 66.1868 62.7196C65.937 62.1165 65.5701 61.569 65.1072 61.1087L64.7053 60.7067C64.2424 60.2464 63.8755 59.6989 63.6257 59.0958C63.3759 58.4927 63.2482 57.8461 63.25 57.1933V54.9688H73.1875ZM53.5133 75.6131L53.1115 76.0149C52.6487 76.4752 52.2818 77.0227 52.032 77.6258C51.7822 78.2289 51.6545 78.8756 51.6563 79.5283V80.7375C51.6557 81.6612 51.9131 82.5667 52.3994 83.352L51.171 84.5804C50.8602 84.8905 50.4391 85.0647 50 85.0647C49.5609 85.0647 49.1398 84.8905 48.829 84.5804L47.6006 83.352C48.0869 82.5667 48.3443 81.6612 48.3438 80.7375V79.5283C48.3456 78.8756 48.2179 78.2289 47.9681 77.6259C47.7183 77.0228 47.3513 76.4753 46.8885 76.015L46.4865 75.6129C46.0237 75.1527 45.6567 74.6051 45.4069 74.0021C45.1571 73.399 45.0294 72.7523 45.0313 72.0996V69.875H54.9688V72.0996C54.9706 72.7524 54.8429 73.3991 54.593 74.0022C54.3432 74.6053 53.9762 75.1528 53.5133 75.6131ZM48.3438 61.8787V63.25H51.6563V61.8787C52.6242 62.2221 53.4622 62.8567 54.0553 63.6953C54.6484 64.5339 54.9674 65.5354 54.9688 66.5625H45.0313C45.0326 65.5354 45.3516 64.5339 45.9447 63.6953C46.5378 62.8567 47.3758 62.2221 48.3438 61.8787ZM30.125 46.9724V48.3438H33.4375V46.9724C34.4055 47.3159 35.2435 47.9504 35.8365 48.789C36.4296 49.6276 36.7487 50.6291 36.75 51.6562H26.8125C26.8138 50.6291 27.1329 49.6276 27.726 48.789C28.319 47.9504 29.157 47.3159 30.125 46.9724ZM36.75 54.9688V57.1933C36.7518 57.8461 36.6241 58.4928 36.3743 59.0959C36.1244 59.699 35.7574 60.2466 35.2945 60.7069L34.8928 61.1086C34.4299 61.5689 34.063 62.1165 33.8132 62.7196C33.5634 63.3227 33.4357 63.9693 33.4375 64.6221V65.8312C33.437 66.7549 33.6943 67.6604 34.1806 68.4458L32.9523 69.6741C32.6415 69.9843 32.2203 70.1585 31.7813 70.1585C31.3422 70.1585 30.921 69.9843 30.6102 69.6741L29.3819 68.4458C29.8682 67.6604 30.1255 66.7549 30.125 65.8312V64.6221C30.1268 63.9693 29.9991 63.3227 29.7493 62.7196C29.4995 62.1165 29.1326 61.569 28.6697 61.1087L28.2678 60.7067C27.8049 60.2464 27.438 59.6989 27.1882 59.0958C26.9384 58.4927 26.8107 57.8461 26.8125 57.1933V54.9688H36.75ZM13.5625 61.8787V63.25H16.875V61.8787C17.843 62.2221 18.681 62.8567 19.274 63.6953C19.8671 64.5339 20.1862 65.5354 20.1875 66.5625H10.25C10.2513 65.5354 10.5704 64.5339 11.1635 63.6953C11.7565 62.8567 12.5945 62.2221 13.5625 61.8787ZM20.1875 69.875V72.0996C20.1893 72.7524 20.0616 73.3991 19.8118 74.0022C19.5619 74.6053 19.1949 75.1528 18.732 75.6131L18.3303 76.0149C17.8674 76.4752 17.5005 77.0227 17.2507 77.6258C17.0009 78.2289 16.8732 78.8756 16.875 79.5283V80.7375C16.8745 81.6612 17.1318 82.5667 17.6181 83.352L16.3898 84.5804C16.079 84.8905 15.6578 85.0647 15.2188 85.0647C14.7797 85.0647 14.3585 84.8905 14.0477 84.5804L12.8194 83.352C13.3057 82.5667 13.563 81.6612 13.5625 80.7375V79.5283C13.5643 78.8756 13.4366 78.2289 13.1868 77.6259C12.937 77.0228 12.5701 76.4753 12.1072 76.015L11.7053 75.6129C11.2424 75.1527 10.8755 74.6051 10.6257 74.0021C10.3759 73.399 10.2482 72.7523 10.25 72.0996V69.875H20.1875ZM26.8125 96.375H3.625V91.2126C3.62404 90.1695 3.9518 89.1526 4.56173 88.3064C5.17165 87.4602 6.03273 86.8277 7.02262 86.4988L10.1651 85.4513C10.1821 85.4456 10.1981 85.4382 10.215 85.4324L11.7053 86.9226C12.6379 87.8531 13.9014 88.3756 15.2188 88.3756C16.5361 88.3756 17.7996 87.8531 18.7322 86.9226L20.2225 85.4324C20.2394 85.4382 20.2554 85.4456 20.2724 85.4513L23.4151 86.4988C24.4049 86.8277 25.266 87.4602 25.8759 88.3064C26.4857 89.1526 26.8135 90.1695 26.8125 91.2126V96.375ZM35.2245 89.75H29.9942C29.7328 88.2851 29.081 86.918 28.1074 85.7927C27.1338 84.6674 25.8746 83.8257 24.4626 83.3563L21.3201 82.3088C20.9901 82.1992 20.7031 81.9883 20.4998 81.7062C20.2965 81.4242 20.1872 81.0852 20.1875 80.7375V79.5283C20.1869 79.3107 20.2295 79.0951 20.3128 78.8941C20.3961 78.693 20.5184 78.5105 20.6727 78.357L21.0743 77.9554C21.8457 77.1882 22.4574 76.2757 22.8738 75.2705C23.2902 74.2653 23.503 73.1876 23.5 72.0996V71.6233C23.5285 71.6132 23.5565 71.6021 23.5851 71.5925L26.7276 70.545C26.7446 70.5394 26.7606 70.532 26.7775 70.5261L28.2678 72.0164C29.2004 72.9468 30.4639 73.4693 31.7813 73.4693C33.0986 73.4693 34.3621 72.9468 35.2947 72.0164L36.785 70.5261C36.8019 70.532 36.8179 70.5394 36.8349 70.545L39.9776 71.5926C40.6288 71.8105 41.2278 72.1609 41.7368 72.6218C41.8577 74.6348 42.7146 76.533 44.1443 77.9552L44.546 78.3571C44.7004 78.5105 44.8227 78.6931 44.906 78.8941C44.9893 79.0952 45.0319 79.3107 45.0313 79.5283V80.7375C45.0316 81.0852 44.9223 81.4242 44.719 81.7062C44.5157 81.9883 44.2286 82.1992 43.8986 82.3088L40.7564 83.3563C39.3443 83.8256 38.085 84.6673 37.1114 85.7926C36.1378 86.9179 35.4859 88.2851 35.2245 89.75ZM61.5938 96.375H38.4063V91.2126C38.4053 90.1695 38.7331 89.1526 39.343 88.3064C39.9529 87.4602 40.814 86.8277 41.8039 86.4988L44.9463 85.4513C44.9633 85.4456 44.9794 85.4382 44.9963 85.4324L46.4865 86.9226C47.4191 87.8531 48.6827 88.3756 50 88.3756C51.3173 88.3756 52.5809 87.8531 53.5135 86.9226L55.0037 85.4324C55.0206 85.4382 55.0367 85.4456 55.0537 85.4513L58.1964 86.4988C59.1862 86.8277 60.0472 87.4602 60.6571 88.3064C61.267 89.1526 61.5947 90.1695 61.5938 91.2126V96.375ZM70.0058 89.75H64.7754C64.5141 88.2851 63.8622 86.918 62.8886 85.7927C61.9151 84.6674 60.6559 83.8256 59.2438 83.3563L56.1014 82.3088C55.7714 82.1992 55.4843 81.9883 55.281 81.7062C55.0777 81.4242 54.9684 81.0852 54.9688 80.7375V79.5283C54.9682 79.3107 55.0107 79.0951 55.094 78.8941C55.1773 78.693 55.2997 78.5105 55.454 78.357L55.8555 77.9554C57.2853 76.5332 58.1422 74.6349 58.2632 72.6218C58.7723 72.1609 59.3713 71.8104 60.0226 71.5925L63.1651 70.545C63.1821 70.5394 63.1981 70.532 63.215 70.5261L64.7053 72.0164C65.6379 72.9468 66.9014 73.4693 68.2188 73.4693C69.5361 73.4693 70.7997 72.9468 71.7322 72.0164L73.2225 70.5261C73.2394 70.532 73.2554 70.5394 73.2724 70.545L76.4151 71.5926C76.4436 71.6021 76.4716 71.6133 76.5 71.6233V72.0996C76.497 73.1875 76.7098 74.2652 77.1262 75.2704C77.5425 76.2755 78.1541 77.188 78.9256 77.9552L79.3273 78.3571C79.4816 78.5105 79.604 78.6931 79.6872 78.8941C79.7705 79.0952 79.8131 79.3107 79.8125 79.5283V80.7375C79.8128 81.0852 79.7036 81.4242 79.5002 81.7062C79.2969 81.9883 79.0099 82.1992 78.6799 82.3088L75.5376 83.3563C74.1256 83.8256 72.8663 84.6673 71.8927 85.7926C70.9191 86.9179 70.2672 88.2851 70.0058 89.75ZM96.375 96.375H73.1875V91.2126C73.1865 90.1695 73.5143 89.1526 74.1242 88.3064C74.7342 87.4602 75.5952 86.8277 76.5851 86.4988L79.7276 85.4513C79.7446 85.4456 79.7607 85.4382 79.7775 85.4324L81.2678 86.9226C82.2004 87.8531 83.4639 88.3756 84.7813 88.3756C86.0986 88.3756 87.3622 87.8531 88.2947 86.9226L89.785 85.4324C89.8019 85.4382 89.8179 85.4456 89.8349 85.4513L92.9776 86.4988C93.9675 86.8277 94.8285 87.4602 95.4384 88.3064C96.0482 89.1526 96.376 90.1695 96.375 91.2126V96.375Z" fill="#B38E57"/>
</svg>
