<svg width="106" height="106" viewBox="0 0 106 106" fill="none" xmlns="http://www.w3.org/2000/svg">
<path d="M34.7812 99.375H38.0938V102.688H34.7812V99.375Z" fill="#B38E57"/>
<path d="M41.4062 99.375H102.688V102.688H41.4062V99.375Z" fill="#B38E57"/>
<path d="M84.651 68.6518L87.9635 75.2768C88.1457 75.6411 88.4603 75.9227 88.8247 76.0718L97.106 79.3843L98.3316 76.3036L90.63 73.223L87.5991 67.1611L84.6344 68.6352L84.651 68.6518Z" fill="#B38E57"/>
<path d="M97.7188 14.9063H97.0231C97.4703 13.8959 97.7188 12.7697 97.7188 11.5938C97.7188 7.0225 94.0088 3.3125 89.4375 3.3125C84.8663 3.3125 81.1563 7.0225 81.1563 11.5938C81.1563 12.7697 81.4047 13.8959 81.8519 14.9063H81.1563C78.4234 14.9063 76.1875 17.1422 76.1875 19.875V36.4375C73.4547 36.4375 71.2188 38.6734 71.2188 41.4063V59.625H69.5625C68.8338 59.625 68.1878 60.1053 67.9725 60.8009L63.3184 76.3366L51.145 77.8603C50.8138 77.8934 50.5156 78.0425 50.2672 78.2578C46.7063 81.355 42.9631 84.535 39.485 87.4831C39.6506 86.4894 39.7666 85.4956 39.7666 84.4853C39.7666 74.995 32.4791 67.1941 23.2041 66.3494V62.7719C32.1478 61.4469 39.1372 53.9938 39.7666 44.8513C39.7997 44.3709 39.6175 43.9072 39.2863 43.5759C38.9384 43.2447 38.4747 43.0625 38.0109 43.0956C31.8663 43.5097 26.4834 46.8056 23.2206 51.6419V47.9153C27.9078 47.1203 31.5019 43.0459 31.5019 38.1269V26.5331C31.5019 25.9203 31.1706 25.3572 30.6241 25.0756C30.0941 24.7941 29.4316 24.8272 28.9181 25.1584L25.0756 27.7256L22.7238 25.3738C22.0778 24.7278 21.0344 24.7278 20.3884 25.3738L18.0366 27.7256L14.1941 25.1584C13.6806 24.8106 13.0347 24.7941 12.4881 25.0756C11.9416 25.3572 11.6103 25.9203 11.6103 26.5331V38.1269C11.6103 43.0459 15.2044 47.1203 19.8916 47.9153V51.6419C16.6122 46.8056 11.2459 43.5097 5.10125 43.0956C4.62094 43.0625 4.15719 43.2447 3.82594 43.5759C3.49469 43.9072 3.3125 44.3875 3.34562 44.8513C3.95844 53.9938 10.9644 61.4469 19.9081 62.7719V66.3494C10.6331 67.1941 3.34562 74.995 3.34562 84.4853C3.34562 90.6466 6.42625 96.0956 11.13 99.3916H3.3125V102.704H24.8438C25.4566 102.704 26.6325 102.704 41.8203 89.8516L53.9109 95.8969C54.1428 96.0128 54.3913 96.0791 54.6563 96.0791C55.0041 96.0791 55.3353 95.9797 55.6169 95.7644L66.78 87.7978H102.688V84.4853H66.25C65.9022 84.4853 65.5709 84.5847 65.2894 84.8L54.5072 92.5016L44.5697 87.5328C46.8056 85.6281 49.2734 83.5081 52.0559 81.1066L64.8091 79.5166C65.455 79.4338 66.0016 78.97 66.1838 78.3406L70.8047 62.9541H102.704V59.6416H97.7353V38.1103H101.048C101.959 38.1103 102.704 37.365 102.704 36.4541V19.875C102.704 17.1422 100.468 14.9063 97.7353 14.9063H97.7188ZM36.1725 46.64C34.9138 53.0331 29.8456 58.1013 23.4525 59.36C24.7113 52.9669 29.7794 47.8988 36.1725 46.64ZM6.89 46.64C13.2831 47.8988 18.3513 52.9669 19.61 59.36C13.2169 58.1013 8.14875 53.0331 6.89 46.64ZM14.9063 38.0938V29.5972L17.3078 31.1872C17.9703 31.6178 18.8316 31.535 19.3947 30.9884L21.5313 28.8519L23.6678 30.9884C24.2309 31.5516 25.1088 31.6344 25.7547 31.1872L28.1563 29.5972V38.0938C28.1563 41.7541 25.1916 44.7188 21.5313 44.7188C17.8709 44.7188 14.9063 41.7541 14.9063 38.0938ZM19.875 96.0625V99.2756C12.4384 98.4475 6.625 92.1206 6.625 84.4688C6.625 76.8169 12.4384 70.49 19.875 69.6619V72.875C16.2147 72.875 13.25 75.8397 13.25 79.5C13.25 83.1603 16.2147 86.125 19.875 86.125H21.5313C23.3531 86.125 24.8438 87.6156 24.8438 89.4375C24.8438 91.2594 23.3531 92.75 21.5313 92.75H14.9063V96.0625H19.875ZM34.6653 91.4913C30.4584 94.9694 27.0466 97.7022 25.3572 98.8616C24.645 99.0603 23.9163 99.1928 23.1709 99.2591V95.8306C26.0197 95.0853 28.1397 92.5181 28.1397 89.4375C28.1397 85.7772 25.175 82.8125 21.5147 82.8125H19.8584C18.0366 82.8125 16.5459 81.3219 16.5459 79.5C16.5459 77.6781 18.0366 76.1875 19.8584 76.1875H26.4834V72.875H23.1709V69.6619C30.6075 70.49 36.4209 76.8169 36.4209 84.4688C36.4209 86.9366 35.8081 89.3547 34.6488 91.4913H34.6653ZM89.4375 6.625C92.1703 6.625 94.4063 8.86094 94.4063 11.5938C94.4063 14.3266 92.1703 16.5625 89.4375 16.5625C86.7047 16.5625 84.4688 14.3266 84.4688 11.5938C84.4688 8.86094 86.7047 6.625 89.4375 6.625ZM81.1563 59.625H74.5313V41.4063C74.5313 40.4953 75.2766 39.75 76.1875 39.75C77.0984 39.75 77.8438 40.4953 77.8438 41.4063V43.0625H81.1563V59.625ZM81.1563 41.4063C81.1563 40.1309 80.6594 38.9716 79.8644 38.0938H81.1563V41.4063ZM99.375 34.7813H96.0625V24.8438H92.75V36.4375C92.75 37.3484 93.4953 38.0938 94.4063 38.0938V59.625H91.0938V43.0625H87.7813V59.625H84.4688V38.0938C85.3797 38.0938 86.125 37.3484 86.125 36.4375V24.8438H82.8125V34.7813H79.5V19.875C79.5 18.9641 80.2453 18.2188 81.1563 18.2188H84.5184C85.8931 19.2456 87.5825 19.875 89.4375 19.875C91.2925 19.875 92.9819 19.2456 94.3566 18.2188H97.7188C98.6297 18.2188 99.375 18.9641 99.375 19.875V34.7813Z" fill="#B38E57"/>
</svg>
