<svg width="106" height="106" viewBox="0 0 106 106" fill="none" xmlns="http://www.w3.org/2000/svg">
<path fill-rule="evenodd" clip-rule="evenodd" d="M68.304 79.8251C65.079 76.9087 61.2678 74.8038 57.1648 73.621C61.5303 70.9602 64.4511 66.1544 64.4511 60.6786C64.4511 52.3272 57.6568 45.5329 49.3053 45.5329C40.9541 45.5329 34.1597 52.3272 34.1597 60.6786C34.1597 66.1542 37.0805 70.9602 41.446 73.6208C37.3431 74.8036 33.5316 76.9085 30.3067 79.8249C25.1301 84.5063 21.8718 90.8903 21.1323 97.8008C21.0822 98.2683 21.2331 98.7347 21.5472 99.0842C21.8613 99.4337 22.3091 99.6332 22.779 99.6332L75.8314 99.633C76.3014 99.633 76.7492 99.4332 77.0632 99.084C77.3773 98.7345 77.5282 98.2679 77.4781 97.8006C76.7388 90.8905 73.4806 84.5065 68.304 79.8251ZM37.4724 60.6789C37.4724 54.1539 42.7807 48.8456 49.3055 48.8456C55.8305 48.8456 61.1388 54.1541 61.1388 60.6789C61.1388 67.2037 55.8305 72.5119 49.3055 72.5119C42.7807 72.5119 37.4724 67.2034 37.4724 60.6789ZM24.6899 96.3212C26.8327 84.5137 37.107 75.8244 49.3055 75.8244C61.5036 75.8244 71.7779 84.5137 73.9209 96.3209L24.6899 96.3212ZM67.1469 60.2505C66.9587 60.9528 67.1609 61.708 67.6746 62.2217C68.0613 62.6082 68.5847 62.8183 69.1195 62.8183C69.2952 62.8183 69.472 62.7958 69.6457 62.7492L77.0773 60.7579C78.5131 61.1884 80.0035 61.4062 81.5157 61.4062C90.0288 61.4062 96.9546 54.4803 96.9546 45.9672C96.9546 37.4541 90.0286 30.5281 81.5157 30.5281C73.0025 30.5281 66.0765 37.4541 66.0765 45.9672C66.0765 49.0555 66.9727 52.0034 68.676 54.5439L67.1469 60.2505ZM81.5157 33.8402C88.2021 33.8402 93.6421 39.2801 93.6421 45.9668C93.6421 52.6535 88.2021 58.0933 81.5157 58.0933C80.1911 58.0933 78.8886 57.8812 77.6448 57.4626C77.3359 57.3587 77.003 57.3481 76.6881 57.4324L70.9169 58.9787L72.0771 54.6495C72.2086 54.1588 72.1075 53.6348 71.8028 53.228C70.224 51.12 69.3892 48.6089 69.3892 45.9668C69.3892 39.2801 74.829 33.8402 81.5157 33.8402ZM28.9651 62.749C29.1388 62.7955 29.3156 62.8181 29.4914 62.8181C30.0262 62.8181 30.5497 62.608 30.9363 62.2214C31.4499 61.708 31.6522 60.9526 31.464 60.2503L29.9349 54.5437C31.6381 52.0032 32.5343 49.0553 32.5343 45.967C32.5343 37.4539 25.6083 30.5279 17.0952 30.5279C8.58207 30.5279 1.65625 37.4537 1.65625 45.9668C1.65625 54.4799 8.58227 61.4058 17.0954 61.4058C18.6076 61.4058 20.098 61.188 21.5337 60.7575L28.9651 62.749ZM20.9663 57.4628C19.7224 57.8812 18.42 58.0935 17.0954 58.0935C10.4087 58.0935 4.96875 52.6535 4.96875 45.9668C4.96875 39.2801 10.4087 33.8402 17.0954 33.8402C23.7821 33.8402 29.222 39.2801 29.222 45.9668C29.222 48.6091 28.3875 51.1202 26.8085 53.228C26.5037 53.6348 26.4027 54.1588 26.5342 54.6495L27.6944 58.9787L21.9232 57.4324C21.7826 57.3947 21.6385 57.3761 21.4946 57.3761C21.3157 57.3763 21.1373 57.4051 20.9663 57.4628ZM45.032 36.6448L48.1617 42.0657C48.5248 42.6951 49.2016 43.0864 49.9277 43.0866H49.9285C50.6543 43.0866 51.3311 42.6959 51.6955 42.0659L55.1374 36.104C60.9086 33.748 64.7443 28.0791 64.7443 21.8056C64.7443 13.2925 57.8182 6.3667 49.3051 6.3667C40.792 6.3667 33.8662 13.2925 33.8662 21.8056C33.8664 28.7528 38.4213 34.7536 45.032 36.6448ZM49.3053 9.67899C55.992 9.67899 61.432 15.1187 61.432 21.8054C61.432 26.8963 58.2172 31.48 53.4321 33.2118C53.065 33.3447 52.7565 33.6031 52.5613 33.941L49.9285 38.5011L47.5547 34.3896C47.3265 33.9946 46.9456 33.7112 46.5017 33.606C41.0125 32.3075 37.1787 27.4549 37.1787 21.8054C37.1789 15.1187 42.6186 9.67899 49.3053 9.67899ZM103.283 74.6516L101.64 74.0193C101.375 73.1517 101.027 72.3126 100.6 71.5107L101.315 69.9015C101.593 69.2754 101.457 68.5427 100.973 68.0581L98.1713 65.2567C97.6869 64.7723 96.9542 64.6367 96.3279 64.9143L94.7176 65.6294C93.9158 65.2025 93.0771 64.8549 92.2101 64.5899L91.5776 62.9469C91.3316 62.3076 90.7172 61.8856 90.0319 61.8856H86.0703C85.3853 61.8856 84.7708 62.3076 84.5246 62.9469L83.8922 64.5899C83.0251 64.8549 82.1864 65.2027 81.3846 65.6294L79.7743 64.9143C79.1483 64.6358 78.4154 64.7723 77.9309 65.2569L75.1296 68.0583C74.6451 68.5427 74.5089 69.2754 74.7869 69.9015L75.502 71.5114C75.0751 72.3132 74.7273 73.1521 74.4623 74.0191L72.8195 74.6516C72.1802 74.8976 71.7583 75.512 71.7583 76.1973V80.1591C71.7583 80.8443 72.1802 81.4586 72.8195 81.7047L74.4619 82.337C74.7271 83.2047 75.0749 84.0438 75.5018 84.8456L74.7869 86.4549C74.5087 87.0809 74.6449 87.8136 75.1294 88.2983L77.9307 91.0994C78.4152 91.5837 79.1476 91.7197 79.7741 91.4418L81.3844 90.7268C82.1862 91.1536 83.0247 91.5013 83.892 91.7663L84.5244 93.4095C84.7704 94.0488 85.3849 94.4707 86.0701 94.4707H90.0317C90.7169 94.4707 91.3312 94.0488 91.5774 93.4095L92.2096 91.7669C93.0773 91.5019 93.9164 91.1541 94.7182 90.7272L96.3277 91.4418C96.954 91.7203 97.6867 91.5839 98.1711 91.0994L100.972 88.2983C101.457 87.8136 101.593 87.0809 101.315 86.4549L100.6 84.8448C101.027 84.043 101.374 83.2043 101.639 82.3372L103.282 81.7047C103.922 81.4588 104.344 80.8443 104.344 80.1591V76.1973C104.344 75.512 103.922 74.8978 103.283 74.6516ZM101.031 79.0216L99.6671 79.5467C99.1574 79.7427 98.7773 80.1777 98.6508 80.7089C98.3841 81.8298 97.9415 82.8972 97.3353 83.8817C97.049 84.3467 97.0103 84.923 97.232 85.4222L97.826 86.7598L96.6329 87.9527L95.2961 87.3592C94.7969 87.1375 94.2203 87.1762 93.7553 87.4627C92.7711 88.0687 91.7035 88.5113 90.5818 88.7782C90.0505 88.9047 89.6155 89.2848 89.4195 89.7945L88.8947 91.1582H87.2076L86.6823 89.7939C86.4863 89.2842 86.0513 88.9041 85.5201 88.7778C84.3992 88.5109 83.3317 88.0683 82.3475 87.4623C81.8825 87.176 81.3061 87.1375 80.8068 87.359L79.4692 87.9529L78.276 86.76L78.8698 85.4232C79.0915 84.9241 79.0528 84.3477 78.7663 83.8825C78.1603 82.8985 77.7177 81.8306 77.4506 80.7087C77.3241 80.1777 76.944 79.7427 76.4343 79.5467L75.0708 79.0218V77.3347L76.4347 76.8097C76.9444 76.6136 77.3247 76.1787 77.451 75.6474C77.7177 74.5266 78.1603 73.4591 78.7665 72.4745C79.0528 72.0095 79.0915 71.4331 78.87 70.9339L78.276 69.5965L79.4692 68.4034L80.8066 68.9974C81.3057 69.2191 81.8821 69.1806 82.3469 68.8941C83.3319 68.2877 84.3996 67.8452 85.5198 67.5786C86.0511 67.4523 86.4859 67.0722 86.6821 66.5625L87.2074 65.1984H88.8947L89.4197 66.5625C89.6158 67.0722 90.0507 67.4523 90.582 67.5786C91.7024 67.8452 92.7699 68.2879 93.7549 68.8941C94.2197 69.1804 94.7963 69.2189 95.2952 68.9974L96.6327 68.4034L97.8258 69.5965L97.232 70.9333C97.0103 71.4325 97.049 72.0089 97.3355 72.4741C97.9417 73.4583 98.3841 74.5259 98.651 75.6474C98.7773 76.1787 99.1576 76.6136 99.6673 76.8097L101.031 77.3345V79.0216ZM88.051 68.8564C82.911 68.8564 78.7294 73.038 78.7294 78.178C78.7294 83.3179 82.911 87.4998 88.051 87.4998C93.191 87.4998 97.3728 83.3179 97.3728 78.178C97.3728 73.038 93.191 68.8564 88.051 68.8564ZM88.051 84.1875C84.7375 84.1875 82.0419 81.4917 82.0419 78.1782C82.0419 74.8646 84.7377 72.1691 88.051 72.1691C91.3643 72.1691 94.0603 74.8648 94.0603 78.1782C94.0603 81.4915 91.3645 84.1875 88.051 84.1875ZM15.5164 49.576L15.117 38.5168C15.1011 38.0721 15.2497 37.6833 15.5588 37.363C15.8677 37.0425 16.2509 36.88 16.6958 36.88H17.4946C17.9397 36.88 18.3227 37.0427 18.6316 37.363C18.9405 37.6833 19.0893 38.0721 19.0734 38.5168L18.6742 49.576C18.6436 50.4256 17.9455 51.0987 17.0954 51.0987C16.2451 51.0987 15.547 50.4256 15.5164 49.576ZM19.1193 54.4429C19.1193 55.5606 18.2132 56.4668 17.0954 56.4668C15.9776 56.4668 15.0715 55.5606 15.0715 54.4429C15.0715 53.3251 15.9776 52.4189 17.0954 52.4189C18.2132 52.4189 19.1193 53.3251 19.1193 54.4429ZM47.7265 24.7082L47.3271 13.649C47.3112 13.2043 47.4598 12.8155 47.7689 12.4952C48.0778 12.175 48.461 12.0122 48.906 12.0122H49.7047C50.1498 12.0122 50.5328 12.175 50.8417 12.4952C51.1506 12.8155 51.2994 13.2043 51.2835 13.649L50.8841 24.7082C50.8535 25.5579 50.1554 26.2311 49.3053 26.2311C48.4552 26.2309 47.7571 25.5579 47.7265 24.7082ZM47.2814 29.5751C47.2814 28.4573 48.1876 27.5512 49.3053 27.5512C50.4231 27.5512 51.3293 28.4573 51.3293 29.5751C51.3293 30.6929 50.4231 31.599 49.3053 31.599C48.1876 31.599 47.2814 30.6929 47.2814 29.5751ZM79.9368 48.8694L79.5375 37.8102C79.5215 37.3655 79.6702 36.9767 79.9793 36.6564C80.2882 36.3361 80.6714 36.1734 81.1163 36.1734H81.915C82.3601 36.1734 82.7431 36.3361 83.052 36.6564C83.3609 36.9767 83.5098 37.3655 83.4938 37.8102L83.0945 48.8694C83.0638 49.719 82.3657 50.3923 81.5157 50.3923C80.6656 50.3923 79.9675 49.719 79.9368 48.8694ZM79.4917 53.7363C79.4917 52.6185 80.3979 51.7123 81.5157 51.7123C82.6334 51.7123 83.5396 52.6185 83.5396 53.7363C83.5396 54.854 82.6334 55.7602 81.5157 55.7602C80.3979 55.7604 79.4917 54.8542 79.4917 53.7363Z" fill="#B38E57"/>
</svg>
