<svg width="88" height="100" viewBox="0 0 88 100" fill="none" xmlns="http://www.w3.org/2000/svg">
<path d="M12.0903 35.3443H16.6408C17.7215 35.3443 18.678 34.8184 19.2784 34.0089C21.3322 38.781 25.2368 42.6359 30.2697 44.5675V45.2383C30.2697 47.1036 31.7872 48.6212 33.6547 48.6212H39.3025C41.1264 48.6212 42.6129 47.1699 42.6792 45.3625C58.2003 45.0996 61.5086 39.8617 61.5086 35.4498V35.3443H62.5417C64.3533 35.3443 65.8252 33.8702 65.8252 32.0607V23.0259C65.8252 21.2144 64.3512 19.7424 62.5417 19.7424H61.1401C59.134 8.2977 49.1634 0.105469 37.0231 0.105469C25.4686 0.105469 15.5477 8.47367 13.5064 19.7424H12.0903C10.2788 19.7424 8.80677 21.2164 8.80677 23.0259V32.0607C8.80677 33.8723 10.2808 35.3443 12.0903 35.3443ZM20.1624 26.2349C20.1624 16.7756 27.8578 9.08027 37.317 9.08027C46.7763 9.08027 54.4696 16.7756 54.4696 26.2349C54.4696 33.7667 49.6789 40.2695 42.6481 42.5448C42.4142 40.9072 41.0043 39.6422 39.3025 39.6422H33.6547C32.164 39.6422 30.897 40.6132 30.4477 41.9548C24.2368 39.2489 20.1624 33.1166 20.1624 26.2349ZM40.2031 45.2383C40.2031 45.7352 39.7994 46.1368 39.3025 46.1368H33.6547C33.1578 46.1368 32.7541 45.7331 32.7541 45.2383V43.0272C32.7541 42.5303 33.1578 42.1266 33.6547 42.1266H39.3025C39.7994 42.1266 40.2031 42.5303 40.2031 43.0272V45.2383ZM59.0243 35.4498C59.0243 39.8762 54.07 41.785 48.3021 42.5075C49.917 41.4165 51.3745 40.0873 52.6104 38.5553C53.7326 37.1641 54.6476 35.6279 55.3474 34.0006C55.9457 34.8143 56.9063 35.3443 57.9912 35.3443H59.0243V35.4498ZM63.3429 23.0259V32.0607C63.3429 32.4934 62.9765 32.8599 62.5438 32.8599H57.9933C57.5606 32.8599 57.1941 32.4934 57.1941 32.0607V23.0259C57.1941 22.5932 57.5606 22.2268 57.9933 22.2268H62.5438C62.9765 22.2268 63.3429 22.5932 63.3429 23.0259ZM37.0231 2.58984C47.7825 2.58984 56.6372 9.72207 58.6081 19.7424H57.9912C57.2686 19.7424 56.6041 19.9784 56.0617 20.3759C53.5628 12.4011 46.1055 6.60004 37.317 6.60004C28.5286 6.60004 21.0713 12.4031 18.5724 20.3759C18.03 19.9805 17.3634 19.7424 16.6429 19.7424H16.0425C18.0466 9.86906 26.8226 2.58984 37.0231 2.58984ZM11.2911 23.0259C11.2911 22.5932 11.6576 22.2268 12.0903 22.2268H16.6408C17.0735 22.2268 17.44 22.5932 17.44 23.0259V32.0607C17.44 32.4934 17.0735 32.8599 16.6408 32.8599H12.0903C11.6576 32.8599 11.2911 32.4934 11.2911 32.0607V23.0259ZM72.5993 63.8939C70.1667 57.331 64.2829 52.4761 57.072 51.1428C50.4987 49.9275 21.9677 49.9338 16.0487 51.4803C7.10911 53.8156 0.865051 61.5875 0.865051 70.3822V93.0397C0.865051 93.725 1.42197 94.2819 2.10724 94.2819H55.8215C59.134 97.7393 63.7943 99.8945 68.9473 99.8945C78.9738 99.8945 87.1308 91.7375 87.1308 81.711C87.1329 72.9329 80.8826 65.5894 72.5993 63.8939ZM32.81 57.126L30.7935 64.6475L21.593 53.2566C24.1188 53.0661 27.2843 52.9274 30.69 52.8425L32.81 57.126ZM35.0852 58.2378H39.5488L44.1698 75.4814L37.317 83.303L30.4643 75.4814L35.0852 58.2378ZM41.822 57.126L43.9627 52.797C47.4409 52.8591 50.6333 52.9854 53.1011 53.1779L43.8365 64.6475L41.822 57.126ZM41.2092 52.7618L39.729 55.7534H34.901L33.4352 52.7887C36.0086 52.7494 38.6524 52.7411 41.2092 52.7618ZM16.4462 91.7975V74.9017C16.4462 74.2164 15.8893 73.6595 15.204 73.6595C14.5188 73.6595 13.9618 74.2164 13.9618 74.9017V91.7975H3.3515V70.3822C3.3515 62.7179 8.83161 55.9356 16.6781 53.8839C17.1501 53.7618 17.8126 53.6479 18.6325 53.5444L30.0006 67.6184L27.8951 75.4793C27.7874 75.8789 27.8868 76.3075 28.1601 76.6201L36.3833 86.0089C36.6193 86.2781 36.961 86.4334 37.317 86.4334C37.6752 86.4334 38.0147 86.2781 38.2508 86.0089L46.474 76.6201C46.7473 76.3075 46.8467 75.881 46.739 75.4793L44.6335 67.6184L56.043 53.4926C56.248 53.5237 56.4426 53.5547 56.6206 53.5878C62.5127 54.6768 67.3904 58.42 69.763 63.5461C69.4938 63.5336 69.2206 63.5274 68.9493 63.5274C58.9228 63.5274 50.7658 71.6845 50.7658 81.711C50.7658 85.4396 51.8941 88.9095 53.8278 91.7975H16.4462ZM68.9493 97.4102C60.2934 97.4102 53.2502 90.367 53.2502 81.711C53.2502 73.055 60.2934 66.0118 68.9493 66.0118C77.6053 66.0118 84.6485 73.055 84.6485 81.711C84.6485 90.367 77.6053 97.4102 68.9493 97.4102ZM79.6736 74.5622C80.158 75.0466 80.158 75.8334 79.6736 76.3178L67.1316 88.8598C66.8894 89.102 66.5706 89.2241 66.2538 89.2241C65.937 89.2241 65.6182 89.102 65.376 88.8598L58.2251 81.7089C57.7407 81.2245 57.7407 80.4377 58.2251 79.9533C58.7096 79.4688 59.4963 79.4688 59.9808 79.9533L66.2538 86.2263L77.9179 74.5622C78.4024 74.0757 79.1891 74.0757 79.6736 74.5622Z" fill="#B38E57"/>
</svg>
