<svg width="106" height="106" viewBox="0 0 106 106" fill="none" xmlns="http://www.w3.org/2000/svg">
<path d="M50.6255 24.0368C50.6191 26.6272 50.6043 28.9759 50.6043 29.0204C50.6 29.7221 51.166 30.2966 51.8677 30.3008C52.5905 30.3008 53.1438 29.7242 53.148 29.0374C53.1502 28.7003 53.201 20.768 53.148 18.0419C53.0717 14.1542 50.087 12.1191 47.1786 12.1191C44.0286 12.1191 41.2834 14.3746 41.2092 18.0419C41.1541 20.768 41.2071 28.7003 41.2092 29.0374C41.2135 29.7369 41.7816 30.3008 42.4811 30.3008C43.1807 30.3008 43.7573 29.7242 43.753 29.0204C43.753 28.9759 43.7382 26.6272 43.7318 24.0368H50.6276H50.6255ZM43.7509 18.0928C43.7975 15.7228 45.5061 14.6629 47.1765 14.6629C49.0441 14.6629 50.5598 15.9009 50.6043 18.0928C50.6191 18.875 50.6255 20.1215 50.6276 21.493H43.7276C43.7276 20.1193 43.7361 18.875 43.7509 18.0928Z" fill="#B38E57"/>
<path d="M35.3607 12.0957H25.9656C25.264 12.0957 24.6938 12.6659 24.6938 13.3676C24.6938 14.0693 25.264 14.6395 25.9656 14.6395H29.3913V29.0267C29.3913 29.7283 29.9615 30.2986 30.6632 30.2986C31.3648 30.2986 31.935 29.7283 31.935 29.0267V14.6395H35.3607C36.0623 14.6395 36.6326 14.0693 36.6326 13.3676C36.6326 12.6659 36.0623 12.0957 35.3607 12.0957Z" fill="#B38E57"/>
<path d="M58.9542 30.1183C59.5605 30.4808 60.3406 30.2815 60.6988 29.6816L64.3068 23.6698L67.9147 29.6816C68.2751 30.2837 69.0573 30.4808 69.6593 30.1183C70.2613 29.7579 70.4564 28.9757 70.096 28.3737L65.7906 21.1981L70.096 14.0225C70.4585 13.4205 70.2613 12.6383 69.6593 12.2779C69.0573 11.9154 68.2751 12.1126 67.9147 12.7146L64.3068 18.7264L60.6988 12.7146C60.3364 12.1126 59.5563 11.9176 58.9542 12.2779C58.3522 12.6383 58.1572 13.4205 58.5176 14.0225L62.8229 21.1981L58.5176 28.3737C58.1551 28.9757 58.3522 29.7579 58.9542 30.1183Z" fill="#B38E57"/>
<path d="M7.63134 72.9217H9.10249V90.2067H3.96194C1.63226 90.2067 -0.129309 92.3095 0.260738 94.6138C1.39272 101.312 5.89097 105.991 11.2032 105.991H90.4102C97.6324 105.991 103.96 100.895 105.457 93.874C107.53 84.144 103.574 73.9731 95.2307 68.2878C95.1225 68.2136 95.0187 68.133 94.9169 68.0525C96.9202 66.8887 97.7363 64.5399 96.8544 62.3184C96.4199 61.2267 95.6313 60.3003 94.6774 59.7343C95.4214 58.7401 96.0065 57.623 96.4262 56.3977C97.9165 52.3086 96.2418 46.5639 91.8156 46.0106C89.9672 45.7796 88.8945 46.6974 88.1144 47.3652C87.4297 47.9524 87.0079 48.3021 86.1303 48.2258V15.7842H102.029C104.359 15.7842 106.12 13.6813 105.73 11.3771C104.598 4.67844 100.1 0 94.7876 0H20.3057C14.1286 0 9.10249 6.50996 9.10249 14.5123V40.7005H7.63134C3.4235 40.7005 0 44.124 0 48.3318V65.2904C0 69.4982 3.4235 72.9217 7.63134 72.9217ZM11.2032 103.447C7.22222 103.447 3.67576 99.553 2.76848 94.1898C2.64341 93.45 3.19244 92.7505 3.96194 92.7505H56.9298C56.9976 93.1617 57.074 93.5687 57.163 93.9757C58.0279 97.9525 60.4593 101.304 63.7238 103.449H11.2032V103.447ZM102.968 93.344C101.722 99.199 96.4411 103.447 90.4102 103.447H72.1861C66.1828 103.447 60.9108 99.235 59.6495 93.4331C57.7502 84.6909 61.2775 75.546 68.8326 70.3928C69.371 70.026 69.8564 69.5936 70.291 69.1145C77.863 71.2937 85.5897 71.0881 92.2756 69.0509C92.7271 69.5554 93.2338 70.0048 93.7977 70.3885C101.321 75.5163 104.816 84.6612 102.968 93.344ZM61.074 59.7343C60.2897 59.2383 60.0544 58.2017 60.5505 57.4174C61.0423 56.6394 62.0746 56.402 62.8547 56.8874L67.3339 59.8954C66.4478 60.4975 65.7016 61.4281 65.3137 62.5834C59.6389 58.774 61.4387 59.9654 61.0719 59.7364L61.074 59.7343ZM65.4091 65.886C65.8118 66.8378 66.5474 67.6497 67.5607 68.1712C66.9756 68.6015 62.7678 71.7304 62.7678 71.7304C60.8939 72.9005 59.0899 70.2232 60.9172 68.9258L65.4091 65.886ZM93.4839 65.939C93.4352 65.9602 88.3073 68.1267 81.2462 68.1267C74.1851 68.1267 68.9937 66.0302 68.7711 65.9369C66.1425 64.6523 68.4743 60.9532 70.2465 61.799C70.2868 61.8181 75.0373 63.6411 81.2462 63.6411C87.4552 63.6411 91.9767 61.8139 92.0213 61.7927C92.9837 61.3305 94.0881 62.2463 94.4908 63.2553C94.936 64.3767 94.5354 65.4303 93.4839 65.9369V65.939ZM86.3465 50.7802C88.036 50.7802 89.0387 49.9238 89.77 49.2963C90.4801 48.688 90.796 48.4442 91.5019 48.5332C94.2089 48.9423 94.9318 52.9233 94.0245 55.5604C93.556 56.9849 92.7695 58.1466 91.8135 59.2044C90.0731 59.6644 87.7456 60.9787 81.2462 61.0974C74.9165 60.8409 71.9508 59.976 70.5941 58.9691C69.6932 58.0067 69.0255 56.8408 68.5655 55.5328C67.6688 52.9891 68.4574 48.8618 71.0987 48.5311C71.8067 48.4421 72.1204 48.6858 72.8306 49.2942C73.5619 49.9196 74.5624 50.7781 76.2541 50.7781C77.9457 50.7781 78.9568 49.9005 79.6436 49.2582C80.2202 48.7197 80.5382 48.423 81.3013 48.423C82.0645 48.423 82.3782 48.7197 82.9569 49.2582C83.6437 49.8984 84.5849 50.7781 86.3486 50.7781L86.3465 50.7802ZM94.7897 2.54378C98.7708 2.54378 102.317 6.43788 103.224 11.801C103.35 12.543 102.796 13.2404 102.031 13.2404H86.1812C86.6412 7.23705 90.3275 2.54378 94.7919 2.54378H94.7897ZM11.6463 14.5123C11.6463 7.91328 15.5298 2.54378 20.3057 2.54378H88.4621C85.5198 5.16175 83.5865 9.54978 83.5865 14.5123V46.5109C83.0142 46.1569 82.2849 45.8813 81.2971 45.8813C79.5334 45.8813 78.5943 46.7589 77.9075 47.4012C77.3309 47.9397 77.0129 48.2364 76.2519 48.2364C75.5354 48.2364 75.1517 47.9375 74.484 47.3652C73.7018 46.6953 72.6334 45.7796 70.7828 46.0106C66.5135 46.5448 64.8113 51.9016 66.0238 55.9504L64.2559 54.7633C62.4583 53.5381 59.7089 53.9854 58.3988 56.0586C57.1651 58.0109 57.7205 60.614 59.6962 61.8753L63.2596 64.2686L59.4948 66.8145C57.5552 68.1034 57.0273 70.7319 58.3162 72.6694C58.9415 73.6128 59.9124 74.2763 61.1058 74.4861C57.9176 79.0098 56.3023 84.5171 56.6436 90.2067H11.6463V72.9217H45.3641C49.5719 72.9217 52.9954 69.4982 52.9954 65.2904V48.3318C52.9954 44.124 49.5719 40.7005 45.3641 40.7005H11.6463V14.5123ZM2.54378 48.3318C2.54378 45.5273 4.82682 43.2443 7.63134 43.2443H45.3641C48.1686 43.2443 50.4516 45.5273 50.4516 48.3318V65.2904C50.4516 68.0949 48.1686 70.3779 45.3641 70.3779H7.63134C4.82682 70.3779 2.54378 68.0949 2.54378 65.2904V48.3318Z" fill="#B38E57"/>
<path d="M7.94719 63.1217C9.37383 63.2912 10.5397 64.366 10.7178 65.6739C10.8365 66.5536 11.6166 67.2171 12.5302 67.2171H40.48C41.3831 67.2171 42.1568 66.5494 42.2819 65.6654C42.4621 64.3681 43.6216 63.2976 45.0376 63.1238C45.9513 63.0114 46.6402 62.2525 46.6402 61.358V52.2661C46.6402 51.3673 45.9576 50.6084 45.0525 50.5003C43.6258 50.3307 42.4599 49.2559 42.2819 47.948C42.1632 47.0683 41.3831 46.4048 40.4694 46.4048H12.5175C11.6145 46.4048 10.8407 47.0725 10.7157 47.9565C10.5355 49.2538 9.37595 50.3243 7.95991 50.4982C7.04627 50.6105 6.35733 51.3694 6.35733 52.264V61.3559C6.35733 62.2547 7.03991 63.0135 7.94507 63.1217H7.94719ZM8.90323 52.9084C10.9595 52.4272 12.579 50.8988 13.1047 48.9464H39.8907C40.4164 50.9009 42.0338 52.4293 44.0922 52.9084V60.7093C42.036 61.1905 40.4164 62.7189 39.8907 64.6712H13.1047C12.579 62.7168 10.9616 61.1884 8.90323 60.7093V52.9084Z" fill="#B38E57"/>
</svg>
