<svg width="31" height="31" viewBox="0 0 31 31" fill="none" xmlns="http://www.w3.org/2000/svg">
<path d="M26.2917 3.16659H23.2083V1.62492C23.2083 1.21604 23.0459 0.823914 22.7568 0.534796C22.4677 0.245677 22.0755 0.083252 21.6667 0.083252C21.2578 0.083252 20.8657 0.245677 20.5765 0.534796C20.2874 0.823914 20.125 1.21604 20.125 1.62492V3.16659H10.875V1.62492C10.875 1.21604 10.7126 0.823914 10.4235 0.534796C10.1343 0.245677 9.7422 0.083252 9.33333 0.083252C8.92445 0.083252 8.53232 0.245677 8.24321 0.534796C7.95409 0.823914 7.79166 1.21604 7.79166 1.62492V3.16659H4.70833C3.4817 3.16659 2.30532 3.65386 1.43796 4.52122C0.570604 5.38857 0.0833282 6.56496 0.0833282 7.79159V26.2916C0.0833282 27.5182 0.570604 28.6946 1.43796 29.562C2.30532 30.4293 3.4817 30.9166 4.70833 30.9166H26.2917C27.5183 30.9166 28.6947 30.4293 29.562 29.562C30.4294 28.6946 30.9167 27.5182 30.9167 26.2916V7.79159C30.9167 6.56496 30.4294 5.38857 29.562 4.52122C28.6947 3.65386 27.5183 3.16659 26.2917 3.16659ZM27.8333 26.2916C27.8333 26.7005 27.6709 27.0926 27.3818 27.3817C27.0927 27.6708 26.7005 27.8333 26.2917 27.8333H4.70833C4.29945 27.8333 3.90732 27.6708 3.61821 27.3817C3.32909 27.0926 3.16666 26.7005 3.16666 26.2916V15.4999H27.8333V26.2916ZM27.8333 12.4166H3.16666V7.79159C3.16666 7.38271 3.32909 6.99058 3.61821 6.70146C3.90732 6.41234 4.29945 6.24992 4.70833 6.24992H7.79166V7.79159C7.79166 8.20046 7.95409 8.59259 8.24321 8.88171C8.53232 9.17083 8.92445 9.33325 9.33333 9.33325C9.7422 9.33325 10.1343 9.17083 10.4235 8.88171C10.7126 8.59259 10.875 8.20046 10.875 7.79159V6.24992H20.125V7.79159C20.125 8.20046 20.2874 8.59259 20.5765 8.88171C20.8657 9.17083 21.2578 9.33325 21.6667 9.33325C22.0755 9.33325 22.4677 9.17083 22.7568 8.88171C23.0459 8.59259 23.2083 8.20046 23.2083 7.79159V6.24992H26.2917C26.7005 6.24992 27.0927 6.41234 27.3818 6.70146C27.6709 6.99058 27.8333 7.38271 27.8333 7.79159V12.4166Z" fill="#B38E57"/>
</svg>
