<svg width="34" height="34" viewBox="0 0 34 34" fill="none" xmlns="http://www.w3.org/2000/svg">
<path d="M31.2581 9.8983H30.7097V10.9951H31.2581C31.4774 10.9951 31.6419 11.0499 31.8064 11.1047L17 23.4435L2.24841 11.0499C2.41292 10.9951 2.57743 10.9403 2.74194 10.9403H9.87099V9.84351H2.74194C1.20643 9.84344 0 11.0499 0 12.5854V29.037C0 30.5725 1.20643 31.779 2.74194 31.779H31.2581C32.7936 31.779 34 30.5725 34 29.037V12.5854C34 11.1047 32.7936 9.8983 31.2581 9.8983ZM1.09678 29.0919V12.6402C1.09678 12.3112 1.20643 12.037 1.371 11.7628L11.1323 19.9338L1.26129 29.8048C1.15164 29.5854 1.09678 29.366 1.09678 29.0919ZM31.2581 30.737H2.74194C2.46778 30.737 2.24841 30.6821 2.02904 30.5725L11.9548 20.6467L17 24.8693L22.0451 20.6467L31.9709 30.5725C31.7516 30.6822 31.5323 30.737 31.2581 30.737ZM32.9032 29.0919C32.9032 29.366 32.8484 29.5854 32.7387 29.8048L22.9226 19.9338L32.6839 11.8177C32.8484 12.0371 32.9032 12.3661 32.9032 12.6402V29.0919Z" fill="#B38E57"/>
<path d="M17.5484 27.4458H16.4516V28.5426H17.5484V27.4458Z" fill="#B38E57"/>
<path d="M15.3548 27.4458H14.258V28.5426H15.3548V27.4458Z" fill="#B38E57"/>
<path d="M19.742 27.4458H18.6452V28.5426H19.742V27.4458Z" fill="#B38E57"/>
<path d="M26.3776 2.22021H14.313C12.1743 2.22021 10.4743 3.92024 10.4743 6.05893V9.34926C10.4194 11.3234 11.9001 12.9138 13.7646 13.188L14.4775 17.0816L18.3711 13.188H26.3776C28.5163 13.188 30.2163 11.488 30.2163 9.34926V6.05893C30.2163 3.92024 28.5163 2.22021 26.3776 2.22021ZM29.0646 9.34926C29.0646 10.8848 27.8582 12.0912 26.3227 12.0912H17.8776L15.1905 14.7783L14.697 12.0912H14.2582C12.7776 12.0912 11.5711 10.8299 11.5711 9.34926V6.05893H11.5163C11.5163 4.52342 12.7227 3.31699 14.2582 3.31699H26.3228C27.8583 3.31699 29.0647 4.52342 29.0647 6.05893L29.0646 9.34926Z" fill="#B38E57"/>
<path d="M25.9389 5.51172H14.5872V6.60849H25.9389V5.51172Z" fill="#B38E57"/>
<path d="M20.8388 8.80103H19.742V9.8978H20.8388V8.80103Z" fill="#B38E57"/>
<path d="M18.6452 8.80103H17.5484V9.8978H18.6452V8.80103Z" fill="#B38E57"/>
<path d="M23.0324 8.80103H21.9356V9.8978H23.0324V8.80103Z" fill="#B38E57"/>
</svg>
