<svg width="37" height="37" viewBox="0 0 37 37" fill="none" xmlns="http://www.w3.org/2000/svg">
<g clip-path="url(#clip0_1_302)">
<path d="M32.8889 6.16675H4.11111C3.56595 6.16675 3.04311 6.38331 2.65762 6.76881C2.27212 7.1543 2.05556 7.67714 2.05556 8.2223V28.7779C2.05556 29.323 2.27212 29.8459 2.65762 30.2314C3.04311 30.6168 3.56595 30.8334 4.11111 30.8334H19.5278L20.1136 30.114L21.0694 28.9423L20.9769 28.7779H4.11111V8.2223H32.8889V17.0201C33.6697 17.5255 34.3638 18.1537 34.9444 18.8804V8.2223C34.9444 7.67714 34.7279 7.1543 34.3424 6.76881C33.9569 6.38331 33.4341 6.16675 32.8889 6.16675Z" fill="#B38E57"/>
<path d="M7.19444 12.3333H24.6667V13.9777H7.19444V12.3333Z" fill="#B38E57"/>
<path d="M7.19444 16.4443H18.5V18.0888H7.19444V16.4443Z" fill="#B38E57"/>
<path d="M7.19444 23.6389H17.4722V25.2834H7.19444V23.6389Z" fill="#B38E57"/>
<path d="M28.2228 17.7087C26.9076 17.6983 25.6198 18.0848 24.5277 18.8179C23.4357 19.5509 22.5902 20.5963 22.1017 21.8175C21.6133 23.0387 21.5045 24.3788 21.7898 25.6628C22.075 26.9467 22.741 28.1148 23.7006 29.0143L21.7067 31.4501L22.6317 35.1604L26.3933 30.5765C27.5841 30.9286 28.8512 30.9286 30.0419 30.5765L33.8036 35.1604L34.7286 31.4501L32.7347 29.0143C33.6943 28.1148 34.3603 26.9467 34.6455 25.6628C34.9307 24.3788 34.822 23.0387 34.3335 21.8175C33.8451 20.5963 32.9996 19.5509 31.9075 18.8179C30.8155 18.0848 29.5277 17.6983 28.2125 17.7087H28.2228ZM28.2228 28.6854C27.3494 28.6732 26.4991 28.4031 25.7788 27.909C25.0585 27.415 24.5003 26.719 24.1745 25.9085C23.8486 25.0981 23.7697 24.2094 23.9475 23.3543C24.1253 22.4991 24.552 21.7156 25.1739 21.1022C25.7958 20.4889 26.5851 20.0731 27.4427 19.9071C28.3002 19.7411 29.1877 19.8323 29.9936 20.1693C30.7994 20.5064 31.4876 21.0741 31.9717 21.8012C32.4558 22.5282 32.7141 23.3822 32.7142 24.2556C32.7033 25.4378 32.2247 26.5676 31.3829 27.3977C30.5412 28.2279 29.405 28.6909 28.2228 28.6854Z" fill="#B38E57"/>
</g>
<defs>
<clipPath id="clip0_1_302">
<rect width="37" height="37" fill="white"/>
</clipPath>
</defs>
</svg>
