<svg width="37" height="37" viewBox="0 0 37 37" fill="none" xmlns="http://www.w3.org/2000/svg">
<path d="M18.5 20.0415C21.0543 20.0415 23.125 17.9708 23.125 15.4165C23.125 12.8622 21.0543 10.7915 18.5 10.7915C15.9457 10.7915 13.875 12.8622 13.875 15.4165C13.875 17.9708 15.9457 20.0415 18.5 20.0415Z" stroke="#B38E57" stroke-width="2" stroke-linecap="round" stroke-linejoin="round"/>
<path d="M18.5 3.08325C15.229 3.08325 12.092 4.38265 9.77902 6.6956C7.46607 9.00855 6.16667 12.1456 6.16667 15.4166C6.16667 18.3334 6.78642 20.242 8.47917 22.3541L18.5 33.9166L28.5208 22.3541C30.2136 20.242 30.8333 18.3334 30.8333 15.4166C30.8333 12.1456 29.5339 9.00855 27.221 6.6956C24.908 4.38265 21.771 3.08325 18.5 3.08325Z" stroke="#B38E57" stroke-width="2" stroke-linecap="round" stroke-linejoin="round"/>
</svg>
