<svg width="35" height="35" viewBox="0 0 35 35" fill="none" xmlns="http://www.w3.org/2000/svg">
<g clip-path="url(#clip0_43_238)">
<path d="M34.7665 16.8466C31.5854 12.9709 24.8505 8.448 17.5 8.448C10.1232 8.448 3.38803 13.0016 0.233574 16.8466C-0.0778579 17.2261 -0.0778579 17.7728 0.233574 18.1524C3.49008 22.1218 10.2408 26.551 17.5 26.551C25.0173 26.551 31.7235 21.8599 34.7665 18.1525C35.0779 17.7728 35.0779 17.2261 34.7665 16.8466ZM24.4927 17.4995C24.4927 21.3552 21.3558 24.4922 17.5 24.4922C13.6441 24.4922 10.5072 21.355 10.5072 17.4995C10.5072 13.6437 13.6441 10.5068 17.5 10.5068C21.3561 10.5068 24.4927 13.6441 24.4927 17.4995ZM2.41998 17.4998C3.57861 16.2955 6.3723 13.6967 10.294 12.0287C7.8329 15.2626 7.83194 19.7337 10.2929 22.9687C7.31106 21.705 4.54111 19.7083 2.41998 17.4998ZM24.7061 22.9703C27.1672 19.7363 27.1681 15.2652 24.7072 12.0302C27.6889 13.294 30.4589 15.2907 32.5801 17.4991C31.4215 18.7035 28.6278 21.3022 24.7061 22.9703Z" fill="#B38E57"/>
<path d="M13.9999 17.5005C13.9999 19.4304 15.5699 21.0005 17.4999 21.0005C19.4298 21.0005 20.9999 19.4304 20.9999 17.5005C20.9999 15.5705 19.4298 14.0005 17.4999 14.0005C15.5699 14.0005 13.9999 15.5705 13.9999 17.5005ZM18.9411 17.5005C18.9411 18.2952 18.2945 18.9417 17.4999 18.9417C16.7052 18.9417 16.0587 18.2952 16.0587 17.5005C16.0587 16.7058 16.7052 16.0593 17.4999 16.0593C18.2945 16.0593 18.9411 16.7058 18.9411 17.5005Z" fill="#B38E57"/>
<path d="M17.5 4.46078C18.0685 4.46078 18.5294 3.99988 18.5294 3.43137V1.02941C18.5294 0.460902 18.0685 0 17.5 0C16.9315 0 16.4706 0.460902 16.4706 1.02941V3.43137C16.4706 3.99988 16.9315 4.46078 17.5 4.46078Z" fill="#B38E57"/>
<path d="M23.6421 5.83849C24.1357 6.12 24.7645 5.94836 25.0463 5.45424L26.4162 3.05228C26.6979 2.55844 26.526 1.92981 26.0321 1.64809C25.5381 1.36645 24.9096 1.53836 24.6279 2.03234L23.2579 4.4343C22.9763 4.92808 23.1483 5.55677 23.6421 5.83849Z" fill="#B38E57"/>
<path d="M9.95375 5.45423C10.2354 5.94807 10.864 6.12005 11.3579 5.83841C11.8518 5.55676 12.0238 4.92806 11.7421 4.43422L10.3722 2.03226C10.0905 1.53842 9.46176 1.36644 8.96799 1.64808C8.47415 1.92973 8.30217 2.55843 8.58381 3.05227L9.95375 5.45423Z" fill="#B38E57"/>
<path d="M17.5 30.5393C16.9315 30.5393 16.4706 31.0002 16.4706 31.5687V33.9707C16.4706 34.5392 16.9315 35.0001 17.5 35.0001C18.0685 35.0001 18.5294 34.5392 18.5294 33.9707V31.5687C18.5294 31.0002 18.0685 30.5393 17.5 30.5393Z" fill="#B38E57"/>
<path d="M11.3579 29.1617C10.8641 28.8801 10.2355 29.0521 9.95375 29.5459L8.58381 31.9479C8.30217 32.4417 8.47415 33.0704 8.96799 33.352C9.4619 33.6337 10.0905 33.4616 10.3722 32.9679L11.7421 30.5659C12.0238 30.0721 11.8518 29.4434 11.3579 29.1617Z" fill="#B38E57"/>
<path d="M25.0463 29.5459C24.7647 29.052 24.1358 28.8802 23.6421 29.1617C23.1483 29.4433 22.9763 30.072 23.2579 30.5659L24.6279 32.9678C24.9095 33.4617 25.5381 33.6337 26.0321 33.3521C26.5259 33.0704 26.6979 32.4417 26.4162 31.9479L25.0463 29.5459Z" fill="#B38E57"/>
</g>
<defs>
<clipPath id="clip0_43_238">
<rect width="35" height="35" fill="white"/>
</clipPath>
</defs>
</svg>
