<svg width="29" height="29" viewBox="0 0 29 29" fill="none" xmlns="http://www.w3.org/2000/svg">
<path d="M14.5 14.5001C16.5011 14.4979 18.1228 12.8763 18.125 10.8751C18.125 8.87307 16.502 7.25011 14.5 7.25011C12.498 7.25011 10.875 8.87307 10.875 10.8751C10.875 12.8771 12.498 14.5001 14.5 14.5001ZM14.5 8.45844C15.834 8.46013 16.915 9.5411 16.9167 10.8751C16.9167 12.2098 15.8347 13.2918 14.5 13.2918C13.1653 13.2918 12.0833 12.2098 12.0833 10.8751C12.0833 9.54044 13.1653 8.45844 14.5 8.45844ZM23.5625 25.3751H5.43749C5.10384 25.3751 4.83332 25.6456 4.83332 25.9793C4.83332 26.3129 5.10384 26.5834 5.43749 26.5834H23.5625C23.8961 26.5834 24.1667 26.3129 24.1667 25.9793C24.1667 25.6456 23.8961 25.3751 23.5625 25.3751ZM14.0728 22.4097C14.186 22.5232 14.3397 22.587 14.5 22.5867C14.6603 22.587 14.814 22.5232 14.9272 22.4097L20.4815 16.8578C20.4817 16.8576 20.4819 16.8561 20.4821 16.8559C23.7852 13.5518 23.7844 8.19552 20.4803 4.89237C17.1761 1.58921 11.8198 1.59003 8.51666 4.89414C5.21351 8.19832 5.21432 13.5546 8.5185 16.8578L14.0728 22.4097ZM14.5 3.62865C16.4254 3.62695 18.2723 4.3916 19.633 5.75385C22.4611 8.58522 22.4584 13.173 19.6271 16.0011L14.5 21.1282L9.37283 16.0023C8.01044 14.6415 7.24557 12.7944 7.24726 10.8688C7.25073 6.86675 10.4979 3.62518 14.5 3.62865Z" fill="#B38E57"/>
</svg>
