<svg width="233" height="112" viewBox="0 0 233 112" fill="none" xmlns="http://www.w3.org/2000/svg">
<path d="M211.126 111.526C211.126 105.018 211.126 98.656 211.126 92.5176C211.042 92.3118 211.054 92.336 211.06 92.3602C211.496 93.6981 211.496 93.6981 212.948 93.6981C218.106 93.6981 223.264 93.6799 228.416 93.7163C229.221 93.7223 229.602 93.4923 229.741 92.7053C229.856 92.0333 230.074 91.3796 230.286 90.7258C230.474 90.1507 230.322 89.9267 229.699 89.9085C227.798 89.848 227.822 89.8238 227.35 87.8866C226.418 84.0547 225.461 80.2348 224.523 76.4089C223.7 73.031 222.882 69.6531 222.096 66.2691C222.029 65.9725 222.132 65.6093 222.229 65.3005C222.428 64.6709 222.683 64.0595 222.991 63.2483C223.119 63.2483 223.494 63.2302 223.869 63.2544C224.45 63.2968 224.802 63.1878 224.771 62.4674C224.747 61.8136 224.632 61.4867 223.863 61.4383C221.072 61.2749 218.294 61.0206 215.509 60.8148C214.389 60.73 213.263 60.6816 212.137 60.6332C211.145 60.5908 211.017 60.4879 211.017 59.5496C211.017 48.0477 211.017 36.5518 211.017 25.05C211.017 24.8139 211.042 24.5717 211.066 24.2085C212.059 24.7594 212.961 25.2497 213.857 25.7643C217.21 27.6772 220.564 29.6023 223.918 31.5213C226.654 33.0892 229.39 34.645 232.114 36.231C232.326 36.3521 232.453 36.6729 232.544 36.9332C232.611 37.1269 232.556 37.3691 232.556 37.5931C232.556 59.1016 232.55 80.6102 232.574 102.119C232.574 103.039 232.302 103.444 231.424 103.771C226.878 105.454 222.362 107.228 217.84 108.965C215.673 109.789 213.505 110.618 211.126 111.526Z" fill="#B38E57"/>
<path d="M184.079 108.529C184.048 109.577 184.067 110.624 184.067 111.829C181.76 110.4 179.569 109.05 177.389 107.694C172.922 104.915 168.466 102.125 163.987 99.3703C163.315 98.9587 163 98.5168 163 97.6753C163.024 78.7032 163.024 59.7251 163.006 40.753C163.006 39.9782 163.266 39.512 163.872 39.0399C165.04 38.1318 166.099 37.0906 167.213 36.1099C169.278 34.3059 171.354 32.5201 173.418 30.7101C174.986 29.3359 176.53 27.9315 178.092 26.5512C180.247 24.6504 182.414 22.7677 184.72 20.7397C184.72 21.1938 184.72 21.4601 184.72 21.7204C184.72 34.2696 184.72 46.8188 184.72 59.3679C184.72 60.4576 184.714 60.4031 183.649 60.4758C181.112 60.6574 178.576 60.9116 176.04 61.1114C174.296 61.2446 172.541 61.3354 170.755 61.4504C170.712 61.747 170.67 61.9529 170.664 62.1647C170.628 63.2423 170.634 63.2907 171.741 63.2302C172.547 63.1878 172.946 63.3876 172.825 64.2653C172.801 64.459 172.861 64.7617 173.001 64.8768C173.727 65.464 173.43 66.1541 173.267 66.8381C171.53 73.9088 169.792 80.9734 168.061 88.044C167.619 89.8601 167.637 89.8661 165.736 89.9267C165.549 89.9327 165.361 89.969 165.076 89.9993C165.367 91.0708 165.621 92.0999 165.948 93.1109C166.009 93.2985 166.348 93.5104 166.56 93.5104C172.323 93.5286 178.086 93.5165 183.849 93.5104C183.927 93.5104 184.006 93.462 184.109 93.4317C184.291 92.8203 184.478 92.1968 184.726 91.3856C184.726 96.737 184.733 101.883 184.708 107.028" fill="#B38E57"/>
<path d="M213.293 20.5097C211.871 19.0387 210.448 17.5676 208.838 15.9029C208.784 16.5082 208.729 16.8654 208.729 17.2165C208.723 31.2246 208.723 45.2388 208.723 59.2469C208.723 60.3062 208.681 60.3668 207.682 60.282C205.908 60.1367 204.14 59.9551 202.367 59.7917C202.24 59.7796 202.118 59.7311 201.949 59.6888C202.058 59.3134 202.149 58.9865 202.276 58.5446C201.78 58.5204 201.38 58.4538 200.986 58.4841C200.321 58.5386 200.042 58.3267 200.078 57.6124C200.133 56.5409 200.127 55.4573 200.072 54.3858C200.054 54.0407 199.885 53.6412 199.655 53.387C199.195 52.8784 198.632 52.4729 198.141 51.9946C197.851 51.7161 197.621 51.6435 197.306 51.9583C197.118 52.152 196.876 52.2912 196.652 52.4547C195.635 53.2174 195.096 54.1618 195.302 55.4936C195.405 56.1656 195.29 56.8738 195.326 57.5579C195.357 58.139 195.133 58.363 194.558 58.3146C194.128 58.2783 193.698 58.3085 193.135 58.3085C193.304 58.8594 193.425 59.265 193.565 59.7372C191.289 59.8946 189.061 60.052 186.754 60.2154C186.754 40.1598 186.754 20.1283 186.754 0C188.219 0.835401 189.66 1.65869 191.101 2.49409C194.473 4.43731 197.839 6.38658 201.204 8.32979C204.903 10.4728 208.578 12.6581 212.319 14.7224C213.336 15.2794 213.626 15.921 213.536 16.9925C213.445 18.1064 213.517 19.2324 213.517 20.3523C213.451 20.4068 213.372 20.4613 213.293 20.5097ZM206.429 12.3797C204.964 12.0891 204.831 12.186 204.231 13.6328C203.789 14.7043 203.263 15.7334 202.736 16.8654C202.167 15.6365 201.634 14.5529 201.156 13.4512C200.617 12.2041 200.278 12.0407 198.959 12.4463C199.067 12.7368 199.255 13.0274 199.267 13.3301C199.31 14.1534 199.455 15.0312 199.237 15.8C198.965 16.7685 199.709 18.064 198.383 18.7784C199.14 18.7784 199.903 18.7784 200.66 18.7784C200.732 18.7057 200.805 18.627 200.878 18.5544C199.655 18.4999 199.891 17.725 199.921 17.1015C199.951 16.3206 200.054 15.5397 200.133 14.7043C200.629 15.7758 201.083 16.817 201.592 17.834C201.779 18.2154 202.088 18.5362 202.349 18.8813C202.633 18.5059 202.912 18.1367 203.19 17.7613C203.22 17.719 203.208 17.6524 203.232 17.604C203.662 16.6777 204.098 15.7576 204.528 14.8314C204.734 15.9513 204.806 17.0349 204.837 18.1185C204.837 18.2154 204.57 18.3364 204.419 18.4212C204.28 18.4999 204.122 18.5483 203.971 18.6089C203.983 18.6633 203.995 18.7239 204.013 18.7784C205.048 18.7784 206.084 18.7784 207.119 18.7784C206.265 18.4333 206.283 17.6887 206.223 17.047C206.12 15.9816 206.053 14.9101 206.059 13.8446C206.072 13.3846 206.289 12.9184 206.429 12.3797ZM195.363 18.7784C194.588 18.2093 194.6 18.2033 194.243 17.1984C193.74 15.7758 193.195 14.3713 192.717 12.9427C192.542 12.416 192.239 12.2949 191.737 12.2949C191.252 12.2949 190.986 12.4402 190.835 12.9245C190.429 14.1776 189.975 15.4065 189.539 16.6475C189.267 17.4163 189.236 18.3364 188.116 18.6089C189.006 19.0266 190.477 18.9781 190.931 18.5665C190.592 18.3183 189.721 18.5302 190.023 17.7492C190.235 17.2044 190.072 16.3327 191.01 16.2479C192.281 16.1329 192.36 16.2722 192.869 17.5253C193.256 18.4696 192.427 18.3425 191.827 18.7784C193.183 18.7784 194.273 18.7784 195.363 18.7784ZM195.859 18.0217C195.859 18.1488 195.859 18.2759 195.859 18.397C196.144 18.6149 196.404 18.966 196.707 19.0144C197.233 19.0992 197.639 18.7178 197.56 18.1972C197.518 17.9127 197.094 17.5071 196.816 17.4889C196.513 17.4708 196.18 17.8279 195.859 18.0217Z" fill="#B38E57"/>
<path d="M208.729 85.6044C208.729 92.6629 208.717 99.7154 208.747 106.774C208.747 107.549 208.572 107.876 207.742 107.809C206.919 107.742 206.09 107.779 205.26 107.797C204.788 107.809 204.546 107.676 204.552 107.149C204.57 105.654 204.473 105.69 205.854 105.781C206.671 105.836 206.544 105.285 206.544 104.8C206.544 104.316 206.677 103.777 205.854 103.814C204.782 103.856 203.705 103.789 202.627 103.838C202.022 103.862 201.695 103.68 201.616 103.069C201.447 101.768 201.259 100.472 201.083 99.1705C200.835 97.3545 200.569 95.5444 200.339 93.7283C200.175 92.451 199.951 91.1737 199.945 89.8964C199.909 81.7664 199.927 73.6303 199.927 65.5003C199.927 65.2521 199.909 65.0039 199.933 64.7557C200.042 63.7084 200.381 63.4118 201.453 63.4118C203.547 63.4118 205.642 63.4481 207.736 63.3936C208.566 63.3694 208.741 63.66 208.735 64.4348C208.717 71.4873 208.729 78.5458 208.729 85.6044Z" fill="#B38E57"/>
<path d="M186.688 85.4349C186.688 78.3764 186.7 71.3178 186.67 64.2533C186.664 63.4663 186.875 63.206 187.687 63.2241C189.727 63.2786 191.767 63.2423 193.807 63.2423C194.927 63.2423 195.242 63.545 195.32 64.6831C195.338 64.9313 195.326 65.1795 195.326 65.4277C195.326 73.4003 195.381 81.3669 195.296 89.3395C195.272 91.658 194.897 93.9705 194.612 96.283C194.34 98.5047 193.958 100.714 193.692 102.942C193.613 103.614 193.383 103.856 192.717 103.832C191.7 103.796 190.677 103.856 189.654 103.814C189.025 103.79 188.794 104.026 188.867 104.631C188.891 104.819 188.891 105.018 188.867 105.212C188.801 105.805 189.073 105.969 189.636 105.963C190.611 105.951 191.016 106.556 190.659 107.476C190.598 107.628 190.338 107.779 190.169 107.785C189.206 107.815 188.238 107.791 187.275 107.803C186.773 107.815 186.688 107.531 186.694 107.119C186.706 106.017 186.7 104.915 186.7 103.808C186.688 97.6814 186.688 91.5551 186.688 85.4349Z" fill="#B38E57"/>
<path d="M219.686 66.1722C220.14 66.1722 220.546 66.1722 221.036 66.1722C221.436 67.7341 221.847 69.3141 222.229 70.8941C223.221 74.9561 224.202 79.0241 225.189 83.0921C225.679 85.114 226.151 87.136 226.666 89.1518C226.781 89.6119 226.817 89.9267 226.224 89.9267C222.18 89.9267 218.13 89.9267 213.911 89.9267C215.854 81.9359 217.773 74.042 219.686 66.1722Z" fill="#B38E57"/>
<path d="M168.46 89.8359C170.391 81.9056 172.298 74.0722 174.211 66.2086C174.635 66.1904 175.059 66.1662 175.586 66.142C177.498 73.9996 179.417 81.8875 181.355 89.8359C177.038 89.8359 172.801 89.8359 168.46 89.8359Z" fill="#B38E57"/>
<path d="M184.733 76.5844C184.733 80.6646 184.739 84.7447 184.72 88.8309C184.72 89.2244 185.017 89.8237 184.236 89.9266C182.941 90.0961 182.577 89.9508 182.366 89.1094C180.495 81.5121 178.624 73.9087 176.784 66.3054C176.705 65.9785 176.893 65.5729 176.996 65.2097C177.117 64.7678 177.365 64.344 177.402 63.9021C177.444 63.3936 177.632 63.2422 178.11 63.2422C180.041 63.2604 181.972 63.2725 183.903 63.2362C184.569 63.2241 184.751 63.4481 184.745 64.0958C184.72 68.2546 184.733 72.4195 184.733 76.5844Z" fill="#B38E57"/>
<path d="M211.017 76.5724C211.017 72.4922 211.036 68.4181 211.005 64.338C210.999 63.6237 211.193 63.3755 211.931 63.3936C213.748 63.4421 215.57 63.4239 217.386 63.3997C217.931 63.3936 218.209 63.5268 218.179 64.1382C218.167 64.4227 218.227 64.792 218.403 64.9857C219.014 65.6516 218.778 66.3296 218.597 67.0561C217.023 73.4547 215.455 79.8534 213.893 86.2521C213.645 87.2631 213.427 88.274 213.191 89.285C212.942 90.3565 212.083 89.8238 211.484 89.8843C210.872 89.9448 211.017 89.4 211.017 89.0428C211.011 84.8961 211.017 80.7312 211.017 76.5724Z" fill="#B38E57"/>
<path d="M174.968 63.4117C175.023 63.4117 175.083 63.3996 175.131 63.4117C175.513 63.5207 176.167 63.551 176.227 63.7568C176.409 64.3743 175.979 64.8283 175.428 65.1128C174.75 65.4639 173.715 64.8949 173.618 64.12C173.564 63.666 173.685 63.3633 174.229 63.4057C174.472 63.4299 174.72 63.4117 174.968 63.4117Z" fill="#B38E57"/>
<path d="M220.346 63.4117C220.431 63.4117 220.509 63.4057 220.594 63.4117C221.066 63.448 221.726 63.1998 221.635 64.1018C221.575 64.7254 220.879 65.3428 220.267 65.2218C219.965 65.1612 219.595 65.022 219.42 64.798C219.196 64.5014 219.129 64.0837 218.996 63.7205C219.311 63.6175 219.62 63.5086 219.934 63.4238C220.068 63.3814 220.213 63.4117 220.346 63.4117Z" fill="#B38E57"/>
<path d="M191.519 13.8992C191.706 14.4258 191.894 14.9525 192.112 15.5518C191.682 15.5518 191.319 15.5518 190.822 15.5518C191.01 14.9646 191.18 14.4379 191.349 13.9113C191.404 13.9113 191.464 13.9052 191.519 13.8992Z" fill="#B38E57"/>
<path d="M11.2295 53.4346H11.3506C12.2768 54.839 12.7368 55.6321 12.7368 55.8076H12.6702L12.2707 55.5171V55.5715C12.8458 56.758 13.1364 57.4845 13.1364 57.7629V57.884C12.864 59.5367 12.4402 60.481 11.8712 60.7111C13.2514 61.153 13.9415 61.7341 13.9415 62.4424C13.9415 64.313 11.7501 65.8566 7.36726 67.0734C2.98444 68.2842 0.562988 67.1642 0.108965 63.7137C0.036322 63.2294 0 62.9146 0 62.7814C0 61.3164 0.538772 59.7606 1.61632 58.1141H1.6708V58.1806C0.901992 59.7546 0.520612 61.0622 0.520612 62.1034C0.520612 63.8287 1.21072 65.0031 2.59095 65.6145C3.10551 65.8082 3.64428 65.9051 4.20727 65.9051H4.32835C6.62267 65.9051 9.57684 65.0213 13.203 63.2536V63.1991C12.9911 62.739 11.5503 62.1034 8.88067 61.2922C8.61431 61.159 8.48113 61.0622 8.48113 61.0016C8.71723 60.1541 8.9291 59.7364 9.11071 59.7364C9.12887 59.7364 9.58289 59.7364 10.4667 59.7364C11.3506 59.7364 12.0709 59.5064 12.6339 59.0524C11.9378 57.7448 11.3082 56.2253 10.727 54.494C11.0539 53.822 11.2295 53.477 11.2295 53.4346ZM2.27617 68.3023L3.37793 69.2164C3.40214 69.2406 3.41425 69.2648 3.41425 69.2891C3.41425 69.3133 3.40214 69.3375 3.38398 69.3617L2.64544 70.2818C2.62728 70.3182 2.60306 70.3363 2.57279 70.3363C2.55463 70.3363 2.53042 70.3242 2.5062 70.3L1.39234 69.3859C1.36812 69.3617 1.35601 69.3375 1.35601 69.3133C1.35601 69.289 1.36812 69.2648 1.39234 69.2285L2.13088 68.3144C2.15509 68.2841 2.17931 68.266 2.20352 68.266C2.22773 68.266 2.258 68.2842 2.27617 68.3023ZM4.22543 68.3023L5.32719 69.2164C5.35141 69.2406 5.36351 69.2648 5.36351 69.2891C5.36351 69.3133 5.35141 69.3375 5.32719 69.3617L4.5947 70.2818C4.57049 70.3182 4.54628 70.3363 4.52206 70.3363C4.49785 70.3363 4.47363 70.3242 4.44942 70.3L3.34766 69.3859C3.32344 69.3617 3.31134 69.3375 3.31134 69.3133C3.31134 69.289 3.32344 69.2648 3.34766 69.2285L4.0862 68.3144C4.11041 68.2841 4.13463 68.266 4.15884 68.266C4.17701 68.272 4.20122 68.2842 4.22543 68.3023ZM9.24389 50.5712L10.3456 51.4853C10.3699 51.5096 10.382 51.5338 10.382 51.558C10.382 51.5822 10.3699 51.6064 10.3517 51.6306L9.61316 52.5508C9.595 52.5871 9.57079 52.6053 9.54052 52.6053C9.52236 52.6053 9.49814 52.5931 9.47393 52.5689L8.36006 51.6548C8.33584 51.6306 8.32374 51.6064 8.32374 51.5822C8.32374 51.558 8.33584 51.5277 8.36006 51.4974L9.0986 50.5833C9.12282 50.5531 9.14703 50.5349 9.17125 50.5349C9.19546 50.5349 9.22573 50.5531 9.24389 50.5712Z" fill="#B38E57"/>
<path d="M21.6357 61.5525C21.224 60.6082 21.0182 59.803 21.0182 59.125C21.0364 58.3986 21.1635 57.8053 21.3996 57.3332C21.6357 56.861 22.0291 56.6794 22.58 56.7883C23.1309 56.8973 23.5365 57.4482 23.7908 58.4349C24.045 59.4216 24.0813 60.2026 23.8937 60.7716C23.706 61.3407 23.3912 61.8249 22.9432 62.2245C23.367 62.9872 24.275 63.3626 25.6613 63.3384V64.7973C23.9421 64.8336 22.7556 64.1435 22.1018 62.7209C21.6478 62.9388 20.9637 63.181 20.0617 63.4473C19.1537 63.7137 18.0519 64.1011 16.7564 64.6217C15.461 65.1423 14.22 65.9959 13.0516 67.1824C11.738 68.835 10.6725 69.7189 9.86135 69.8218C9.04411 69.9308 8.4327 69.7612 8.01499 69.3193C7.59729 68.8774 7.37331 68.1389 7.33699 67.0916C7.30067 66.0443 7.6881 64.8336 8.49323 63.4473C9.29836 62.061 9.32863 62.1337 8.59009 63.6652C7.8455 65.1968 7.54281 66.3531 7.67599 67.1279C7.80917 67.9028 8.08764 68.375 8.51745 68.5384C8.94725 68.7079 9.4497 68.6474 10.0248 68.3629C10.5938 68.0783 11.2658 67.4851 12.0286 66.5831C12.7913 65.6811 13.6872 64.882 14.7164 64.1919C15.7455 63.5018 17.0591 62.9328 18.6452 62.4787C20.2191 62.0308 21.224 61.722 21.6357 61.5525ZM20.879 55.1296L19.6561 53.9794L20.7155 52.8474L21.9383 53.9855L20.879 55.1296ZM22.3621 61.1712C22.8645 60.9169 23.2338 60.6324 23.4578 60.3115C23.4215 59.6699 23.2157 59.1069 22.8403 58.6347C22.465 58.1625 22.1502 57.9748 21.8839 58.0838C21.6175 58.1928 21.4722 58.447 21.4419 58.8466C21.4117 59.2461 21.7204 60.021 22.3621 61.1712ZM22.8827 55.1296L21.6599 53.9794L22.7193 52.8474L23.9421 53.9855L22.8827 55.1296Z" fill="#B38E57"/>
<path d="M25.2012 47.6171L25.855 46.1945C27.3563 50.2443 27.5561 51.3521 26.4483 49.524C26.4483 49.5663 26.7449 51.5943 27.3321 55.5957C27.8709 59.3187 28.0646 61.5162 27.9072 62.1881C27.8467 62.8177 27.6469 63.3807 27.314 63.8771C26.9265 64.4583 26.3393 64.767 25.5645 64.7973V63.3383C26.2182 63.2596 26.7752 63.0296 27.2231 62.6543L25.2012 47.6171Z" fill="#B38E57"/>
<path d="M31.2549 49.1607C31.388 49.7358 31.5939 51.5458 31.8723 54.5908C32.1508 57.6358 32.29 59.809 32.29 61.1227C32.29 62.4363 31.9995 63.5865 31.4183 64.5854C30.8372 65.5842 30.704 65.6266 31.0188 64.7064C31.3336 63.7863 31.4909 62.6966 31.4909 61.4435C31.4909 60.1904 31.043 55.4928 30.141 47.3507L30.7524 46.2368C32.284 50.3896 32.4535 51.3642 31.2549 49.1607Z" fill="#B38E57"/>
<path d="M41.9456 68.611C40.9649 68.8169 40.1234 68.9137 39.4091 68.9016C38.4526 68.8834 37.6354 68.6292 36.9574 68.1328C36.2794 67.6364 35.8072 66.8676 35.5529 65.8264C35.2987 64.7851 35.2866 63.6834 35.5166 62.5271C35.7467 61.3709 36.1038 60.4629 36.5881 59.803C37.0724 59.1432 37.0845 59.234 36.6365 60.0815C36.1825 60.929 35.9585 62.1518 35.9585 63.756C35.9585 65.3602 36.5215 66.3954 37.6414 66.8615C38.7614 67.3277 40.19 67.4064 41.9153 67.0916C41.9516 67.0855 41.994 67.0795 42.0364 67.0734C43.7193 66.7526 45.4143 66.2199 47.1275 65.4874C48.877 64.7307 49.7548 64.1132 49.7548 63.6289C49.6821 63.3202 49.3673 62.7209 48.8164 61.831C48.2656 60.9411 47.8902 60.1844 47.7026 59.5488C47.5149 58.9192 47.2546 58.332 46.9277 57.7872L47.527 56.4735C49.4339 58.9918 49.7911 59.8151 48.5864 58.9555C48.5622 59.2158 48.8286 59.7909 49.3915 60.6687C49.9485 61.5525 50.2027 62.3576 50.1422 63.0962C50.0817 63.8347 49.8819 64.4764 49.5429 65.0273C49.2039 65.5782 48.3866 66.1775 47.0851 66.8192C45.7836 67.4608 44.4215 67.9754 42.9989 68.3568C42.6175 68.4536 42.2725 68.5384 41.9456 68.611ZM42.7931 63.3565L41.5703 62.2063L42.6296 61.0743L43.8525 62.2124L42.7931 63.3565Z" fill="#B38E57"/>
<path d="M52.9995 62.0005C52.7089 58.901 52.4971 56.0982 52.3639 53.5859C52.2307 51.0797 51.9583 49.0941 51.5406 47.6231L51.9583 46.0431C52.1641 46.0371 52.4244 46.9451 52.7392 48.7733C53.054 50.6015 53.2719 52.8777 53.3991 55.6139C53.5262 58.3501 53.6654 60.2692 53.8107 61.3709C53.956 62.4787 54.7551 63.1325 56.2079 63.3323L56.2806 64.7912C54.3918 64.8457 53.2961 63.9134 52.9995 62.0005Z" fill="#B38E57"/>
<path d="M56.099 63.3383C57.9151 63.3262 59.8765 62.6361 61.971 61.274H62.0558C62.0921 61.274 62.1284 61.3164 62.1647 61.3951C62.1284 61.5949 62.0921 61.6978 62.0558 61.6978C62.1647 62.7269 62.758 63.2959 63.8355 63.4049C64.9131 63.5139 65.7969 63.0417 66.4749 61.9944C66.7716 61.6494 66.935 61.4738 66.9592 61.4738H66.9955C67.05 61.4738 67.0803 61.498 67.0803 61.5464V61.5828C66.9532 61.9278 66.8866 62.1276 66.8866 62.1881C66.8866 62.6724 67.1348 63.0114 67.6372 63.1991C68.1336 63.3867 68.5634 63.4231 68.9145 63.308C68.963 63.302 68.9872 63.2778 68.9872 63.2354L68.4666 62.1155L69.1385 61.0682C69.3201 61.0682 69.5017 61.4072 69.6894 62.0913C69.8771 62.7693 69.762 63.4352 69.3443 64.0769C68.9266 64.7185 68.3273 64.9546 67.5464 64.7851C66.7655 64.6156 66.3175 64.089 66.2086 63.2051C65.464 64.2403 64.5438 64.7972 63.436 64.8759C62.3282 64.9546 61.6926 64.21 61.5231 62.6361C60.5363 63.4533 59.6585 64.0103 58.8776 64.313C58.0967 64.6156 57.1705 64.7791 56.093 64.8033V63.3383H56.099ZM64.8465 58.0414L65.9483 58.9555C65.9725 58.9797 65.9846 59.0039 65.9846 59.0281C65.9846 59.0523 65.9785 59.0766 65.9604 59.1008L65.2218 60.0209C65.2037 60.0572 65.1794 60.0754 65.1492 60.0754C65.131 60.0754 65.1068 60.0633 65.0826 60.0391L63.9687 59.125C63.9445 59.1008 63.9324 59.0766 63.9324 59.0523C63.9324 59.0281 63.9445 59.0039 63.9687 58.9676L64.7073 58.0535C64.7315 58.0232 64.7557 58.0051 64.7799 58.0051C64.8041 58.0111 64.8283 58.0232 64.8465 58.0414ZM65.6637 56.1466L66.7655 57.0607C66.7897 57.0849 66.8018 57.1091 66.8018 57.1333C66.8018 57.1576 66.7897 57.1818 66.7776 57.206L66.0391 58.1261C66.0148 58.1625 65.9906 58.1806 65.9664 58.1806C65.9422 58.1806 65.918 58.1685 65.8938 58.1443L64.792 57.2302C64.7678 57.206 64.7557 57.1818 64.7557 57.1576C64.7557 57.1333 64.7678 57.1091 64.792 57.0789L65.5306 56.1648C65.5548 56.1345 65.579 56.1163 65.6032 56.1163C65.6274 56.1163 65.6456 56.1284 65.6637 56.1466ZM66.7958 58.0414L67.8975 58.9555C67.9217 58.9797 67.9339 59.0039 67.9339 59.0281C67.9339 59.0523 67.9217 59.0766 67.8975 59.1008L67.165 60.0209C67.1408 60.0572 67.1166 60.0754 67.0924 60.0754C67.0682 60.0754 67.044 60.0633 67.0198 60.0391L65.918 59.125C65.8938 59.1008 65.8817 59.0766 65.8817 59.0523C65.8817 59.0281 65.8938 59.0039 65.918 58.9676L66.6565 58.0535C66.6808 58.0232 66.705 58.0051 66.7292 58.0051C66.7534 58.0111 66.7716 58.0232 66.7958 58.0414Z" fill="#B38E57"/>
<path d="M79.5265 62.3274C79.5386 61.9158 79.4115 61.6555 79.1391 61.5465C78.8667 61.4436 78.2068 61.377 77.1535 61.3528C76.1002 61.3286 75.6462 60.7777 75.7975 59.7001C75.9488 58.6165 76.4452 58.0051 77.2867 57.8538C78.1342 57.7024 78.8425 58.1504 79.4236 59.1916C80.0048 60.2329 80.2772 61.0743 80.2469 61.716C80.2166 62.3516 80.0653 62.8601 79.7868 63.2415C79.5084 63.6168 78.1402 64.2949 75.6764 65.2634C73.2126 66.2381 71.3904 67.3156 70.21 68.5082C68.8964 70.1608 67.8309 71.0446 67.0197 71.1476C66.2085 71.2505 65.5911 71.087 65.1734 70.6451C64.7557 70.2032 64.5317 69.4646 64.5014 68.4174C64.4712 67.3701 64.8525 66.1594 65.6577 64.7731C66.4628 63.3868 66.5899 63.2536 66.0572 64.3796C65.5184 65.5056 65.1855 66.2865 65.0644 66.7223C64.9373 67.1582 64.907 67.7515 64.9615 68.4961C65.016 69.2407 65.2581 69.6947 65.6879 69.8642C66.1177 70.0337 66.6202 69.9732 67.1953 69.6886C67.7704 69.4041 68.4363 68.8109 69.199 67.9089C69.9618 67.0069 70.8577 66.2138 71.8868 65.5237C73.5395 64.646 74.8773 64.0466 75.9065 63.7258C76.9114 63.4171 78.1221 62.9449 79.5265 62.3274ZM75.9609 53.5799L77.0627 54.494C77.0869 54.5182 77.099 54.5424 77.099 54.5667C77.099 54.5909 77.093 54.6151 77.0748 54.6393L76.3363 55.5595C76.3181 55.5958 76.2939 55.6139 76.2636 55.6139C76.2455 55.6139 76.2212 55.6018 76.197 55.5776L75.0832 54.6635C75.0589 54.6393 75.0468 54.6151 75.0468 54.5909C75.0468 54.5667 75.0589 54.5424 75.0832 54.5122L75.8217 53.5981C75.8459 53.5678 75.8701 53.5497 75.8943 53.5497C75.9186 53.5497 75.9428 53.5618 75.9609 53.5799ZM76.3665 59.573C76.4694 59.7667 77.1232 59.8817 78.3279 59.9181C77.9829 59.5367 77.6136 59.3309 77.2262 59.3127C76.8387 59.2945 76.5542 59.3793 76.3665 59.573ZM78.0494 53.4346L79.1512 54.3487C79.1754 54.3729 79.1875 54.3972 79.1875 54.4214C79.1875 54.4456 79.1815 54.4698 79.1633 54.494L78.4248 55.4142C78.4066 55.4505 78.3824 55.4687 78.3521 55.4687C78.334 55.4687 78.3098 55.4565 78.2855 55.4323L77.1717 54.5182C77.1474 54.494 77.1353 54.4698 77.1353 54.4456C77.1353 54.4214 77.1474 54.3911 77.1717 54.3608L77.9102 53.4467C77.9344 53.4165 77.9586 53.3983 77.9829 53.3983C78.0071 53.3983 78.0313 53.4165 78.0494 53.4346Z" fill="#B38E57"/>
<path d="M94.5517 47.3144L94.5638 47.2418C94.7151 46.8543 94.9391 46.4609 95.2297 46.0674H95.2478C96.3314 49.0942 96.6886 50.3776 96.3254 49.9114C95.9622 49.4453 95.7806 49.2455 95.7866 49.3061C95.7503 49.5724 95.9622 51.7396 96.4283 55.8016C96.8944 59.8636 97.0881 62.17 97.0094 62.7209C96.9307 63.2657 96.7068 64.0466 96.3193 65.0576C95.6655 66.1654 94.3398 67.1401 92.3542 67.9815C90.3686 68.823 88.7705 69.283 87.5597 69.3617C86.3551 69.4344 85.3683 69.1801 84.5995 68.5929C83.8307 68.0057 83.3222 67.2853 83.0619 66.4378C82.8016 65.5903 82.7168 64.6823 82.7955 63.7137C82.8803 62.7451 83.3222 61.6676 84.1213 60.4811H84.1576C84.206 60.4811 84.2302 60.5053 84.2302 60.5477L84.2363 60.6566C84.0123 61.3104 83.7702 61.9339 83.5159 62.5333C83.4009 62.9267 83.3222 63.3929 83.2859 63.9316C83.3161 65.0758 83.7459 66.0746 84.5692 66.9342C85.2593 67.4246 85.9131 67.6909 86.5185 67.7212C86.7546 67.7636 87.0331 67.7939 87.36 67.812L87.6142 67.806C89.4242 67.7636 91.7065 66.9766 94.4548 65.4511C95.5505 64.7428 96.2104 64.1193 96.4343 63.5805C95.4658 55.6079 94.9633 51.1161 94.9149 50.1052C94.8846 49.07 94.7575 48.1498 94.5517 47.3144Z" fill="#B38E57"/>
<path d="M102.44 44.2512C102.458 44.2634 102.464 44.2936 102.464 44.3481C102.464 44.4026 102.452 44.4571 102.427 44.5237C102.403 44.5902 102.379 44.6568 102.355 44.7234C102.331 44.79 102.3 44.8505 102.27 44.905C102.119 45.1411 101.943 45.3409 101.755 45.5043C101.562 45.6678 101.356 45.807 101.138 45.916C100.926 46.0189 100.702 46.0976 100.472 46.146C100.242 46.1945 100.012 46.2308 99.7759 46.2429H99.6488C99.3643 46.2429 99.0798 46.2066 98.7952 46.1339C98.5107 46.0613 98.2625 45.9523 98.0507 45.8131C98.0143 45.7889 97.9841 45.7768 97.9599 45.7768C97.9417 45.7768 97.9296 45.7949 97.9235 45.8252C97.9114 45.8676 97.8812 45.9281 97.8388 46.0068C97.7964 46.0855 97.7419 46.1642 97.6874 46.2368C97.633 46.3095 97.5785 46.3761 97.53 46.4305C97.4756 46.485 97.4392 46.5153 97.409 46.5153C97.3727 46.5153 97.3545 46.4911 97.3545 46.4427C97.3545 46.4305 97.3545 46.4003 97.3605 46.3518C97.3666 46.3034 97.3726 46.2489 97.3848 46.1945C97.3969 46.1158 97.4211 46.0068 97.4635 45.8736C97.5058 45.7344 97.5482 45.5951 97.6027 45.4499C97.6572 45.3046 97.7056 45.1653 97.7601 45.0322C97.8146 44.899 97.863 44.8021 97.8993 44.7295C97.9175 44.6992 97.9477 44.681 97.9841 44.681C98.0204 44.681 98.0628 44.6932 98.1112 44.7174C98.4078 44.8566 98.7287 44.9716 99.0677 45.0564C99.3643 45.1351 99.6609 45.1775 99.9515 45.1775H100.073C100.284 45.1653 100.496 45.1411 100.696 45.1109C100.902 45.0806 101.096 45.0261 101.283 44.9535C101.477 44.8869 101.665 44.8021 101.84 44.6932C102.016 44.5842 102.185 44.4571 102.343 44.2936C102.379 44.2573 102.409 44.2391 102.433 44.2391C102.427 44.2452 102.433 44.2452 102.44 44.2512ZM100.067 49.639C100.2 50.2141 100.406 52.0241 100.684 55.0691C100.962 58.1141 101.102 60.2873 101.102 61.6009C101.102 62.9146 100.811 64.0648 100.23 65.0636C99.6488 66.0625 99.5156 66.1048 99.8304 65.1847C100.145 64.2645 100.303 63.1749 100.303 61.9218C100.303 60.6687 99.8546 55.9711 98.9526 47.8289L99.5641 46.7151C101.096 50.8739 101.265 51.8485 100.067 49.639Z" fill="#B38E57"/>
<path d="M108.227 58.0233C108.675 57.0789 109.105 56.6128 109.504 56.6128C109.553 56.6733 109.516 57.3937 109.389 58.7618C109.262 60.136 109.232 61.0925 109.286 61.6313C109.341 62.17 109.492 62.6362 109.74 63.0297C110.128 63.5624 110.691 63.8227 111.417 63.7985C112.143 63.7743 112.882 63.2657 113.615 62.2669C113.723 62.0308 113.778 61.6676 113.778 61.1712C113.778 60.3237 113.639 59.2946 113.354 58.0778C113.07 56.861 112.882 56.1164 112.791 55.85L113.13 54.6091C113.814 55.7956 114.371 58.1565 114.801 61.6857C115.092 62.503 115.455 62.9994 115.885 63.181C116.199 63.3263 116.448 63.3989 116.635 63.3989H116.775C117.38 63.3989 117.834 63.2294 118.137 62.8904V62.8178C118.137 62.164 117.604 60.6143 116.538 58.1867C116.266 57.4785 115.988 56.631 115.697 55.6321L116.199 54.3185C117.616 57.1758 117.876 58.0415 116.974 56.9094C117.059 57.2545 117.453 58.2897 118.161 60.0089C118.433 60.8261 118.56 61.6555 118.536 62.503C118.512 63.3505 118.306 63.9861 117.907 64.3978C117.507 64.8155 117.047 65.0031 116.52 64.9608C115.994 64.9184 115.509 64.6218 115.073 64.0648C114.638 63.5079 114.329 62.6422 114.153 61.4618C114.099 62.5817 113.723 63.52 113.033 64.2888C112.343 65.0576 111.58 65.4087 110.757 65.3482C109.934 65.2877 109.335 64.5612 108.965 63.1749C108.85 62.6846 108.784 62.2003 108.772 61.7221C108.759 61.2438 108.881 60.0513 109.129 58.1444C108.917 58.3018 108.669 58.6589 108.39 59.2219C108.112 59.7849 107.706 60.8867 107.18 62.5393C106.653 64.192 106.126 65.0455 105.612 65.1061C105.097 65.1666 104.673 64.87 104.34 64.2162C104.007 63.5624 103.802 62.4606 103.723 60.9109C103.638 59.3612 103.656 58.4592 103.771 58.2049C103.886 57.9507 103.953 58.4834 103.977 59.8152C104.001 61.147 104.177 62.2366 104.498 63.0962C104.782 63.5684 105.085 63.8045 105.4 63.7864C105.914 63.7682 106.447 62.9449 106.998 61.3165C107.543 59.6759 107.954 58.5802 108.227 58.0233Z" fill="#B38E57"/>
<path d="M120.824 49.1607C120.958 49.7358 121.163 51.5458 121.442 54.5908C121.72 57.6358 121.86 59.809 121.86 61.1227C121.86 62.4363 121.569 63.5865 120.988 64.5854C120.407 65.5842 120.274 65.6266 120.588 64.7064C120.903 63.7863 121.06 62.6966 121.06 61.4435C121.06 60.1904 120.613 55.4928 119.711 47.3507L120.322 46.2368C121.854 50.3896 122.023 51.3642 120.824 49.1607Z" fill="#B38E57"/>
<path d="M132.351 62.8904C133.41 62.4061 134.058 62.0186 134.3 61.7341H134.336C134.391 61.7462 134.421 61.7765 134.421 61.8128V61.8491C134.409 62.0126 134.372 62.1458 134.318 62.2487C134.433 62.7511 134.596 63.0901 134.802 63.2536C135.48 63.5986 136.758 63.5381 138.622 63.0599C137.98 62.6785 137.363 62.0307 136.77 61.1287C136.37 60.4931 136.17 59.9301 136.17 59.4519V59.3974C136.17 57.9566 136.6 56.9699 137.454 56.4311C138.307 55.8984 139.258 55.6321 140.311 55.6442C141.358 55.6623 142.23 55.8742 142.926 56.2798C143.634 56.6914 144.058 57.091 144.21 57.4724C143.634 56.9881 142.757 56.7762 141.582 56.8549C140.414 56.9215 139.488 57.0849 138.81 57.3452C138.132 57.5995 137.629 57.8295 137.302 58.0293C136.982 58.2291 136.818 58.3622 136.818 58.4228C136.818 59.355 137.496 60.3418 138.858 61.3951C139.712 61.9702 140.402 62.2608 140.941 62.2608C141.467 62.2608 143.677 61.6615 147.563 60.4629L147.6 60.5476V60.5839C147.267 61.5162 146.819 62.0792 146.268 62.2789C140.238 64.1979 136.727 65.0818 135.741 64.9123C134.748 64.7549 134.124 64.1737 133.864 63.1688C131.763 64.6096 130.056 65.2392 128.755 65.0575C127.453 64.882 126.654 64.0708 126.345 62.6301C126.152 61.9763 125.909 61.153 125.625 60.1783C125.486 61.9642 124.808 63.6713 123.603 65.2936C122.392 66.91 121.375 67.8362 120.546 68.0662C119.717 68.2962 119.057 67.9875 118.566 67.1461C118.082 66.2925 117.882 65.2513 117.973 64.0163C118.064 62.7814 118.246 61.831 118.518 61.1651C118.79 60.4931 118.802 60.7292 118.542 61.8552C118.282 62.9812 118.209 63.9255 118.312 64.6641C118.415 65.4026 118.669 65.9414 119.069 66.2864C119.474 66.6254 120.068 66.577 120.849 66.1291C121.63 65.6811 122.471 64.8215 123.385 63.532C124.299 62.2426 124.899 61.044 125.201 59.9362C125.135 58.8707 124.426 56.4311 123.076 52.6052L123.73 51.0252C124.656 53.0835 125.419 55.4141 126.018 58.0293C126.612 60.6384 127.12 62.2487 127.532 62.8601C127.937 63.4715 128.609 63.7379 129.548 63.6531C130.498 63.5926 131.424 63.3323 132.351 62.8904ZM129.735 45.9402C129.402 46.7453 128.773 47.4112 127.847 47.9379L126.412 48.3919V48.4646C127.035 49.3121 127.35 50.0203 127.35 50.5894C127.368 51.11 127.265 51.5761 127.041 51.9757C127.011 51.9757 126.987 51.9696 126.975 51.9514C126.963 51.9333 126.951 51.9091 126.939 51.8849C127.017 51.7517 127.06 51.5882 127.06 51.3945V51.1039C127.041 50.5107 126.672 49.7298 125.946 48.7672V48.737C126.097 48.3132 126.273 48.0771 126.472 48.0348C127.707 47.4294 128.385 47.0177 128.506 46.8059C126.817 46.8301 125.831 47.0056 125.552 47.3325H125.486C125.449 47.3325 125.413 47.2902 125.365 47.2115C125.776 46.1097 126.291 45.5588 126.896 45.5588C127.023 45.5225 127.169 45.5043 127.326 45.5043L128.385 45.4862C129.251 45.462 129.687 45.5588 129.699 45.7767C129.699 45.7828 129.699 45.801 129.705 45.8252C129.711 45.8554 129.723 45.8918 129.735 45.9402ZM142.466 48.9367L126.733 56.3222L127.163 55.0267L143.065 47.7563L142.466 48.9367ZM132.363 57.8658C132.248 58.3138 132.133 58.5499 132.018 58.5681H131.969C131.878 58.453 131.775 58.3259 131.66 58.1927H131.624L131.37 59.1311C131.37 59.3671 131.346 59.573 131.285 59.7425C131.249 60.0088 131.152 60.2207 130.995 60.372L130.91 60.3539C130.892 60.3539 130.71 59.9422 130.365 59.1129C130.208 58.7799 130.086 58.562 130.008 58.4652C129.971 58.6044 129.893 58.6649 129.778 58.6468C129.499 58.4107 129.299 58.1261 129.184 57.7993C129.396 57.0668 129.62 56.7217 129.85 56.758L129.869 56.7762C130.401 57.5874 130.728 58.1927 130.837 58.5983C130.873 58.7012 130.91 58.7921 130.94 58.8647C131.001 59.0403 131.037 59.1311 131.049 59.1311C131.346 57.9022 131.6 57.2423 131.818 57.1515C131.975 57.1757 132.127 57.3271 132.272 57.6055C132.351 57.6661 132.381 57.7508 132.363 57.8658ZM131.449 68.6716L130.226 67.5032L131.303 66.3833L132.514 67.5335L131.449 68.6716ZM139.548 46.5153C139.433 46.9693 139.318 47.2115 139.203 47.2296H139.155C139.064 47.1146 138.961 46.9875 138.846 46.8543H138.81L138.555 47.7926C138.555 48.0287 138.531 48.2345 138.477 48.404C138.44 48.6704 138.344 48.8823 138.186 49.0336L138.101 49.0154C138.083 49.0154 137.902 48.6038 137.557 47.7744C137.399 47.4415 137.278 47.2236 137.199 47.1267C137.163 47.2659 137.084 47.3265 136.969 47.3023C136.691 47.0722 136.491 46.7938 136.376 46.4608C136.588 45.7283 136.812 45.3833 137.042 45.4196L137.06 45.4377C137.593 46.2429 137.92 46.8482 138.029 47.2599C138.065 47.3628 138.101 47.4536 138.132 47.5262C138.192 47.7018 138.229 47.7926 138.241 47.7926C138.537 46.5637 138.792 45.9039 139.01 45.8131C139.167 45.8373 139.318 45.9886 139.464 46.261C139.536 46.3155 139.566 46.4063 139.548 46.5153ZM144.107 67.14V67.1884C144.107 67.2248 144.022 67.3943 143.852 67.6969C143.792 67.8483 143.459 68.0662 142.848 68.3447C142.63 68.4234 142.442 68.4657 142.285 68.4657H142.103C141.637 68.4113 141.401 68.2236 141.401 67.9088C141.401 67.7756 141.491 67.4972 141.673 67.0674C141.77 66.9281 141.909 66.7526 142.085 66.5407C141.861 66.462 141.703 66.3409 141.619 66.1835V66.1472C141.867 65.5358 142.091 65.227 142.285 65.227C142.369 65.1605 142.46 65.1241 142.557 65.1241C142.636 65.1241 142.714 65.215 142.793 65.3966V65.4329C142.751 65.5116 142.672 65.5721 142.557 65.6145C142.49 65.6024 142.436 65.5963 142.4 65.5963C142.2 65.6569 142.085 65.7235 142.061 65.7901C142.163 65.8748 142.309 65.9414 142.49 65.9898C142.666 65.9898 142.884 65.8869 143.138 65.6871H143.187C143.193 65.6871 143.199 65.6932 143.211 65.7053C143.217 65.7174 143.223 65.7295 143.223 65.7537C143.065 66.0504 142.908 66.2501 142.751 66.353C142.212 66.7828 141.849 67.1461 141.673 67.4366V67.4911C141.673 67.6848 141.921 67.812 142.424 67.8664C142.872 67.8664 143.386 67.6788 143.955 67.3035C143.973 67.2792 143.986 67.255 144.004 67.2308C144.046 67.1703 144.076 67.14 144.095 67.14H144.107Z" fill="#B38E57"/>
<path d="M10.0248 91.0216C9.04411 91.2274 8.20266 91.3242 7.48833 91.3121C6.53186 91.294 5.71462 91.0397 5.03661 90.5433C4.3586 90.0469 3.88642 89.2781 3.63217 88.2369C3.37792 87.1957 3.36581 86.0939 3.59585 84.9377C3.82589 83.7814 4.18305 82.8734 4.66734 82.2135C5.15163 81.5537 5.16374 81.6445 4.71577 82.492C4.26175 83.3395 4.03776 84.5623 4.03776 86.1665C4.03776 87.7708 4.60075 88.8059 5.72067 89.272C6.84059 89.7382 8.26925 89.8169 9.99453 89.5021C10.0309 89.496 10.0732 89.49 10.1156 89.4839C11.7985 89.1631 13.4935 88.6304 15.2067 87.8979C16.9562 87.1412 17.834 86.5237 17.834 86.0394C17.7613 85.7307 17.4466 85.1314 16.8957 84.2415C16.3448 83.3516 15.9695 82.5949 15.7818 81.9593C15.5941 81.3297 15.3338 80.7425 15.0069 80.1977L15.6062 78.884C17.5131 81.4023 17.8703 82.2256 16.6656 81.366C16.6414 81.6263 16.9078 82.2014 17.4708 83.0792C18.0277 83.963 18.2819 84.7681 18.2214 85.5067C18.1609 86.2452 17.9611 86.8869 17.6221 87.4378C17.2831 87.9887 16.4659 88.588 15.1643 89.2297C13.8628 89.8714 12.5007 90.3859 11.0781 90.7673C10.7028 90.8641 10.3517 90.9489 10.0248 91.0216ZM10.8723 85.773L9.64948 84.6229L10.7089 83.4908L11.9317 84.6289L10.8723 85.773Z" fill="#B38E57"/>
<path d="M10.9571 92.1535V92.1293C13.4027 91.3666 15.7092 90.5009 17.8824 89.5263C20.0557 88.5516 22.0655 87.4499 23.9058 86.221C25.7461 84.9921 26.6844 84.2535 26.7268 83.9932C26.6178 83.3818 26.2909 83.0913 25.7521 83.1276C25.2134 83.1639 24.7412 83.1942 24.3356 83.2244C23.93 83.2487 23.5486 83.1457 23.1854 82.9157C22.8222 82.6857 22.7011 82.2922 22.8161 81.7534C22.9311 81.2146 23.1672 80.7485 23.5244 80.355C23.8816 79.9615 24.2811 79.7678 24.7291 79.7678C25.177 79.7678 25.7521 80.1492 26.4543 80.9059C27.0476 81.596 27.3806 82.3406 27.4471 83.1336C27.5137 83.9267 27.3806 84.6228 27.0537 85.21C26.7268 85.8033 25.6674 86.6568 23.8755 87.7647C22.0836 88.8725 20.4249 89.8168 18.8934 90.6038C17.3618 91.3847 14.7285 91.9296 10.9934 92.2322L10.9571 92.1535ZM23.5244 81.4507C23.6455 81.6323 23.9724 81.7413 24.5111 81.7776C25.0439 81.814 25.3586 81.8321 25.4494 81.8321H25.4858V81.7958C25.062 81.2933 24.6262 81.0754 24.1842 81.142C23.7423 81.2025 23.5244 81.3054 23.5244 81.4507Z" fill="#B38E57"/>
<path d="M32.3627 79.0596C32.393 79.0536 32.7623 79.5137 33.4766 80.4459L33.2768 81.3055C34.197 82.6676 34.6934 83.612 34.7721 84.1326V84.2052C34.7902 84.8348 34.6086 85.6581 34.2333 86.6872C33.8217 87.2502 33.186 87.8071 32.3385 88.3459C31.5697 88.8907 29.8808 89.7322 27.2656 90.8642C25.7885 91.4454 24.7594 91.7601 24.1843 91.7965C20.8427 92.1173 19.1658 92.2626 19.1658 92.2263C24.0329 90.7613 28.44 88.9997 32.3688 86.9354C33.6643 86.1121 34.2999 85.531 34.2817 85.192C34.2696 84.9619 34.0214 84.514 33.5432 83.8541C33.065 83.1943 32.5141 82.0199 31.8906 80.3309C32.1327 79.5197 32.284 79.096 32.3627 79.0596Z" fill="#B38E57"/>
<path d="M37.3569 84.411C37.0664 81.3115 36.8545 78.5087 36.7213 75.9965C36.5881 73.4903 36.3157 71.5047 35.898 70.0336L36.3157 68.4536C36.5215 68.4476 36.7818 69.3556 37.0966 71.1838C37.4114 73.012 37.6293 75.2882 37.7565 78.0244C37.8836 80.7607 38.0228 82.6797 38.1681 83.7814C38.3134 84.8892 39.1125 85.543 40.5654 85.7428L40.638 87.2017C38.7493 87.2623 37.6536 86.33 37.3569 84.411Z" fill="#B38E57"/>
<path d="M40.529 85.7549C41.9335 85.6278 43.1018 85.1011 44.0401 84.187H44.1612C44.2096 84.187 44.2339 84.2113 44.2339 84.2597C44.2278 85.6096 44.6879 86.2756 45.6201 86.2574C46.5524 86.2392 47.3575 85.8639 48.0355 85.1314C48.7135 84.3989 49.1252 84.0297 49.2644 84.0297C49.3128 84.0297 49.3371 84.0539 49.3371 84.1144V84.187C49.3371 84.2779 49.2462 84.4534 49.0707 84.7077C49.0707 85.3009 49.222 85.6823 49.5247 85.8518C49.8274 86.0213 50.1846 86.0818 50.5902 86.0334C50.9958 85.985 51.5406 85.3493 52.2246 84.1144L52.2973 84.066H52.382C52.4305 84.066 52.4547 84.1083 52.4547 84.187C52.4547 84.2052 52.4426 84.2779 52.4184 84.405C52.5092 84.75 52.83 85.0648 53.3748 85.3372C53.9197 85.6157 54.3495 85.7549 54.6582 85.7549L54.6037 87.2139C53.7441 87.2623 53.0964 87.0746 52.6544 86.6509C52.2125 86.2271 51.9825 85.8942 51.9583 85.646H51.8856C51.3469 86.7962 50.7839 87.3894 50.2148 87.4318C49.6397 87.4681 49.1554 87.2139 48.768 86.663C48.6469 86.439 48.5864 86.2513 48.5864 86.1061V85.876C48.5864 85.7489 48.6106 85.5976 48.6591 85.4281C48.1687 86.3421 47.5512 86.9838 46.8127 87.3592C46.0742 87.7345 45.384 87.795 44.7363 87.5347C44.0886 87.2744 43.7193 86.6267 43.6224 85.5733H43.5498C42.7204 86.4208 41.7095 86.9657 40.5109 87.2139L40.529 85.7549ZM46.734 80.9302L47.8358 81.8443C47.86 81.8685 47.8721 81.8927 47.8721 81.9169C47.8721 81.9412 47.86 81.9654 47.8479 81.9896L47.1093 82.9097C47.0912 82.9461 47.0669 82.9642 47.0367 82.9642C47.0185 82.9642 46.9943 82.9521 46.9701 82.9279L45.8562 82.0138C45.832 81.9896 45.8199 81.9654 45.8199 81.9412C45.8199 81.9169 45.832 81.8927 45.8562 81.8564L46.5948 80.9423C46.619 80.912 46.6432 80.8939 46.6674 80.8939C46.6916 80.8939 46.7158 80.912 46.734 80.9302ZM47.5512 79.0294L48.653 79.9435C48.6772 79.9677 48.6893 79.9919 48.6893 80.0161C48.6893 80.0403 48.6772 80.0645 48.6591 80.0887L47.9205 81.0089C47.8963 81.0452 47.8721 81.0634 47.8479 81.0634C47.8236 81.0634 47.7994 81.0513 47.7752 81.0271L46.6735 80.113C46.6492 80.0888 46.6371 80.0645 46.6371 80.0403C46.6371 80.0161 46.6492 79.9858 46.6735 79.9556L47.412 79.0415C47.4362 79.0112 47.4604 78.993 47.4846 78.993C47.5089 78.993 47.5331 79.0112 47.5512 79.0294ZM48.6833 80.9302L49.785 81.8443C49.8092 81.8685 49.8213 81.8927 49.8213 81.9169C49.8213 81.9412 49.8092 81.9654 49.785 81.9896L49.0525 82.9097C49.0283 82.9461 49.0041 82.9642 48.9799 82.9642C48.9557 82.9642 48.9315 82.9521 48.9072 82.9279L47.8055 82.0138C47.7813 81.9896 47.7692 81.9654 47.7692 81.9412C47.7692 81.9169 47.7813 81.8927 47.8055 81.8564L48.544 80.9423C48.5682 80.912 48.5925 80.8939 48.6167 80.8939C48.6409 80.8999 48.659 80.912 48.6833 80.9302Z" fill="#B38E57"/>
<path d="M56.2988 80.5065L56.9465 78.9265C57.2976 80.5912 57.6064 82.2136 57.8788 83.7875C58.1451 84.8953 59.0048 85.5491 60.4576 85.7489L60.4395 87.2078C58.9805 87.2442 57.9575 86.5056 57.3642 84.9922C56.6681 86.4572 55.7176 87.1957 54.5009 87.2078L54.5735 85.7489C56.0264 85.5491 56.7649 84.8953 56.7891 83.7875C56.7467 82.9219 56.5833 81.8262 56.2988 80.5065ZM55.8084 74.7797L56.9102 75.6938C56.9344 75.718 56.9465 75.7423 56.9465 75.7665C56.9465 75.7907 56.9344 75.8149 56.9223 75.8391L56.1838 76.7593C56.1656 76.7956 56.1414 76.8138 56.1111 76.8138C56.093 76.8138 56.0687 76.8017 56.0445 76.7774L54.9307 75.8633C54.9065 75.8391 54.8943 75.8149 54.8943 75.7907C54.8943 75.7665 54.9065 75.7362 54.9307 75.706L55.6692 74.7918C55.6934 74.7616 55.7176 74.7434 55.7419 74.7434C55.7661 74.7434 55.7903 74.7616 55.8084 74.7797ZM57.7577 74.7797L58.8595 75.6938C58.8837 75.718 58.8958 75.7423 58.8958 75.7665C58.8958 75.7907 58.8837 75.8149 58.8595 75.8391L58.127 76.7593C58.1028 76.7956 58.0785 76.8138 58.0543 76.8138C58.0301 76.8138 58.0059 76.8017 57.9817 76.7774L56.8799 75.8633C56.8557 75.8391 56.8436 75.8149 56.8436 75.7907C56.8436 75.7665 56.8557 75.7362 56.8799 75.706L57.6185 74.7918C57.6427 74.7616 57.6669 74.7434 57.6911 74.7434C57.7153 74.7555 57.7335 74.7616 57.7577 74.7797Z" fill="#B38E57"/>
<path d="M60.3123 85.7549C61.7167 85.6278 62.8851 85.1011 63.8234 84.187H63.9445C63.9929 84.187 64.0171 84.2113 64.0171 84.2597C64.0111 85.6096 64.4711 86.2756 65.4034 86.2574C66.3356 86.2392 67.1408 85.8639 67.8188 85.1314C68.4968 84.3989 68.9084 84.0297 69.0477 84.0297C69.0961 84.0297 69.1203 84.0539 69.1203 84.1144V84.187C69.1203 84.2778 69.0295 84.4534 68.854 84.7077C68.854 85.3009 69.0053 85.6823 69.308 85.8518C69.6107 86.0213 69.9678 86.0818 70.3734 86.0334C70.779 85.985 71.3238 85.3493 72.0079 84.1144L72.0805 84.066H72.1653C72.2137 84.066 72.2379 84.1083 72.2379 84.187C72.2379 84.2052 72.2258 84.2779 72.2016 84.405C72.2924 84.75 72.6133 85.0648 73.1581 85.3372C73.7029 85.6157 74.1327 85.7549 74.4415 85.7549L74.387 87.2139C73.5274 87.2623 72.8796 87.0746 72.4377 86.6509C71.9958 86.2271 71.7657 85.8942 71.7415 85.646H71.6689C71.1301 86.7962 70.5671 87.3894 69.9981 87.4318C69.423 87.4681 68.9387 87.2139 68.5513 86.663C68.4302 86.439 68.3697 86.2513 68.3697 86.1061V85.876C68.3697 85.7489 68.3939 85.5976 68.4423 85.428C67.952 86.3421 67.3345 86.9838 66.5959 87.3592C65.8574 87.7345 65.1673 87.795 64.5196 87.5347C63.8718 87.2744 63.5026 86.6267 63.4057 85.5733H63.333C62.5037 86.4208 61.4927 86.9657 60.2941 87.2139L60.3123 85.7549Z" fill="#B38E57"/>
<path d="M74.3386 87.2139V85.7549C75.6038 85.422 76.3423 84.8772 76.5542 84.1326C76.7661 83.388 76.9416 82.9097 77.0748 82.6978C77.1656 82.7523 77.2322 82.7826 77.2746 82.7826C77.9284 81.9109 78.6185 81.5234 79.351 81.6142C80.0835 81.705 80.5314 82.4557 80.6888 83.8662C80.8462 85.2767 80.4467 85.9305 79.4963 85.8336C78.5398 85.7307 77.6317 85.307 76.7721 84.5503V84.5684C76.4271 86.2695 75.6159 87.1533 74.3386 87.2139ZM77.5591 83.3274C77.8073 83.7936 78.6306 84.1628 80.0229 84.4231V84.3868C79.5931 83.4848 79.1512 83.0248 78.7093 83.0066C78.2674 82.9884 77.8799 83.0913 77.5591 83.3274Z" fill="#B38E57"/>
<path d="M73.9753 92.1535V92.1293C76.421 91.3666 78.7274 90.5009 80.9007 89.5263C83.0739 88.5516 85.0837 87.4499 86.9241 86.221C88.7644 84.9921 89.7027 84.2535 89.745 83.9932C89.6361 83.3818 89.3092 83.0913 88.7704 83.1276C88.2316 83.1639 87.7595 83.1942 87.3539 83.2244C86.9483 83.2547 86.5669 83.1457 86.2037 82.9157C85.8405 82.6796 85.7194 82.2922 85.8344 81.7534C85.9494 81.2146 86.1855 80.7485 86.5427 80.355C86.8998 79.9615 87.2994 79.7678 87.7473 79.7678C88.1953 79.7678 88.7704 80.1492 89.4726 80.9059C90.0659 81.596 90.3988 82.3406 90.4654 83.1336C90.532 83.9267 90.3988 84.6228 90.0719 85.21C89.745 85.8033 88.6857 86.6568 86.8938 87.7647C85.1019 88.8725 83.4432 89.8168 81.9116 90.6038C80.3801 91.3847 77.7468 91.9296 74.0117 92.2322L73.9753 92.1535ZM86.5427 81.4507C86.6638 81.6323 86.9906 81.7413 87.5294 81.7776C88.0621 81.814 88.3769 81.8321 88.4677 81.8321H88.504V81.7958C88.0803 81.2933 87.6444 81.0754 87.2025 81.142C86.7606 81.2025 86.5427 81.3054 86.5427 81.4507Z" fill="#B38E57"/>
<path d="M100.085 91.0216C99.1039 91.2274 98.2625 91.3242 97.5481 91.3121C96.5917 91.294 95.7744 91.0397 95.0964 90.5433C94.4184 90.0469 93.9462 89.2781 93.692 88.2369C93.4377 87.1957 93.4256 86.0939 93.6557 84.9377C93.8857 83.7814 94.2429 82.8734 94.7271 82.2135C95.2114 81.5537 95.2235 81.6445 94.7756 82.492C94.3216 83.3395 94.0976 84.5623 94.0976 86.1665C94.0976 87.7708 94.6606 88.8059 95.7805 89.272C96.9004 89.7382 98.3291 89.8169 100.054 89.5021C100.091 89.496 100.127 89.49 100.175 89.4839C101.858 89.1631 103.553 88.6304 105.267 87.8979C107.016 87.1412 107.894 86.5237 107.894 86.0394C107.821 85.7307 107.506 85.1314 106.955 84.2415C106.405 83.3516 106.029 82.5949 105.842 81.9593C105.654 81.3297 105.394 80.7425 105.067 80.1977L105.666 78.884C107.573 81.4023 107.93 82.2256 106.725 81.366C106.701 81.6263 106.968 82.2014 107.531 83.0792C108.094 83.957 108.342 84.7681 108.281 85.5067C108.221 86.2452 108.021 86.8869 107.682 87.4378C107.343 87.9887 106.526 88.588 105.224 89.2297C103.923 89.8714 102.561 90.3859 101.138 90.7673C100.757 90.8641 100.412 90.9489 100.085 91.0216ZM100.932 85.773L99.7093 84.6229L100.769 83.4908L101.992 84.6289L100.932 85.773Z" fill="#B38E57"/>
<path d="M116.127 87.2139L115.406 87.2502C115.382 88.5699 114.801 89.6656 113.657 90.5313C112.053 91.748 110.679 92.6258 109.534 93.1585C108.384 93.7155 107.519 94 106.943 94C105.418 94 104.552 93.328 104.346 91.9841C104.141 90.6402 104.316 89.26 104.873 87.8435C105.424 86.4269 105.618 86.0697 105.448 86.778C105.279 87.4802 105.079 88.3399 104.849 89.3448C104.619 90.3497 104.782 91.2093 105.339 91.9236C105.817 92.3352 106.271 92.5411 106.689 92.5411C106.713 92.5411 106.726 92.529 106.726 92.5048C106.75 92.5048 106.786 92.5169 106.834 92.5411C107.18 92.5411 107.827 92.3958 108.766 92.1052C110.055 91.5664 111.708 90.5555 113.73 89.0784C114.559 88.3701 114.971 87.9585 114.971 87.8374C114.928 87.6134 114.831 87.456 114.68 87.3713C114.044 87.5105 113.385 87.6074 112.713 87.6558C111.217 87.6316 110.618 87.0868 110.909 86.0153C111.199 84.9438 111.732 84.3384 112.489 84.1931H112.598C113.445 84.1931 114.22 84.7379 114.934 85.8336H114.971L116.127 85.761V87.2139ZM111.574 85.8639C112.198 86.2271 112.906 86.2998 113.693 86.0818C113.094 85.7428 112.616 85.5733 112.265 85.5733C111.913 85.5733 111.683 85.646 111.574 85.7913V85.8639Z" fill="#B38E57"/>
<path d="M115.981 87.2139V85.7549C117.247 85.422 117.985 84.8772 118.197 84.1326C118.409 83.388 118.584 82.9097 118.718 82.6978C118.808 82.7523 118.875 82.7826 118.917 82.7826C119.571 81.9109 120.261 81.5234 120.994 81.6142C121.726 81.705 122.174 82.4557 122.332 83.8662C122.489 85.2767 122.09 85.9305 121.139 85.8336C120.183 85.7307 119.275 85.307 118.415 84.5503V84.5684C118.064 86.2695 117.259 87.1533 115.981 87.2139ZM119.202 83.3274C119.45 83.7936 120.273 84.1628 121.666 84.4231V84.3868C121.236 83.4848 120.794 83.0248 120.352 83.0066C119.91 82.9884 119.523 83.0913 119.202 83.3274Z" fill="#B38E57"/>
<path d="M125.207 84.411C124.917 81.3115 124.705 78.5087 124.572 75.9965C124.438 73.4903 124.166 71.5047 123.748 70.0336L124.166 68.4536C124.372 68.4476 124.632 69.3556 124.947 71.1838C125.262 73.012 125.48 75.2882 125.607 78.0244C125.734 80.7607 125.873 82.6797 126.018 83.7814C126.164 84.8892 126.963 85.543 128.416 85.7428L128.488 87.2017C126.6 87.2623 125.51 86.33 125.207 84.411Z" fill="#B38E57"/>
<path d="M135.395 83.5574H135.359L128.391 83.1579C128.458 81.9653 128.906 81.0936 129.741 80.5306C130.674 79.8708 131.763 79.3199 133.022 78.8901L133.937 78.5995V78.5632C133.815 78.1636 133.755 77.9336 133.755 77.8731V77.6551C133.876 76.2628 134.348 75.5242 135.172 75.4456C135.995 75.3608 136.933 76.0509 137.986 77.5098L138.204 77.9457L137.847 79.0293C137.163 79.1867 136.219 79.4228 135.026 79.7315V79.8042C135.05 80.1371 135.063 80.3429 135.063 80.4216L134.954 80.4943C134.832 80.4943 134.724 80.2885 134.627 79.8768C134.578 79.8526 134.542 79.8405 134.518 79.8405C133.216 80.2521 131.806 80.8151 130.286 81.5173V81.5537L130.359 81.59C131.848 81.6869 133.495 81.8503 135.299 82.0803C137.103 82.3104 139.361 82.4133 142.073 82.3891L141.376 83.739C140.051 83.848 138.683 84.1265 137.272 84.5805C135.862 85.0345 134.845 85.4038 134.215 85.7004C132.102 86.6992 130.159 87.2017 128.379 87.2138L128.397 85.7549C130.631 85.4098 132.387 84.9316 133.67 84.3202C134.251 84.0538 134.826 83.7996 135.395 83.5574ZM134.814 78.3755C134.941 78.3755 135.565 78.2423 136.673 77.976C135.971 77.2374 135.377 76.8379 134.887 76.7713C134.475 76.9166 134.27 77.0377 134.27 77.1345C134.391 77.6006 134.56 78.0183 134.778 78.3755H134.814Z" fill="#B38E57"/>
</svg>
