<svg width="174" height="84" viewBox="0 0 174 84" fill="none" xmlns="http://www.w3.org/2000/svg">
<path d="M157.952 83.437C157.952 78.5683 157.952 73.8084 157.952 69.216C157.888 69.0621 157.897 69.0802 157.902 69.0983C158.228 70.0992 158.228 70.0992 159.315 70.0992C163.174 70.0992 167.032 70.0856 170.887 70.1128C171.489 70.1173 171.774 69.9452 171.878 69.3564C171.964 68.8537 172.127 68.3646 172.286 67.8755C172.426 67.4452 172.313 67.2776 171.847 67.2641C170.425 67.2188 170.443 67.2007 170.089 65.7514C169.392 62.8846 168.676 60.0268 167.974 57.1645C167.358 54.6373 166.747 52.1102 166.158 49.5785C166.108 49.3566 166.185 49.0848 166.258 48.8539C166.407 48.3829 166.598 47.9254 166.829 47.3186C166.924 47.3186 167.204 47.305 167.485 47.3231C167.92 47.3548 168.183 47.2733 168.16 46.7343C168.142 46.2452 168.056 46.0006 167.481 45.9644C165.393 45.8421 163.314 45.6519 161.231 45.4979C160.393 45.4345 159.551 45.3983 158.708 45.362C157.965 45.3303 157.87 45.2533 157.87 44.5514C157.87 35.9463 157.87 27.3459 157.87 18.7409C157.87 18.5642 157.888 18.3831 157.907 18.1113C158.649 18.5235 159.324 18.8903 159.994 19.2753C162.503 20.7064 165.012 22.1466 167.521 23.5823C169.569 24.7553 171.616 25.9192 173.654 27.1058C173.812 27.1964 173.907 27.4364 173.975 27.6312C174.025 27.7761 173.984 27.9573 173.984 28.1248C173.984 44.2162 173.98 60.3076 173.998 76.399C173.998 77.0874 173.794 77.3908 173.137 77.6354C169.736 78.8944 166.358 80.2214 162.974 81.5212C161.353 82.1372 159.732 82.7576 157.952 83.437Z" fill="#B38E57"/>
<path d="M137.716 81.195C137.694 81.9785 137.707 82.762 137.707 83.6633C135.982 82.5944 134.342 81.5845 132.712 80.57C129.37 78.4912 126.036 76.4034 122.685 74.3427C122.182 74.0347 121.947 73.7041 121.947 73.0746C121.965 58.8808 121.965 44.6826 121.951 30.4888C121.951 29.9091 122.146 29.5604 122.599 29.2071C123.473 28.5278 124.265 27.7488 125.099 27.0151C126.643 25.6655 128.197 24.3295 129.741 22.9753C130.914 21.9472 132.069 20.8965 133.237 19.8639C134.85 18.4418 136.471 17.0333 138.197 15.5161C138.197 15.8558 138.197 16.0551 138.197 16.2498C138.197 25.6383 138.197 35.0268 138.197 44.4154C138.197 45.2306 138.192 45.1898 137.395 45.2442C135.497 45.38 133.6 45.5702 131.702 45.7197C130.398 45.8193 129.084 45.8873 127.748 45.9733C127.717 46.1952 127.685 46.3492 127.68 46.5077C127.653 47.3139 127.658 47.3501 128.486 47.3048C129.089 47.2731 129.388 47.4226 129.297 48.0793C129.279 48.2242 129.324 48.4507 129.428 48.5367C129.972 48.976 129.75 49.4923 129.628 50.0041C128.328 55.2939 127.028 60.5792 125.733 65.869C125.402 67.2277 125.416 67.2322 123.994 67.2775C123.853 67.282 123.713 67.3092 123.5 67.3319C123.717 68.1335 123.908 68.9034 124.152 69.6598C124.198 69.8002 124.451 69.9587 124.61 69.9587C128.921 69.9723 133.233 69.9632 137.544 69.9587C137.603 69.9587 137.662 69.9224 137.739 69.8998C137.875 69.4424 138.015 68.9759 138.201 68.369C138.201 72.3726 138.206 76.2222 138.187 80.0718" fill="#B38E57"/>
<path d="M159.573 15.3441C158.509 14.2436 157.445 13.143 156.24 11.8976C156.199 12.3505 156.158 12.6177 156.158 12.8803C156.154 23.3603 156.154 33.8449 156.154 44.3249C156.154 45.1174 156.122 45.1627 155.375 45.0993C154.048 44.9906 152.725 44.8548 151.398 44.7325C151.303 44.7234 151.213 44.6872 151.086 44.6555C151.167 44.3747 151.235 44.1301 151.33 43.7995C150.959 43.7814 150.66 43.7316 150.366 43.7542C149.868 43.795 149.659 43.6365 149.686 43.1021C149.727 42.3004 149.723 41.4897 149.682 40.6881C149.668 40.43 149.542 40.1311 149.369 39.9408C149.025 39.5604 148.604 39.257 148.237 38.8992C148.02 38.6909 147.848 38.6365 147.612 38.872C147.472 39.0169 147.291 39.1211 147.123 39.2434C146.362 39.814 145.959 40.5205 146.113 41.5169C146.19 42.0196 146.104 42.5495 146.131 43.0613C146.154 43.4961 145.986 43.6636 145.556 43.6274C145.234 43.6002 144.913 43.6229 144.492 43.6229C144.619 44.035 144.709 44.3385 144.813 44.6917C143.11 44.8095 141.444 44.9272 139.718 45.0495C139.718 30.0451 139.718 15.0588 139.718 0C140.814 0.624996 141.892 1.24093 142.97 1.86593C145.493 3.31972 148.011 4.77805 150.529 6.23184C153.296 7.83509 156.045 9.47004 158.844 11.0144C159.605 11.4311 159.822 11.9111 159.754 12.7128C159.686 13.5461 159.741 14.3885 159.741 15.2263C159.691 15.2671 159.632 15.3079 159.573 15.3441ZM154.437 9.26171C153.341 9.04432 153.242 9.11679 152.793 10.1992C152.463 11.0008 152.069 11.7708 151.675 12.6177C151.249 11.6983 150.85 10.8876 150.493 10.0633C150.09 9.13037 149.836 9.00809 148.849 9.31153C148.93 9.52892 149.07 9.74631 149.08 9.97276C149.111 10.5887 149.22 11.2454 149.057 11.8206C148.853 12.5452 149.41 13.5144 148.418 14.0488C148.984 14.0488 149.555 14.0488 150.121 14.0488C150.176 13.9945 150.23 13.9356 150.284 13.8812C149.369 13.8405 149.546 13.2608 149.569 12.7943C149.591 12.2101 149.668 11.6258 149.727 11.0008C150.099 11.8025 150.438 12.5814 150.819 13.3423C150.959 13.6276 151.19 13.8677 151.385 14.1258C151.598 13.845 151.806 13.5687 152.014 13.288C152.037 13.2562 152.028 13.2064 152.046 13.1702C152.368 12.4773 152.694 11.7889 153.015 11.0959C153.169 11.9338 153.224 12.7445 153.246 13.5552C153.246 13.6276 153.047 13.7182 152.934 13.7816C152.83 13.8405 152.712 13.8767 152.599 13.922C152.608 13.9628 152.617 14.0081 152.63 14.0488C153.405 14.0488 154.179 14.0488 154.954 14.0488C154.315 13.7907 154.329 13.2336 154.283 12.7535C154.206 11.9564 154.157 11.1548 154.161 10.3577C154.17 10.0135 154.333 9.66479 154.437 9.26171ZM146.158 14.0488C145.579 13.6231 145.588 13.6186 145.321 12.8668C144.945 11.8025 144.537 10.7517 144.179 9.6829C144.048 9.28888 143.821 9.1983 143.446 9.1983C143.083 9.1983 142.884 9.307 142.771 9.66932C142.467 10.6068 142.128 11.5262 141.802 12.4546C141.598 13.0298 141.575 13.7182 140.737 13.922C141.403 14.2345 142.504 14.1983 142.843 13.8903C142.59 13.7046 141.937 13.8631 142.164 13.2789C142.322 12.8713 142.2 12.2191 142.902 12.1557C143.853 12.0697 143.912 12.1738 144.292 13.1113C144.582 13.8178 143.962 13.7227 143.513 14.0488C144.528 14.0488 145.343 14.0488 146.158 14.0488ZM146.53 13.4827C146.53 13.5778 146.53 13.6729 146.53 13.7635C146.743 13.9265 146.937 14.1892 147.164 14.2254C147.558 14.2888 147.861 14.0035 147.802 13.614C147.771 13.4012 147.454 13.0977 147.245 13.0841C147.019 13.0706 146.77 13.3378 146.53 13.4827Z" fill="#B38E57"/>
<path d="M156.158 64.0435C156.158 69.3243 156.149 74.6005 156.172 79.8813C156.172 80.461 156.041 80.7056 155.42 80.6558C154.804 80.6059 154.184 80.6331 153.563 80.6467C153.21 80.6558 153.029 80.5561 153.033 80.1621C153.047 79.0434 152.975 79.0706 154.007 79.1386C154.619 79.1793 154.523 78.7672 154.523 78.4049C154.523 78.0425 154.623 77.6395 154.007 77.6666C153.205 77.6983 152.399 77.6485 151.593 77.6848C151.14 77.7029 150.896 77.567 150.837 77.1096C150.71 76.1359 150.57 75.1667 150.438 74.1929C150.253 72.8342 150.053 71.4801 149.881 70.1214C149.759 69.1658 149.591 68.2102 149.587 67.2546C149.56 61.1722 149.573 55.0853 149.573 49.0029C149.573 48.8172 149.56 48.6315 149.578 48.4458C149.659 47.6623 149.913 47.4404 150.715 47.4404C152.282 47.4404 153.849 47.4676 155.416 47.4268C156.036 47.4087 156.167 47.6261 156.163 48.2058C156.149 53.482 156.158 58.7628 156.158 64.0435Z" fill="#B38E57"/>
<path d="M139.668 63.9172C139.668 58.6364 139.677 53.3557 139.655 48.0704C139.65 47.4816 139.809 47.2869 140.416 47.3005C141.942 47.3412 143.468 47.314 144.994 47.314C145.832 47.314 146.068 47.5405 146.127 48.3919C146.14 48.5776 146.131 48.7633 146.131 48.949C146.131 54.9136 146.172 60.8737 146.109 66.8384C146.09 68.573 145.81 70.303 145.597 72.0331C145.393 73.6952 145.108 75.3483 144.908 77.0149C144.85 77.5176 144.677 77.6988 144.179 77.6807C143.418 77.6535 142.653 77.6988 141.888 77.6671C141.417 77.649 141.244 77.8256 141.299 78.2785C141.317 78.4189 141.317 78.5684 141.299 78.7133C141.249 79.1571 141.453 79.2794 141.874 79.2749C142.603 79.2658 142.907 79.7187 142.639 80.4071C142.594 80.5203 142.399 80.6336 142.273 80.6381C141.552 80.6607 140.828 80.6426 140.108 80.6517C139.732 80.6607 139.668 80.4479 139.673 80.1399C139.682 79.3156 139.677 78.4914 139.677 77.6626C139.668 73.0793 139.668 68.496 139.668 63.9172Z" fill="#B38E57"/>
<path d="M164.356 49.5059C164.695 49.5059 164.999 49.5059 165.366 49.5059C165.665 50.6743 165.973 51.8564 166.258 53.0384C167.001 56.0774 167.734 59.1208 168.473 62.1643C168.839 63.677 169.193 65.1896 169.578 66.6978C169.664 67.042 169.691 67.2775 169.247 67.2775C166.222 67.2775 163.192 67.2775 160.035 67.2775C161.489 61.2993 162.925 55.3935 164.356 49.5059Z" fill="#B38E57"/>
<path d="M126.032 67.2097C127.476 61.2768 128.903 55.4163 130.334 49.5332C130.651 49.5196 130.968 49.5015 131.362 49.4834C132.793 55.362 134.229 61.2632 135.678 67.2097C132.449 67.2097 129.279 67.2097 126.032 67.2097Z" fill="#B38E57"/>
<path d="M138.206 57.2958C138.206 60.3483 138.21 63.4008 138.197 66.4578C138.197 66.7522 138.418 67.2006 137.834 67.2776C136.865 67.4044 136.593 67.2957 136.435 66.6662C135.035 60.9823 133.636 55.294 132.259 49.6056C132.2 49.361 132.341 49.0576 132.418 48.7859C132.508 48.4553 132.694 48.1382 132.721 47.8076C132.753 47.4272 132.893 47.314 133.251 47.314C134.696 47.3275 136.14 47.3366 137.585 47.3094C138.083 47.3004 138.219 47.4679 138.215 47.9525C138.196 51.0639 138.206 54.1799 138.206 57.2958Z" fill="#B38E57"/>
<path d="M157.87 57.2865C157.87 54.234 157.884 51.186 157.861 48.1335C157.857 47.5991 158.002 47.4134 158.554 47.427C159.913 47.4632 161.276 47.4496 162.635 47.4315C163.042 47.427 163.251 47.5266 163.228 47.984C163.219 48.1969 163.264 48.4731 163.396 48.6181C163.853 49.1163 163.676 49.6235 163.541 50.167C162.363 54.9541 161.19 59.7412 160.022 64.5283C159.836 65.2846 159.673 66.041 159.496 66.7973C159.31 67.5989 158.667 67.2004 158.219 67.2457C157.762 67.2909 157.87 66.8833 157.87 66.6161C157.866 63.5138 157.87 60.3979 157.87 57.2865Z" fill="#B38E57"/>
<path d="M130.9 47.4406C130.941 47.4406 130.986 47.4315 131.023 47.4406C131.308 47.5221 131.797 47.5448 131.842 47.6987C131.978 48.1607 131.657 48.5004 131.245 48.7132C130.737 48.9759 129.963 48.5502 129.89 47.9705C129.85 47.6308 129.94 47.4044 130.348 47.4361C130.529 47.4542 130.715 47.4406 130.9 47.4406Z" fill="#B38E57"/>
<path d="M164.849 47.4409C164.913 47.4409 164.972 47.4364 165.035 47.4409C165.388 47.4681 165.882 47.2824 165.814 47.9572C165.769 48.4237 165.248 48.8857 164.79 48.7951C164.564 48.7498 164.288 48.6456 164.156 48.4781C163.989 48.2562 163.939 47.9437 163.839 47.6719C164.075 47.5949 164.306 47.5134 164.541 47.45C164.641 47.4183 164.75 47.4409 164.849 47.4409Z" fill="#B38E57"/>
<path d="M143.282 10.3984C143.423 10.7925 143.563 11.1865 143.726 11.6348C143.405 11.6348 143.133 11.6348 142.762 11.6348C142.902 11.1955 143.029 10.8015 143.156 10.4075C143.196 10.4075 143.242 10.403 143.282 10.3984Z" fill="#B38E57"/>
<path d="M8.40121 39.9765H8.49179C9.18472 41.0272 9.52892 41.6205 9.52892 41.7519H9.4791L9.18019 41.5345V41.5752C9.61044 42.4629 9.82783 43.0064 9.82783 43.2147V43.3053C9.62403 44.5417 9.307 45.2482 8.88128 45.4203C9.91388 45.7509 10.4302 46.1857 10.4302 46.7156C10.4302 48.115 8.7907 49.2699 5.51174 50.1802C2.23277 51.086 0.421193 50.2482 0.0815213 47.6667C0.0271739 47.3043 0 47.0688 0 46.9692C0 45.8732 0.403076 44.7093 1.20923 43.4774H1.24999V43.5272C0.674815 44.7047 0.38949 45.683 0.38949 46.462C0.38949 47.7527 0.90579 48.6313 1.93839 49.0888C2.32335 49.2337 2.72643 49.3061 3.14762 49.3061H3.2382C4.95468 49.3061 7.1648 48.6449 9.87765 47.3225V47.2817C9.71913 46.9375 8.64124 46.462 6.64397 45.8551C6.4447 45.7554 6.34507 45.683 6.34507 45.6377C6.52169 45.0036 6.68021 44.6911 6.81608 44.6911C6.82966 44.6911 7.16933 44.6911 7.83056 44.6911C8.49179 44.6911 9.03074 44.519 9.45193 44.1794C8.9311 43.2011 8.46009 42.0643 8.02531 40.7691C8.26987 40.2664 8.40121 40.0082 8.40121 39.9765ZM1.70289 51.0996L2.52716 51.7835C2.54527 51.8016 2.55433 51.8197 2.55433 51.8378C2.55433 51.8559 2.54527 51.8741 2.53168 51.8922L1.97915 52.5806C1.96557 52.6077 1.94745 52.6213 1.92481 52.6213C1.91122 52.6213 1.8931 52.6123 1.87499 52.5942L1.04166 51.9103C1.02355 51.8922 1.01448 51.8741 1.01448 51.8559C1.01448 51.8378 1.02355 51.8197 1.04166 51.7925L1.59419 51.1087C1.61231 51.086 1.63042 51.0724 1.64854 51.0724C1.66665 51.0724 1.6893 51.086 1.70289 51.0996ZM3.16121 51.0996L3.98548 51.7835C4.0036 51.8016 4.01265 51.8197 4.01265 51.8378C4.01265 51.8559 4.0036 51.8741 3.98548 51.8922L3.43747 52.5806C3.41936 52.6077 3.40125 52.6213 3.38313 52.6213C3.36501 52.6213 3.3469 52.6123 3.32878 52.5942L2.50451 51.9103C2.4864 51.8922 2.47734 51.8741 2.47734 51.8559C2.47734 51.8378 2.4864 51.8197 2.50451 51.7925L3.05704 51.1087C3.07516 51.086 3.09328 51.0724 3.11139 51.0724C3.12498 51.077 3.1431 51.086 3.16121 51.0996ZM6.91571 37.8343L7.73998 38.5182C7.7581 38.5363 7.76716 38.5544 7.76716 38.5725C7.76716 38.5906 7.7581 38.6088 7.74451 38.6269L7.19198 39.3153C7.17839 39.3424 7.16028 39.356 7.13763 39.356C7.12405 39.356 7.10593 39.347 7.08781 39.3289L6.25448 38.645C6.23637 38.6269 6.22731 38.6088 6.22731 38.5906C6.22731 38.5725 6.23637 38.5499 6.25448 38.5272L6.80702 37.8434C6.82513 37.8207 6.84325 37.8071 6.86137 37.8071C6.87948 37.8071 6.90212 37.8207 6.91571 37.8343Z" fill="#B38E57"/>
<path d="M16.1865 46.0497C15.8785 45.3432 15.7245 44.7409 15.7245 44.2336C15.7381 43.6902 15.8332 43.2463 16.0098 42.8931C16.1865 42.5398 16.4809 42.4039 16.893 42.4855C17.3051 42.567 17.6086 42.9791 17.7988 43.7173C17.989 44.4556 18.0162 45.0398 17.8758 45.4655C17.7354 45.8912 17.4999 46.2535 17.1647 46.5525C17.4818 47.1231 18.1611 47.4039 19.1982 47.3858V48.4773C17.912 48.5044 17.0243 47.9881 16.5352 46.9238C16.1955 47.0869 15.6838 47.268 15.0089 47.4673C14.3296 47.6666 13.5053 47.9564 12.5361 48.3459C11.5669 48.7354 10.6385 49.374 9.76441 50.2617C8.78163 51.4981 7.98454 52.1593 7.37766 52.2363C6.76625 52.3178 6.30882 52.191 5.99632 51.8604C5.68383 51.5298 5.51626 50.9772 5.48908 50.1937C5.46191 49.4102 5.75176 48.5044 6.35411 47.4673C6.95646 46.4302 6.97911 46.4845 6.42658 47.6303C5.86951 48.7762 5.64307 49.6412 5.7427 50.2209C5.84234 50.8006 6.05067 51.1539 6.37223 51.2762C6.69378 51.403 7.06968 51.3577 7.49994 51.1448C7.92566 50.932 8.42837 50.4881 8.99902 49.8133C9.56967 49.1385 10.24 48.5407 11.0099 48.0244C11.7798 47.5081 12.7626 47.0823 13.9492 46.7427C15.1267 46.4075 15.8785 46.1766 16.1865 46.0497ZM15.6203 41.2445L14.7055 40.384L15.4981 39.5371L16.4129 40.3885L15.6203 41.2445ZM16.7299 45.7644C17.1058 45.5742 17.3821 45.3613 17.5497 45.1213C17.5225 44.6412 17.3685 44.22 17.0877 43.8668C16.8069 43.5135 16.5714 43.3731 16.3722 43.4547C16.1729 43.5362 16.0642 43.7264 16.0415 44.0253C16.0189 44.3242 16.2499 44.9039 16.7299 45.7644ZM17.1194 41.2445L16.2046 40.384L16.9972 39.5371L17.912 40.3885L17.1194 41.2445Z" fill="#B38E57"/>
<path d="M18.854 35.6244L19.3432 34.5601C20.4663 37.5899 20.6158 38.4187 19.787 37.051C19.787 37.0827 20.0089 38.5999 20.4482 41.5935C20.8513 44.3788 20.9962 46.0228 20.8785 46.5256C20.8332 46.9966 20.6837 47.4178 20.4346 47.7891C20.1448 48.2239 19.7055 48.4549 19.1258 48.4775V47.3861C19.6149 47.3272 20.0316 47.1551 20.3667 46.8743L18.854 35.6244Z" fill="#B38E57"/>
<path d="M23.383 36.7793C23.4826 37.2095 23.6366 38.5637 23.8449 40.8417C24.0533 43.1198 24.1574 44.7457 24.1574 45.7285C24.1574 46.7113 23.94 47.5718 23.5053 48.319C23.0705 49.0663 22.9708 49.098 23.2063 48.4096C23.4419 47.7212 23.5596 46.906 23.5596 45.9685C23.5596 45.031 23.2245 41.5166 22.5497 35.4251L23.0071 34.5918C24.1529 37.6987 24.2797 38.4278 23.383 36.7793Z" fill="#B38E57"/>
<path d="M31.3811 51.3306C30.6474 51.4845 30.0179 51.557 29.4835 51.5479C28.7679 51.5344 28.1565 51.3441 27.6492 50.9728C27.142 50.6014 26.7887 50.0262 26.5985 49.2472C26.4083 48.4683 26.3993 47.644 26.5714 46.779C26.7435 45.9139 27.0107 45.2346 27.373 44.7409C27.7353 44.2473 27.7444 44.3152 27.4092 44.9493C27.0695 45.5833 26.902 46.4982 26.902 47.6983C26.902 48.8985 27.3232 49.673 28.161 50.0217C28.9989 50.3704 30.0677 50.4293 31.3585 50.1938C31.3856 50.1893 31.4173 50.1847 31.449 50.1802C32.7081 49.9402 33.9762 49.5416 35.2579 48.9936C36.5668 48.4275 37.2235 47.9655 37.2235 47.6032C37.1691 47.3723 36.9336 46.9239 36.5215 46.2581C36.1093 45.5924 35.8285 45.0262 35.6881 44.5507C35.5477 44.0797 35.353 43.6404 35.1084 43.2328L35.5568 42.25C36.9834 44.134 37.2506 44.75 36.3494 44.1069C36.3312 44.3016 36.5305 44.7319 36.9517 45.3886C37.3684 46.0498 37.5586 46.6521 37.5133 47.2047C37.468 47.7572 37.3186 48.2373 37.0649 48.6494C36.8113 49.0615 36.1999 49.5099 35.2262 49.99C34.2525 50.4701 33.2334 50.855 32.1691 51.1403C31.8838 51.2128 31.6257 51.2762 31.3811 51.3306ZM32.0152 47.3994L31.1003 46.5389L31.8929 45.692L32.8077 46.5435L32.0152 47.3994Z" fill="#B38E57"/>
<path d="M39.651 46.3851C39.4336 44.0663 39.2751 41.9694 39.1754 40.0899C39.0758 38.2149 38.872 36.7294 38.5595 35.6289L38.872 34.4468C39.026 34.4423 39.2207 35.1216 39.4562 36.4894C39.6917 37.8571 39.8548 39.56 39.9499 41.6071C40.045 43.6542 40.1492 45.0898 40.2579 45.9141C40.3666 46.7429 40.9644 47.232 42.0513 47.3815L42.1057 48.473C40.6926 48.5137 39.8729 47.8163 39.651 46.3851Z" fill="#B38E57"/>
<path d="M41.9699 47.386C43.3285 47.3769 44.7959 46.8606 46.3629 45.8416H46.4263C46.4535 45.8416 46.4807 45.8733 46.5079 45.9322C46.4807 46.0816 46.4535 46.1586 46.4263 46.1586C46.5079 46.9285 46.9517 47.3543 47.7579 47.4358C48.564 47.5173 49.2252 47.164 49.7325 46.3805C49.9544 46.1224 50.0767 45.991 50.0948 45.991H50.122C50.1627 45.991 50.1854 46.0092 50.1854 46.0454V46.0726C50.0903 46.3307 50.0405 46.4802 50.0405 46.5255C50.0405 46.8878 50.2261 47.1414 50.602 47.2818C50.9734 47.4222 51.295 47.4494 51.5577 47.3633C51.5939 47.3588 51.612 47.3407 51.612 47.309L51.2225 46.4711L51.7252 45.6876C51.8611 45.6876 51.997 45.9412 52.1374 46.453C52.2778 46.9602 52.1917 47.4584 51.8792 47.9385C51.5667 48.4186 51.1183 48.5952 50.5341 48.4684C49.9499 48.3416 49.6147 47.9475 49.5332 47.2863C48.9761 48.0608 48.2877 48.4774 47.4589 48.5363C46.6301 48.5952 46.1546 48.0381 46.0278 46.8606C45.2896 47.472 44.6329 47.8887 44.0486 48.1151C43.4644 48.3416 42.7715 48.4638 41.9653 48.482V47.386H41.9699ZM48.5142 43.4231L49.3385 44.107C49.3566 44.1251 49.3656 44.1432 49.3656 44.1613C49.3656 44.1795 49.3611 44.1976 49.3475 44.2157L48.795 44.9041C48.7814 44.9313 48.7633 44.9448 48.7406 44.9448C48.7271 44.9448 48.7089 44.9358 48.6908 44.9177L47.8575 44.2338C47.8394 44.2157 47.8303 44.1976 47.8303 44.1795C47.8303 44.1613 47.8394 44.1432 47.8575 44.1161L48.41 43.4322C48.4281 43.4095 48.4463 43.3959 48.4644 43.3959C48.4825 43.4005 48.5006 43.4095 48.5142 43.4231ZM49.1256 42.0056L49.9499 42.6894C49.968 42.7075 49.9771 42.7257 49.9771 42.7438C49.9771 42.7619 49.968 42.78 49.9589 42.7981L49.4064 43.4865C49.3883 43.5137 49.3702 43.5273 49.3521 43.5273C49.3339 43.5273 49.3158 43.5182 49.2977 43.5001L48.4734 42.8162C48.4553 42.7981 48.4463 42.78 48.4463 42.7619C48.4463 42.7438 48.4553 42.7257 48.4734 42.703L49.026 42.0191C49.0441 41.9965 49.0622 41.9829 49.0803 41.9829C49.0984 41.9829 49.112 41.992 49.1256 42.0056ZM49.9725 43.4231L50.7968 44.107C50.8149 44.1251 50.824 44.1432 50.824 44.1613C50.824 44.1795 50.8149 44.1976 50.7968 44.2157L50.2488 44.9041C50.2307 44.9313 50.2126 44.9448 50.1944 44.9448C50.1763 44.9448 50.1582 44.9358 50.1401 44.9177L49.3158 44.2338C49.2977 44.2157 49.2887 44.1976 49.2887 44.1795C49.2887 44.1613 49.2977 44.1432 49.3158 44.1161L49.8684 43.4322C49.8865 43.4095 49.9046 43.3959 49.9227 43.3959C49.9408 43.4005 49.9544 43.4095 49.9725 43.4231Z" fill="#B38E57"/>
<path d="M59.4969 46.6294C59.5059 46.3215 59.4108 46.1267 59.207 46.0452C59.0032 45.9682 58.5096 45.9184 57.7215 45.9003C56.9335 45.8821 56.5938 45.47 56.707 44.6639C56.8203 43.8532 57.1916 43.3957 57.8212 43.2825C58.4552 43.1693 58.9851 43.5044 59.4199 44.2834C59.8547 45.0624 60.0585 45.6919 60.0358 46.172C60.0132 46.6475 59.8999 47.028 59.6916 47.3133C59.4833 47.5941 58.4597 48.1013 56.6165 48.826C54.7732 49.5551 53.41 50.3613 52.5268 51.2535C51.544 52.4899 50.7469 53.1511 50.1401 53.2281C49.5332 53.3051 49.0712 53.1828 48.7587 52.8522C48.4462 52.5216 48.2787 51.9691 48.256 51.1856C48.2334 50.402 48.5187 49.4962 49.121 48.4591C49.7234 47.422 49.8185 47.3223 49.4199 48.1647C49.0169 49.0071 48.7678 49.5914 48.6772 49.9174C48.5821 50.2435 48.5594 50.6874 48.6002 51.2444C48.641 51.8015 48.8221 52.1412 49.1437 52.268C49.4652 52.3948 49.8411 52.3495 50.2714 52.1366C50.7016 51.9238 51.1998 51.4799 51.7705 50.8051C52.3411 50.1303 53.0114 49.537 53.7813 49.0207C55.0177 48.364 56.0186 47.9156 56.7886 47.6756C57.5404 47.4446 58.4462 47.0914 59.4969 46.6294ZM56.8293 40.0851L57.6536 40.769C57.6717 40.7871 57.6808 40.8052 57.6808 40.8233C57.6808 40.8414 57.6762 40.8595 57.6626 40.8776L57.1101 41.5661C57.0965 41.5932 57.0784 41.6068 57.0558 41.6068C57.0422 41.6068 57.0241 41.5978 57.0059 41.5796L56.1726 40.8958C56.1545 40.8777 56.1454 40.8595 56.1454 40.8414C56.1454 40.8233 56.1545 40.8052 56.1726 40.7825L56.7252 40.0987C56.7433 40.076 56.7614 40.0624 56.7795 40.0624C56.7976 40.0624 56.8157 40.0715 56.8293 40.0851ZM57.1328 44.5688C57.2097 44.7137 57.6989 44.7997 58.6001 44.8269C58.342 44.5416 58.0657 44.3876 57.7759 44.374C57.486 44.3604 57.2732 44.4238 57.1328 44.5688ZM58.3918 39.9764L59.2161 40.6603C59.2342 40.6784 59.2432 40.6965 59.2432 40.7146C59.2432 40.7327 59.2387 40.7508 59.2251 40.769L58.6726 41.4574C58.659 41.4845 58.6409 41.4981 58.6183 41.4981C58.6047 41.4981 58.5866 41.4891 58.5684 41.4709L57.7351 40.7871C57.717 40.769 57.7079 40.7508 57.7079 40.7327C57.7079 40.7146 57.717 40.692 57.7351 40.6693L58.2876 39.9854C58.3058 39.9628 58.3239 39.9492 58.342 39.9492C58.3601 39.9492 58.3782 39.9628 58.3918 39.9764Z" fill="#B38E57"/>
<path d="M70.7378 35.3978L70.7468 35.3435C70.86 35.0536 71.0276 34.7592 71.245 34.4648H71.2586C72.0693 36.7293 72.3365 37.6895 72.0647 37.3407C71.793 36.992 71.6571 36.8425 71.6617 36.8878C71.6345 37.0871 71.793 38.7085 72.1417 41.7474C72.4905 44.7863 72.6354 46.5119 72.5765 46.924C72.5176 47.3316 72.3501 47.9158 72.0602 48.6722C71.5711 49.501 70.5792 50.2301 69.0937 50.8597C67.6082 51.4892 66.4126 51.8334 65.5068 51.8923C64.6055 51.9466 63.8673 51.7564 63.2921 51.3171C62.717 50.8778 62.3365 50.3388 62.1418 49.7048C61.9471 49.0707 61.8836 48.3914 61.9425 47.6667C62.0059 46.9421 62.3365 46.136 62.9344 45.2483H62.9615C62.9978 45.2483 63.0159 45.2664 63.0159 45.2981L63.0204 45.3796C62.8528 45.8687 62.6717 46.3352 62.4815 46.7836C62.3954 47.078 62.3365 47.4267 62.3094 47.8298C62.332 48.6858 62.6536 49.433 63.2695 50.0761C63.7858 50.443 64.2749 50.6423 64.7278 50.6649C64.9045 50.6966 65.1128 50.7193 65.3574 50.7328L65.5476 50.7283C66.9017 50.6966 68.6091 50.1079 70.6653 48.9666C71.485 48.4367 71.9787 47.9702 72.1463 47.5671C71.4216 41.6025 71.0457 38.242 71.0095 37.4857C70.9868 36.7112 70.8917 36.0228 70.7378 35.3978Z" fill="#B38E57"/>
<path d="M76.639 33.1062C76.6526 33.1153 76.6571 33.1379 76.6571 33.1787C76.6571 33.2194 76.648 33.2602 76.6299 33.31C76.6118 33.3598 76.5937 33.4097 76.5756 33.4595C76.5575 33.5093 76.5348 33.5546 76.5122 33.5953C76.3989 33.772 76.2676 33.9214 76.1272 34.0437C75.9823 34.166 75.8283 34.2702 75.6653 34.3517C75.5067 34.4287 75.3392 34.4876 75.1671 34.5238C74.995 34.56 74.8229 34.5872 74.6462 34.5963H74.5511C74.3383 34.5963 74.1254 34.5691 73.9125 34.5147C73.6997 34.4604 73.514 34.3789 73.3555 34.2747C73.3283 34.2566 73.3057 34.2475 73.2876 34.2475C73.274 34.2475 73.2649 34.2611 73.2604 34.2838C73.2513 34.3155 73.2287 34.3607 73.197 34.4196C73.1653 34.4785 73.1245 34.5374 73.0837 34.5917C73.043 34.6461 73.0022 34.6959 72.966 34.7366C72.9252 34.7774 72.8981 34.8001 72.8754 34.8001C72.8482 34.8001 72.8347 34.7819 72.8347 34.7457C72.8347 34.7366 72.8347 34.714 72.8392 34.6778C72.8437 34.6415 72.8482 34.6008 72.8573 34.56C72.8664 34.5011 72.8845 34.4196 72.9162 34.32C72.9479 34.2158 72.9796 34.1117 73.0203 34.003C73.0611 33.8943 73.0973 33.7901 73.1381 33.6905C73.1789 33.5908 73.2151 33.5184 73.2423 33.464C73.2558 33.4414 73.2785 33.4278 73.3057 33.4278C73.3328 33.4278 73.3645 33.4368 73.4008 33.455C73.6227 33.5591 73.8627 33.6452 74.1163 33.7086C74.3383 33.7674 74.5602 33.7992 74.7776 33.7992H74.8682C75.0267 33.7901 75.1852 33.772 75.3346 33.7493C75.4886 33.7267 75.6335 33.6859 75.7739 33.6316C75.9189 33.5818 76.0593 33.5184 76.1906 33.4368C76.3219 33.3553 76.4488 33.2602 76.5665 33.1379C76.5937 33.1108 76.6163 33.0972 76.6344 33.0972C76.6299 33.1017 76.6344 33.1017 76.639 33.1062ZM74.8636 37.137C74.9633 37.5672 75.1172 38.9214 75.3256 41.1995C75.5339 43.4775 75.6381 45.1034 75.6381 46.0862C75.6381 47.069 75.4207 47.9295 74.9859 48.6768C74.5511 49.424 74.4515 49.4558 74.687 48.7674C74.9225 48.079 75.0403 47.2637 75.0403 46.3262C75.0403 45.3887 74.7051 41.8743 74.0303 35.7828L74.4877 34.9495C75.6335 38.0609 75.7604 38.7901 74.8636 37.137Z" fill="#B38E57"/>
<path d="M80.9687 43.4094C81.3038 42.7029 81.6254 42.3542 81.9243 42.3542C81.9605 42.3995 81.9333 42.9384 81.8382 43.9619C81.7431 44.99 81.7205 45.7056 81.7612 46.1087C81.802 46.5117 81.9152 46.8605 82.1009 47.1549C82.3907 47.5534 82.8119 47.7482 83.3554 47.73C83.8989 47.7119 84.4514 47.3315 84.9994 46.5842C85.0809 46.4076 85.1217 46.1358 85.1217 45.7645C85.1217 45.1304 85.0175 44.3605 84.8047 43.4502C84.5918 42.5399 84.4514 41.9828 84.3835 41.7835L84.6371 40.8551C85.1489 41.7428 85.5656 43.5091 85.8871 46.1494C86.1045 46.7608 86.3762 47.1322 86.6978 47.2681C86.9333 47.3768 87.119 47.4311 87.2594 47.4311H87.3635C87.8164 47.4311 88.1561 47.3043 88.3826 47.0507V46.9964C88.3826 46.5072 87.984 45.3478 87.1869 43.5317C86.9831 43.0018 86.7748 42.3678 86.5574 41.6205L86.9333 40.6377C87.9931 42.7754 88.1878 43.423 87.513 42.5761C87.5764 42.8342 87.8708 43.6087 88.4007 44.8949C88.6045 45.5063 88.6996 46.1268 88.6815 46.7608C88.6634 47.3949 88.5094 47.8704 88.2105 48.1784C87.9115 48.4909 87.5673 48.6313 87.1733 48.5996C86.7793 48.5679 86.417 48.346 86.0909 47.9293C85.7648 47.5127 85.5338 46.865 85.4025 45.9819C85.3617 46.8197 85.0809 47.5217 84.5646 48.0969C84.0483 48.6721 83.4777 48.9347 82.8618 48.8894C82.2458 48.8442 81.7975 48.3007 81.5212 47.2636C81.4351 46.8967 81.3853 46.5344 81.3763 46.1766C81.3672 45.8188 81.4578 44.9266 81.6435 43.5C81.485 43.6178 81.2993 43.885 81.0909 44.3062C80.8826 44.7273 80.5792 45.5516 80.1852 46.788C79.7911 48.0244 79.3971 48.663 79.0122 48.7083C78.6272 48.7536 78.3102 48.5317 78.0611 48.0425C77.812 47.5534 77.658 46.7291 77.5991 45.5697C77.5357 44.4103 77.5493 43.7355 77.6353 43.5453C77.7214 43.3551 77.7712 43.7536 77.7893 44.75C77.8074 45.7464 77.9388 46.5616 78.1788 47.2047C78.3917 47.5579 78.6181 47.7346 78.8536 47.721C79.2386 47.7074 79.6371 47.0915 80.0493 45.8732C80.4569 44.6458 80.7649 43.8261 80.9687 43.4094Z" fill="#B38E57"/>
<path d="M90.3934 36.7793C90.4931 37.2095 90.6471 38.5637 90.8554 40.8417C91.0637 43.1198 91.1679 44.7457 91.1679 45.7285C91.1679 46.7113 90.9505 47.5718 90.5157 48.319C90.0809 49.0663 89.9813 49.098 90.2168 48.4096C90.4523 47.7212 90.5701 46.906 90.5701 45.9685C90.5701 45.031 90.2349 41.5166 89.5601 35.4251L90.0175 34.5918C91.1634 37.6987 91.2902 38.4278 90.3934 36.7793Z" fill="#B38E57"/>
<path d="M99.0165 47.051C99.8091 46.6887 100.294 46.3988 100.475 46.186H100.502C100.543 46.195 100.565 46.2177 100.565 46.2449V46.272C100.556 46.3943 100.529 46.494 100.488 46.5709C100.574 46.9469 100.697 47.2005 100.851 47.3228C101.358 47.5809 102.314 47.5356 103.709 47.1778C103.228 46.8925 102.766 46.4079 102.323 45.7331C102.024 45.2575 101.874 44.8364 101.874 44.4786V44.4378C101.874 43.3599 102.196 42.6217 102.834 42.2186C103.473 41.8201 104.184 41.6208 104.972 41.6299C105.756 41.6434 106.408 41.802 106.929 42.1054C107.458 42.4134 107.776 42.7123 107.889 42.9976C107.458 42.6353 106.802 42.4768 105.923 42.5356C105.049 42.5855 104.356 42.7077 103.849 42.9025C103.342 43.0927 102.966 43.2648 102.721 43.4143C102.481 43.5637 102.359 43.6634 102.359 43.7086C102.359 44.4061 102.866 45.1443 103.885 45.9324C104.524 46.3626 105.04 46.58 105.443 46.58C105.837 46.58 107.49 46.1316 110.398 45.2349L110.425 45.2983V45.3255C110.176 46.0229 109.841 46.4441 109.429 46.5936C104.918 48.0293 102.291 48.6905 101.553 48.5637C100.81 48.4459 100.344 48.0112 100.149 47.2594C98.5772 48.3372 97.3001 48.8082 96.3263 48.6724C95.3526 48.541 94.7548 47.9342 94.5238 46.8563C94.3789 46.3671 94.1977 45.7512 93.9849 45.022C93.8807 46.3581 93.3734 47.6353 92.4722 48.849C91.5664 50.0582 90.8055 50.7512 90.1851 50.9233C89.5646 51.0954 89.0709 50.8644 88.7041 50.2349C88.3418 49.5963 88.1923 48.8173 88.2603 47.8934C88.3282 46.9695 88.4641 46.2584 88.6679 45.7603C88.8717 45.2575 88.8807 45.4342 88.686 46.2766C88.4912 47.1189 88.4369 47.8255 88.5139 48.378C88.5909 48.9305 88.7811 49.3336 89.08 49.5918C89.3834 49.8454 89.8273 49.8092 90.4115 49.474C90.9958 49.1389 91.6253 48.4958 92.3091 47.5311C92.993 46.5664 93.4414 45.6697 93.6678 44.8409C93.618 44.0438 93.0881 42.2186 92.0782 39.3563L92.5673 38.1743C93.2602 39.7141 93.8309 41.4578 94.2792 43.4143C94.7231 45.3662 95.1035 46.5709 95.4115 47.0284C95.7149 47.4858 96.2176 47.6851 96.9196 47.6217C97.6307 47.5764 98.3236 47.3816 99.0165 47.051ZM97.06 34.3699C96.8109 34.9723 96.3399 35.4705 95.647 35.8645L94.5736 36.2042V36.2585C95.0401 36.8926 95.2756 37.4225 95.2756 37.8482C95.2892 38.2377 95.2122 38.5864 95.0446 38.8853C95.022 38.8853 95.0039 38.8808 94.9948 38.8672C94.9858 38.8536 94.9767 38.8355 94.9676 38.8174C95.0265 38.7177 95.0582 38.5955 95.0582 38.4505V38.2331C95.0446 37.7893 94.7684 37.2051 94.2249 36.485V36.4623C94.3381 36.1453 94.4695 35.9687 94.6189 35.937C95.5428 35.4841 96.0501 35.1761 96.1406 35.0176C94.8771 35.0357 94.1388 35.167 93.9305 35.4116H93.8807C93.8535 35.4116 93.8263 35.3799 93.7901 35.321C94.0981 34.4968 94.483 34.0846 94.9359 34.0846C95.031 34.0574 95.1397 34.0439 95.2575 34.0439L96.0501 34.0303C96.6977 34.0122 97.0238 34.0846 97.0328 34.2477C97.0328 34.2522 97.0329 34.2658 97.0374 34.2839C97.0419 34.3065 97.051 34.3337 97.06 34.3699ZM106.584 36.6118L94.8137 42.1371L95.1352 41.1679L107.033 35.7286L106.584 36.6118ZM99.0256 43.292C98.9395 43.6271 98.8535 43.8038 98.7674 43.8173H98.7312C98.6633 43.7313 98.5863 43.6362 98.5002 43.5366H98.4731L98.2828 44.2385C98.2828 44.4152 98.2647 44.5692 98.2194 44.696C98.1923 44.8952 98.1198 45.0537 98.002 45.167L97.9386 45.1534C97.925 45.1534 97.7892 44.8454 97.531 44.2249C97.4133 43.9759 97.3227 43.8128 97.2638 43.7404C97.2367 43.8445 97.1778 43.8898 97.0917 43.8762C96.8834 43.6996 96.7339 43.4867 96.6479 43.2422C96.8064 42.6942 96.974 42.436 97.1461 42.4632L97.1597 42.4768C97.5582 43.0837 97.8028 43.5366 97.8843 43.84C97.9115 43.917 97.9386 43.9849 97.9613 44.0393C98.0066 44.1706 98.0337 44.2385 98.0428 44.2385C98.2647 43.3192 98.4549 42.8255 98.618 42.7576C98.7357 42.7757 98.849 42.8889 98.9577 43.0972C99.0165 43.1425 99.0392 43.2059 99.0256 43.292ZM98.3417 51.3762L97.4269 50.5021L98.233 49.6642L99.1388 50.5247L98.3417 51.3762ZM104.401 34.8002C104.315 35.1399 104.229 35.321 104.143 35.3346H104.107C104.039 35.2486 103.962 35.1535 103.876 35.0538H103.849L103.659 35.7558C103.659 35.9324 103.641 36.0864 103.6 36.2132C103.573 36.4125 103.5 36.571 103.382 36.6842L103.319 36.6707C103.305 36.6707 103.17 36.3627 102.911 35.7422C102.794 35.4931 102.703 35.3301 102.644 35.2576C102.617 35.3618 102.558 35.4071 102.472 35.389C102.264 35.2169 102.114 35.0085 102.028 34.7594C102.187 34.2114 102.354 33.9533 102.526 33.9805L102.54 33.994C102.939 34.5964 103.183 35.0493 103.265 35.3573C103.292 35.4342 103.319 35.5022 103.342 35.5565C103.387 35.6879 103.414 35.7558 103.423 35.7558C103.645 34.8364 103.835 34.3428 103.998 34.2748C104.116 34.293 104.229 34.4062 104.338 34.61C104.392 34.6507 104.415 34.7187 104.401 34.8002ZM107.812 50.2303V50.2666C107.812 50.2938 107.748 50.4206 107.622 50.647C107.576 50.7602 107.327 50.9233 106.87 51.1316C106.707 51.1905 106.566 51.2222 106.449 51.2222H106.313C105.964 51.1814 105.787 51.041 105.787 50.8055C105.787 50.7059 105.855 50.4975 105.991 50.176C106.064 50.0718 106.168 49.9405 106.299 49.782C106.132 49.7231 106.014 49.6325 105.95 49.5148V49.4876C106.136 49.0302 106.304 48.7992 106.449 48.7992C106.512 48.7494 106.58 48.7222 106.652 48.7222C106.711 48.7222 106.77 48.7901 106.829 48.926V48.9532C106.797 49.0121 106.738 49.0573 106.652 49.089C106.603 49.08 106.562 49.0755 106.535 49.0755C106.385 49.1207 106.299 49.1706 106.281 49.2204C106.358 49.2838 106.467 49.3336 106.603 49.3698C106.734 49.3698 106.897 49.2928 107.087 49.1434H107.123C107.128 49.1434 107.132 49.1479 107.141 49.157C107.146 49.166 107.151 49.1751 107.151 49.1932C107.033 49.4151 106.915 49.5646 106.797 49.6416C106.394 49.9631 106.122 50.2349 105.991 50.4523V50.493C105.991 50.638 106.177 50.7331 106.553 50.7738C106.888 50.7738 107.273 50.6334 107.699 50.3526C107.712 50.3345 107.721 50.3164 107.735 50.2983C107.766 50.253 107.789 50.2303 107.803 50.2303H107.812Z" fill="#B38E57"/>
<path d="M7.49993 68.0971C6.76624 68.2511 6.13672 68.3236 5.60231 68.3145C4.88673 68.301 4.27532 68.1107 3.76808 67.7394C3.26083 67.368 2.90758 66.7928 2.71736 66.0138C2.52714 65.2348 2.51809 64.4106 2.69019 63.5456C2.86229 62.6805 3.12949 62.0012 3.49181 61.5075C3.85413 61.0139 3.86319 61.0818 3.52804 61.7159C3.18837 62.3499 3.0208 63.2648 3.0208 64.4649C3.0208 65.6651 3.44199 66.4395 4.27985 66.7883C5.1177 67.137 6.18654 67.1959 7.47729 66.9604C7.50447 66.9558 7.53617 66.9513 7.56787 66.9468C8.82692 66.7068 10.095 66.3082 11.3767 65.7602C12.6856 65.1941 13.3423 64.7321 13.3423 64.3698C13.2879 64.1388 13.0524 63.6905 12.6403 63.0247C12.2282 62.359 11.9474 61.7928 11.807 61.3173C11.6666 60.8463 11.4718 60.407 11.2273 59.9994L11.6756 59.0166C13.1023 60.9006 13.3695 61.5166 12.4682 60.8735C12.4501 61.0682 12.6494 61.4985 13.0705 62.1552C13.4872 62.8164 13.6774 63.4187 13.6321 63.9713C13.5869 64.5238 13.4374 65.0039 13.1838 65.416C12.9302 65.8281 12.3187 66.2765 11.345 66.7566C10.3713 67.2367 9.35228 67.6216 8.28798 67.9069C8.00718 67.9794 7.7445 68.0428 7.49993 68.0971ZM8.13399 64.1705L7.21914 63.31L8.01171 62.4631L8.92656 63.3146L8.13399 64.1705Z" fill="#B38E57"/>
<path d="M8.19739 68.944V68.9259C10.0271 68.3552 11.7526 67.7076 13.3785 66.9784C15.0044 66.2492 16.508 65.425 17.8848 64.5056C19.2616 63.5862 19.9636 63.0337 19.9953 62.8389C19.9138 62.3815 19.6692 62.1641 19.2662 62.1913C18.8631 62.2185 18.5098 62.2411 18.2064 62.2638C17.9029 62.2819 17.6176 62.2049 17.3459 62.0328C17.0741 61.8607 16.9836 61.5663 17.0696 61.1632C17.1557 60.7602 17.3323 60.4114 17.5995 60.117C17.8667 59.8227 18.1656 59.6777 18.5008 59.6777C18.8359 59.6777 19.2661 59.9631 19.7915 60.5292C20.2353 61.0455 20.4844 61.6025 20.5343 62.1958C20.5841 62.7891 20.4844 63.31 20.2399 63.7493C19.9953 64.1931 19.2027 64.8317 17.8622 65.6605C16.5216 66.4893 15.2807 67.1958 14.1348 67.7846C12.989 68.3688 11.0189 68.7764 8.22456 69.0028L8.19739 68.944ZM17.5995 60.9368C17.6901 61.0727 17.9346 61.1542 18.3377 61.1814C18.7363 61.2085 18.9718 61.2221 19.0397 61.2221H19.0669V61.1949C18.7498 60.819 18.4238 60.656 18.0932 60.7058C17.7625 60.7511 17.5995 60.8281 17.5995 60.9368Z" fill="#B38E57"/>
<path d="M24.2118 59.1475C24.2344 59.143 24.5107 59.4872 25.0451 60.1846L24.8957 60.8278C25.5841 61.8468 25.9555 62.5533 26.0143 62.9428V62.9971C26.0279 63.4681 25.892 64.0841 25.6112 64.854C25.3033 65.2752 24.8277 65.6918 24.1937 66.0949C23.6185 66.5025 22.3549 67.1321 20.3984 67.979C19.2934 68.4137 18.5234 68.6493 18.0932 68.6764C15.5932 68.9165 14.3387 69.0252 14.3387 68.998C17.98 67.902 21.277 66.5841 24.2163 65.0397C25.1855 64.4237 25.6611 63.989 25.6475 63.7353C25.6384 63.5632 25.4527 63.2281 25.0949 62.7344C24.7372 62.2408 24.325 61.3622 23.8585 60.0986C24.0397 59.4917 24.1529 59.1747 24.2118 59.1475Z" fill="#B38E57"/>
<path d="M27.9482 63.1512C27.7308 60.8324 27.5723 58.7355 27.4726 56.856C27.373 54.981 27.1692 53.4955 26.8567 52.395L27.1692 51.2129C27.3232 51.2084 27.5179 51.8877 27.7534 53.2555C27.9889 54.6232 28.152 56.3261 28.2471 58.3732C28.3422 60.4203 28.4464 61.856 28.555 62.6802C28.6637 63.509 29.2616 63.9981 30.3485 64.1476L30.4029 65.2391C28.9898 65.2844 28.1701 64.5869 27.9482 63.1512Z" fill="#B38E57"/>
<path d="M30.3213 64.157C31.372 64.0619 32.2461 63.6679 32.9481 62.984H33.0387C33.0749 62.984 33.0931 63.0021 33.0931 63.0383C33.0885 64.0483 33.4327 64.5465 34.1302 64.5329C34.8276 64.5193 35.43 64.2385 35.9372 63.6905C36.4445 63.1425 36.7524 62.8662 36.8566 62.8662C36.8928 62.8662 36.911 62.8843 36.911 62.9296V62.984C36.911 63.0519 36.843 63.1833 36.7117 63.3735C36.7117 63.8173 36.8249 64.1026 37.0514 64.2294C37.2778 64.3563 37.545 64.4016 37.8485 64.3653C38.1519 64.3291 38.5595 63.8535 39.0713 62.9296L39.1256 62.8934H39.189C39.2253 62.8934 39.2434 62.9251 39.2434 62.984C39.2434 62.9976 39.2343 63.0519 39.2162 63.147C39.2841 63.4052 39.5242 63.6407 39.9318 63.8445C40.3394 64.0528 40.6609 64.157 40.8919 64.157L40.8511 65.2485C40.208 65.2847 39.7234 65.1443 39.3928 64.8273C39.0622 64.5102 38.8901 64.2611 38.872 64.0755H38.8176C38.4146 64.936 37.9934 65.3798 37.5677 65.4115C37.1374 65.4387 36.7751 65.2485 36.4852 64.8363C36.3947 64.6687 36.3494 64.5284 36.3494 64.4197V64.2476C36.3494 64.1525 36.3675 64.0392 36.4037 63.9124C36.0369 64.5963 35.5749 65.0764 35.0224 65.3572C34.4698 65.638 33.9535 65.6832 33.4689 65.4885C32.9843 65.2937 32.7081 64.8092 32.6356 64.0211H32.5813C31.9608 64.6552 31.2045 65.0628 30.3077 65.2485L30.3213 64.157ZM34.9635 60.5474L35.7878 61.2313C35.8059 61.2494 35.8149 61.2675 35.8149 61.2856C35.8149 61.3037 35.8059 61.3219 35.7968 61.34L35.2443 62.0284C35.2307 62.0556 35.2126 62.0691 35.19 62.0691C35.1764 62.0691 35.1582 62.0601 35.1401 62.042L34.3068 61.3581C34.2887 61.34 34.2796 61.3219 34.2796 61.3037C34.2796 61.2856 34.2887 61.2675 34.3068 61.2403L34.8593 60.5565C34.8775 60.5338 34.8956 60.5202 34.9137 60.5202C34.9318 60.5202 34.9499 60.5338 34.9635 60.5474ZM35.5749 59.1253L36.3992 59.8092C36.4173 59.8273 36.4264 59.8454 36.4264 59.8635C36.4264 59.8817 36.4173 59.8998 36.4037 59.9179L35.8512 60.6063C35.8331 60.6335 35.8149 60.647 35.7968 60.647C35.7787 60.647 35.7606 60.638 35.7425 60.6199L34.9182 59.936C34.9001 59.9179 34.891 59.8998 34.891 59.8816C34.891 59.8635 34.9001 59.8409 34.9182 59.8182L35.4708 59.1344C35.4889 59.1117 35.507 59.0981 35.5251 59.0981C35.5432 59.0981 35.5613 59.1117 35.5749 59.1253ZM36.4218 60.5474L37.2461 61.2313C37.2642 61.2494 37.2733 61.2675 37.2733 61.2856C37.2733 61.3037 37.2642 61.3219 37.2461 61.34L36.6981 62.0284C36.68 62.0556 36.6619 62.0691 36.6437 62.0691C36.6256 62.0691 36.6075 62.0601 36.5894 62.042L35.7651 61.3581C35.747 61.34 35.738 61.3219 35.738 61.3037C35.738 61.2856 35.747 61.2675 35.7651 61.2403L36.3177 60.5565C36.3358 60.5338 36.3539 60.5202 36.372 60.5202C36.3901 60.5248 36.4037 60.5338 36.4218 60.5474Z" fill="#B38E57"/>
<path d="M42.1193 60.23L42.6039 59.048C42.8666 60.2934 43.0975 61.5072 43.3013 62.6847C43.5006 63.5135 44.1437 64.0027 45.2307 64.1521L45.2171 65.2436C44.1256 65.2708 43.3602 64.7182 42.9164 63.586C42.3955 64.682 41.6845 65.2345 40.7742 65.2436L40.8285 64.1521C41.9155 64.0027 42.468 63.5135 42.4861 62.6847C42.4544 62.0371 42.3321 61.2173 42.1193 60.23ZM41.7524 55.9456L42.5767 56.6295C42.5948 56.6476 42.6039 56.6657 42.6039 56.6839C42.6039 56.702 42.5948 56.7201 42.5858 56.7382L42.0332 57.4266C42.0196 57.4538 42.0015 57.4674 41.9789 57.4674C41.9653 57.4674 41.9472 57.4583 41.9291 57.4402L41.0957 56.7563C41.0776 56.7382 41.0685 56.7201 41.0685 56.702C41.0685 56.6839 41.0776 56.6612 41.0957 56.6386L41.6483 55.9547C41.6664 55.9321 41.6845 55.9185 41.7026 55.9185C41.7207 55.9185 41.7388 55.9321 41.7524 55.9456ZM43.2107 55.9456L44.035 56.6295C44.0531 56.6476 44.0622 56.6657 44.0622 56.6839C44.0622 56.702 44.0531 56.7201 44.035 56.7382L43.487 57.4266C43.4689 57.4538 43.4508 57.4674 43.4327 57.4674C43.4145 57.4674 43.3964 57.4583 43.3783 57.4402L42.5541 56.7563C42.5359 56.7382 42.5269 56.7201 42.5269 56.702C42.5269 56.6839 42.5359 56.6612 42.5541 56.6386L43.1066 55.9547C43.1247 55.9321 43.1428 55.9185 43.1609 55.9185C43.179 55.9275 43.1926 55.9321 43.2107 55.9456Z" fill="#B38E57"/>
<path d="M45.122 64.1565C46.1727 64.0614 47.0468 63.6673 47.7488 62.9835H47.8394C47.8756 62.9835 47.8937 63.0016 47.8937 63.0378C47.8892 64.0478 48.2334 64.546 48.9308 64.5324C49.6283 64.5188 50.2306 64.238 50.7379 63.69C51.2451 63.142 51.5531 62.8657 51.6573 62.8657C51.6935 62.8657 51.7116 62.8838 51.7116 62.9291V62.9835C51.7116 63.0514 51.6437 63.1827 51.5123 63.373C51.5123 63.8168 51.6256 64.1021 51.852 64.2289C52.0785 64.3557 52.3457 64.401 52.6491 64.3648C52.9525 64.3286 53.3601 63.853 53.8719 62.9291L53.9263 62.8929H53.9897C54.0259 62.8929 54.044 62.9246 54.044 62.9835C54.044 62.9971 54.035 63.0514 54.0169 63.1465C54.0848 63.4047 54.3248 63.6402 54.7324 63.844C55.14 64.0523 55.4616 64.1565 55.6926 64.1565L55.6518 65.2479C55.0087 65.2842 54.5241 65.1438 54.1935 64.8268C53.8629 64.5097 53.6908 64.2606 53.6726 64.0749H53.6183C53.2152 64.9354 52.794 65.3793 52.3683 65.411C51.9381 65.4382 51.5757 65.2479 51.2859 64.8358C51.1953 64.6682 51.15 64.5278 51.15 64.4192V64.247C51.15 64.1519 51.1681 64.0387 51.2044 63.9119C50.8375 64.5958 50.3756 65.0759 49.823 65.3566C49.2705 65.6374 48.7542 65.6827 48.2696 65.488C47.785 65.2932 47.5087 64.8086 47.4363 64.0206H47.3819C46.7615 64.6547 46.0051 65.0623 45.1084 65.2479L45.122 64.1565Z" fill="#B38E57"/>
<path d="M55.6155 65.2483V64.1568C56.5621 63.9077 57.1146 63.5001 57.2731 62.943C57.4317 62.386 57.563 62.0282 57.6626 61.8697C57.7306 61.9104 57.7804 61.9331 57.8121 61.9331C58.3012 61.2809 58.8175 60.9911 59.3655 61.059C59.9135 61.1269 60.2487 61.6885 60.3664 62.7438C60.4842 63.799 60.1853 64.2881 59.4742 64.2157C58.7586 64.1387 58.0793 63.8217 57.4362 63.2555V63.2691C57.178 64.5418 56.5711 65.203 55.6155 65.2483ZM58.0249 62.3407C58.2106 62.6894 58.8266 62.9657 59.8682 63.1604V63.1333C59.5467 62.4584 59.2161 62.1142 58.8854 62.1007C58.5548 62.0871 58.265 62.1641 58.0249 62.3407Z" fill="#B38E57"/>
<path d="M55.3438 68.944V68.9259C57.1735 68.3552 58.899 67.7076 60.5249 66.9784C62.1508 66.2492 63.6544 65.425 65.0312 64.5056C66.408 63.5862 67.11 63.0337 67.1417 62.8389C67.0602 62.3815 66.8157 62.1641 66.4126 62.1913C66.0095 62.2185 65.6562 62.2411 65.3528 62.2638C65.0494 62.2864 64.764 62.2049 64.4923 62.0328C64.2206 61.8562 64.13 61.5663 64.216 61.1632C64.3021 60.7602 64.4787 60.4114 64.7459 60.117C65.0131 59.8227 65.312 59.6777 65.6472 59.6777C65.9823 59.6777 66.4126 59.9631 66.9379 60.5292C67.3818 61.0455 67.6309 61.6025 67.6807 62.1958C67.7305 62.7891 67.6309 63.31 67.3863 63.7493C67.1417 64.1931 66.3492 64.8317 65.0086 65.6605C63.668 66.4893 62.4271 67.1958 61.2813 67.7846C60.1354 68.3688 58.1653 68.7764 55.371 69.0028L55.3438 68.944ZM64.7459 60.9368C64.8365 61.0727 65.0811 61.1542 65.4841 61.1814C65.8827 61.2085 66.1182 61.2221 66.1861 61.2221H66.2133V61.1949C65.8963 60.819 65.5702 60.656 65.2396 60.7058C64.909 60.7511 64.7459 60.8281 64.7459 60.9368Z" fill="#B38E57"/>
<path d="M74.8772 68.0971C74.1435 68.2511 73.514 68.3236 72.9796 68.3145C72.264 68.301 71.6526 68.1107 71.1453 67.7394C70.6381 67.368 70.2848 66.7928 70.0946 66.0138C69.9044 65.2348 69.8953 64.4106 70.0674 63.5456C70.2395 62.6805 70.5067 62.0012 70.8691 61.5075C71.2314 61.0139 71.2404 61.0818 70.9053 61.7159C70.5656 62.3499 70.3981 63.2648 70.3981 64.4649C70.3981 65.6651 70.8193 66.4395 71.6571 66.7883C72.495 67.137 73.5638 67.1959 74.8545 66.9604C74.8817 66.9558 74.9089 66.9513 74.9451 66.9468C76.2042 66.7068 77.4723 66.3082 78.754 65.7602C80.0628 65.1941 80.7195 64.7321 80.7195 64.3698C80.6652 64.1388 80.4297 63.6905 80.0176 63.0247C79.6054 62.359 79.3246 61.7928 79.1842 61.3173C79.0438 60.8463 78.8491 60.407 78.6045 59.9994L79.0529 59.0166C80.4795 60.9006 80.7467 61.5166 79.8455 60.8735C79.8273 61.0682 80.0266 61.4985 80.4478 62.1552C80.869 62.8119 81.0547 63.4187 81.0094 63.9713C80.9641 64.5238 80.8147 65.0039 80.561 65.416C80.3074 65.8281 79.696 66.2765 78.7223 66.7566C77.7486 67.2367 76.7295 67.6216 75.6652 67.9069C75.3799 67.9794 75.1218 68.0428 74.8772 68.0971ZM75.5112 64.1705L74.5964 63.31L75.389 62.4631L76.3038 63.3146L75.5112 64.1705Z" fill="#B38E57"/>
<path d="M86.879 65.2482L86.34 65.2754C86.3219 66.2627 85.8871 67.0825 85.0312 67.7301C83.831 68.6404 82.8029 69.2971 81.9469 69.6957C81.0864 70.1123 80.4388 70.3252 80.0085 70.3252C78.8673 70.3252 78.2196 69.8225 78.0656 68.817C77.9116 67.8116 78.043 66.779 78.4596 65.7192C78.8718 64.6595 79.0167 64.3923 78.8899 64.9221C78.7631 65.4475 78.6136 66.0906 78.4415 66.8424C78.2694 67.5942 78.3917 68.2373 78.8084 68.7717C79.1662 69.0797 79.5058 69.2337 79.8183 69.2337C79.8364 69.2337 79.8455 69.2247 79.8455 69.2065C79.8636 69.2065 79.8908 69.2156 79.927 69.2337C80.1852 69.2337 80.6698 69.125 81.3718 68.9076C82.3364 68.5045 83.5728 67.7482 85.0855 66.6432C85.706 66.1133 86.0139 65.8053 86.0139 65.7147C85.9822 65.5471 85.9098 65.4294 85.7965 65.366C85.321 65.4701 84.8274 65.5426 84.3246 65.5788C83.206 65.5607 82.7576 65.1531 82.975 64.3515C83.1924 63.5499 83.591 63.097 84.1571 62.9883H84.2386C84.8726 62.9883 85.4523 63.3959 85.9868 64.2156H86.0139L86.879 64.1613V65.2482ZM83.4732 64.2383C83.9397 64.51 84.4696 64.5644 85.0583 64.4013C84.61 64.1477 84.2522 64.0209 83.9895 64.0209C83.7268 64.0209 83.5547 64.0752 83.4732 64.1839V64.2383Z" fill="#B38E57"/>
<path d="M86.7702 65.2483V64.1568C87.7168 63.9077 88.2693 63.5001 88.4278 62.943C88.5863 62.386 88.7176 62.0282 88.8173 61.8697C88.8852 61.9104 88.935 61.9331 88.9667 61.9331C89.4559 61.2809 89.9722 60.9911 90.5202 61.059C91.0682 61.1269 91.4033 61.6885 91.5211 62.7438C91.6388 63.799 91.3399 64.2881 90.6289 64.2157C89.9133 64.1387 89.2339 63.8217 88.5908 63.2555V63.2691C88.3282 64.5418 87.7258 65.203 86.7702 65.2483ZM89.1796 62.3407C89.3653 62.6894 89.9812 62.9657 91.0229 63.1604V63.1333C90.7013 62.4584 90.3707 62.1142 90.0401 62.1007C89.7095 62.0871 89.4196 62.1641 89.1796 62.3407Z" fill="#B38E57"/>
<path d="M93.6723 63.1512C93.4549 60.8324 93.2964 58.7355 93.1968 56.856C93.0972 54.981 92.8934 53.4955 92.5809 52.395L92.8934 51.2129C93.0473 51.2084 93.2421 51.8877 93.4776 53.2555C93.7131 54.6232 93.8761 56.3261 93.9712 58.3732C94.0664 60.4203 94.1705 61.856 94.2792 62.6802C94.3879 63.509 94.9857 63.9981 96.0727 64.1476L96.127 65.2391C94.714 65.2844 93.8988 64.5869 93.6723 63.1512Z" fill="#B38E57"/>
<path d="M101.295 62.5125H101.267L96.0546 62.2136C96.1045 61.3214 96.4396 60.6692 97.0646 60.248C97.7621 59.7544 98.5773 59.3422 99.5193 59.0207L100.203 58.8033V58.7761C100.113 58.4772 100.067 58.3051 100.067 58.2598V58.0968C100.158 57.0551 100.511 56.5026 101.127 56.4437C101.743 56.3803 102.445 56.8966 103.233 57.9881L103.396 58.3141L103.129 59.1248C102.617 59.2426 101.911 59.4192 101.018 59.6502V59.7045C101.036 59.9536 101.046 60.1076 101.046 60.1665L100.964 60.2208C100.873 60.2208 100.792 60.0668 100.719 59.7589C100.683 59.7408 100.656 59.7317 100.638 59.7317C99.6642 60.0397 98.609 60.4609 97.4722 60.9862V61.0134L97.5266 61.0406C98.6407 61.113 99.8726 61.2353 101.222 61.4074C102.572 61.5795 104.261 61.6565 106.29 61.6384L105.769 62.6484C104.777 62.7299 103.754 62.9382 102.699 63.2779C101.643 63.6175 100.883 63.8938 100.411 64.1157C98.8309 64.863 97.3771 65.2389 96.0456 65.248L96.0592 64.1565C97.7304 63.8983 99.0438 63.5406 100.004 63.0831C100.439 62.8839 100.869 62.6936 101.295 62.5125ZM100.86 58.6357C100.955 58.6357 101.421 58.5361 102.25 58.3368C101.725 57.7843 101.281 57.4853 100.914 57.4355C100.606 57.5442 100.452 57.6348 100.452 57.7073C100.543 58.056 100.67 58.3685 100.833 58.6357H100.86Z" fill="#B38E57"/>
</svg>
