<svg width="18" height="17" viewBox="0 0 18 17" fill="none" xmlns="http://www.w3.org/2000/svg">
<path d="M0 17V16H8.5V4.94C8.028 4.85467 7.61133 4.64067 7.25 4.298C6.88867 3.95533 6.65867 3.52267 6.56 3H3.115L6 10.212C5.96133 10.8787 5.65167 11.4457 5.071 11.913C4.49033 12.381 3.8 12.615 3 12.615C2.2 12.615 1.50967 12.381 0.929 11.913C0.348333 11.4457 0.0386667 10.8787 0 10.212L2.885 3H1V2H6.56C6.67 1.442 6.948 0.969333 7.394 0.582C7.84 0.194667 8.37533 0.000666667 9 0C9.62467 0 10.16 0.194 10.606 0.582C11.052 0.969333 11.33 1.442 11.44 2H17V3H15.115L18 10.212C17.9613 10.8787 17.6517 11.4457 17.071 11.913C16.4903 12.381 15.8 12.615 15 12.615C14.2 12.615 13.5097 12.381 12.929 11.913C12.3483 11.4457 12.0387 10.8787 12 10.212L14.885 3H11.44C11.3413 3.52333 11.1113 3.956 10.75 4.298C10.3887 4.64 9.972 4.854 9.5 4.94V16H18V17H0ZM12.99 10.115H17.01L15 5.092L12.99 10.115ZM0.99 10.115H5.01L3 5.092L0.99 10.115ZM9 4C9.41133 4 9.76433 3.853 10.059 3.559C10.353 3.26433 10.5 2.91133 10.5 2.5C10.5 2.08867 10.353 1.73567 10.059 1.441C9.76433 1.147 9.41133 1 9 1C8.58867 1 8.23567 1.147 7.941 1.441C7.647 1.73567 7.5 2.08867 7.5 2.5C7.5 2.91133 7.647 3.26433 7.941 3.559C8.23567 3.853 8.58867 4 9 4Z" fill="#B38E57"/>
</svg>
